<svg width="212" height="202" viewBox="0 0 212 202" fill="none" xmlns="http://www.w3.org/2000/svg">
<path d="M87.9706 176.461C88.0935 175.541 88.4027 174.797 88.8983 174.228C89.3918 173.676 90.0034 173.267 90.733 173.001C91.4467 172.733 92.2102 172.575 93.0234 172.529C93.8367 172.483 94.6245 172.506 95.3869 172.598C95.9746 172.67 96.5268 172.825 97.0435 173.065C97.5624 173.289 98.086 173.538 98.6144 173.812C98.8717 173.94 99.1343 174.028 99.4022 174.077C99.6521 174.139 99.92 174.188 100.206 174.223C100.203 174.609 100.201 174.988 100.199 175.358C100.196 175.745 100.201 176.132 100.214 176.52C100.209 176.794 100.214 177.06 100.228 177.32C100.242 177.579 100.232 177.836 100.198 178.09C100.168 178.312 100.104 178.489 100.005 178.622C99.8911 178.753 99.7148 178.805 99.4765 178.776C99.2542 178.749 99.0937 178.681 98.9953 178.572C98.8788 178.477 98.8026 178.323 98.7666 178.109C98.6935 177.81 98.6454 177.506 98.6221 177.197C98.5829 176.886 98.5279 176.573 98.457 176.259C98.2865 175.481 97.9292 174.833 97.3849 174.315C96.8248 173.796 96.1318 173.487 95.3058 173.386C94.194 173.251 93.3018 173.465 92.6294 174.028C91.939 174.605 91.5206 175.441 91.3745 176.535C91.2897 177.17 91.3548 177.709 91.5697 178.155C91.7825 178.616 92.0832 179.023 92.4718 179.376C92.8604 179.729 93.2829 180.071 93.7393 180.4C94.166 180.71 94.6028 181.005 95.0496 181.284C95.4965 181.564 95.9343 181.851 96.3631 182.145C96.8354 182.476 97.2912 182.87 97.7307 183.326C98.1521 183.796 98.4867 184.312 98.7344 184.874C98.9642 185.45 99.0377 186.047 98.9551 186.666C98.8152 187.712 98.4297 188.544 97.7986 189.16C97.1516 189.775 96.377 190.197 95.4748 190.426C94.5567 190.653 93.6291 190.709 92.6919 190.595C92.0884 190.522 91.5203 190.365 90.9877 190.123C90.437 189.895 89.9065 189.637 89.3962 189.349C89.2299 189.265 89.0775 189.198 88.9387 189.149C88.7841 189.098 88.6195 189.062 88.4448 189.041C88.3177 189.025 88.1986 189.011 88.0874 188.997C87.9741 189 87.8608 189.002 87.7475 189.004C87.7676 188.491 87.7798 187.977 87.7841 187.462C87.7884 186.946 87.7926 186.431 87.7969 185.916C87.7916 185.835 87.7953 185.747 87.808 185.651C87.8027 185.57 87.8054 185.49 87.816 185.411C87.8457 185.189 87.9209 184.988 88.0416 184.809C88.1602 184.647 88.3545 184.582 88.6245 184.614C88.831 184.639 88.9755 184.705 89.0581 184.812C89.1407 184.919 89.2101 185.064 89.2662 185.248C89.3911 185.763 89.5091 186.269 89.6203 186.766C89.7314 187.263 89.9263 187.738 90.2047 188.19C90.4948 188.677 90.8882 189.055 91.3848 189.325C91.8793 189.61 92.4045 189.787 92.9604 189.854C93.5005 189.92 93.9733 189.824 94.3788 189.567C94.7823 189.326 95.1021 188.986 95.3383 188.548C95.5744 188.109 95.7254 187.644 95.791 187.152C95.8927 186.391 95.7736 185.772 95.4338 185.296C95.0759 184.833 94.6185 184.391 94.0615 183.969C93.7513 183.754 93.441 183.539 93.1308 183.324C92.8025 183.123 92.4822 182.923 92.1698 182.724C91.4244 182.263 90.7134 181.725 90.0368 181.111C89.3422 180.511 88.7964 179.824 88.3993 179.051C87.9843 178.292 87.8414 177.428 87.9706 176.461Z" fill="white"/>
<path d="M65.7149 182.866C65.7521 182.761 65.8275 182.667 65.9409 182.586C66.0338 182.515 66.1412 182.499 66.263 182.539C66.4611 182.602 66.6591 182.666 66.8571 182.73C67.0498 182.808 67.2451 182.88 67.4431 182.943C67.6412 183.007 67.7976 182.948 67.9125 182.767C68.0221 182.6 68.1036 182.442 68.1568 182.291C68.1834 182.215 68.2127 182.132 68.2447 182.042C68.2561 181.961 68.2751 181.884 68.3017 181.808C68.7863 180.435 69.2682 179.07 69.7475 177.712C70.2116 176.349 70.6832 174.989 71.1625 173.631C71.8654 171.639 72.9169 170.222 74.3171 169.378C75.7118 168.55 77.4526 168.471 79.5394 169.142C81.5957 169.803 83.022 170.808 83.8182 172.156C84.6145 173.504 84.6399 175.234 83.8943 177.347L83.5349 178.365C83.0769 179.663 82.6189 180.96 82.161 182.258C81.6824 183.565 81.2115 184.876 80.7482 186.188C80.7003 186.324 80.6516 186.51 80.6022 186.746C80.5475 186.997 80.6088 187.16 80.7863 187.234C80.979 187.312 81.1846 187.379 81.4032 187.432C81.6065 187.481 81.8072 187.537 82.0052 187.6C82.1119 187.635 82.1975 187.704 82.2623 187.809C82.3218 187.929 82.3328 188.042 82.2956 188.147C82.253 188.268 82.1776 188.362 82.0695 188.428C81.9461 188.489 81.8235 188.5 81.7017 188.46C81.5189 188.402 81.3464 188.338 81.1842 188.269C81.0067 188.195 80.8369 188.124 80.6747 188.055C80.3296 187.927 79.9846 187.799 79.6396 187.671C79.2893 187.559 78.9466 187.449 78.6115 187.341C78.2611 187.228 77.926 187.12 77.6062 187.018C77.2711 186.91 76.9333 186.81 76.5929 186.717C76.3743 186.663 76.1633 186.612 75.96 186.564C75.7361 186.525 75.5251 186.474 75.3271 186.411C75.2053 186.372 75.1299 186.297 75.1009 186.187C75.0567 186.072 75.0559 185.954 75.0985 185.833C75.1358 185.728 75.2084 185.642 75.3166 185.576C75.4041 185.52 75.5088 185.512 75.6307 185.551C75.8287 185.614 76.024 185.686 76.2167 185.764C76.3942 185.838 76.5819 185.907 76.7799 185.971C76.9323 186.02 77.0552 185.984 77.1489 185.863C77.2371 185.757 77.3102 185.646 77.368 185.53C77.4685 185.293 77.5613 185.054 77.6465 184.813C77.7165 184.567 77.7941 184.323 77.8793 184.081C78.3585 182.723 78.853 181.37 79.3628 180.022C79.852 178.684 80.3362 177.337 80.8154 175.979C81.0444 175.33 81.2399 174.704 81.4019 174.101C81.5433 173.508 81.5873 172.951 81.5338 172.43C81.4803 171.908 81.2704 171.446 80.9039 171.043C80.5223 170.634 79.9202 170.298 79.0977 170.033C78.001 169.681 77.0373 169.648 76.2066 169.935C75.3705 170.238 74.664 170.75 74.0871 171.472C73.5048 172.208 73.0432 173.059 72.7024 174.025C72.1752 175.519 71.6785 177.022 71.2122 178.536C70.7459 180.049 70.2492 181.552 69.722 183.046C69.6421 183.272 69.6422 183.44 69.7222 183.55C69.7968 183.675 69.9408 183.772 70.1541 183.84C70.3064 183.889 70.4614 183.931 70.619 183.964C70.7614 183.993 70.9164 184.035 71.0839 184.089C71.1906 184.123 71.2763 184.193 71.341 184.297C71.4058 184.402 71.4169 184.515 71.3743 184.636C71.3317 184.756 71.2563 184.85 71.1482 184.916C71.0249 184.977 70.9023 184.988 70.7804 184.949C70.5367 184.87 70.3059 184.779 70.0881 184.676C69.8649 184.587 69.6342 184.496 69.3958 184.403C69.2488 184.339 69.0991 184.282 68.9468 184.233C68.7945 184.184 68.6422 184.135 68.4899 184.086C68.3223 184.032 68.1548 183.978 67.9872 183.925C67.8044 183.866 67.6266 183.817 67.4537 183.778C67.21 183.7 66.9686 183.639 66.7295 183.596C66.4751 183.548 66.2261 183.484 65.9823 183.406C65.7082 183.318 65.619 183.138 65.7149 182.866Z" fill="white"/>
<path d="M47.5136 172.54C47.6756 172.282 47.8885 172.229 48.1522 172.381C48.2632 172.444 48.3699 172.515 48.4724 172.592C48.5749 172.669 48.6817 172.74 48.7927 172.803C48.8482 172.835 48.9149 172.864 48.9929 172.891C49.0622 172.931 49.1316 172.97 49.201 173.01C49.3398 173.09 49.4854 173.054 49.6379 172.901C49.7819 172.763 49.9178 172.592 50.0457 172.389C50.1651 172.199 50.2503 172.064 50.3015 171.983L58.2698 159.331C58.3295 159.236 58.3945 159.163 58.4649 159.111C58.5214 159.051 58.6164 159.051 58.7498 159.109C58.9612 159.193 59.1736 159.306 59.3871 159.447C59.6091 159.574 59.8216 159.687 60.0244 159.785C59.9137 160.2 59.8601 160.631 59.8637 161.075C59.8533 161.511 59.8654 161.942 59.8998 162.367C60.034 164.914 60.2829 167.444 60.6464 169.956C60.9961 172.461 61.2604 174.981 61.4394 177.516C62.5905 175.689 63.7486 173.865 64.9136 172.045C66.0562 170.231 67.203 168.41 68.3541 166.582C68.4309 166.461 68.5151 166.297 68.6067 166.091C68.6759 165.892 68.6272 165.744 68.4607 165.648C68.2664 165.537 68.0679 165.432 67.8651 165.334C67.6484 165.228 67.4498 165.124 67.2694 165.02C67.1584 164.956 67.1231 164.862 67.1635 164.738C67.1816 164.619 67.2119 164.526 67.2546 164.459C67.3143 164.364 67.3974 164.292 67.5041 164.242C67.5969 164.185 67.6988 164.188 67.8098 164.252C68.0458 164.387 68.2732 164.536 68.492 164.699C68.7109 164.861 68.9383 165.01 69.1742 165.145C69.4934 165.328 69.8238 165.509 70.1654 165.686C70.4985 165.878 70.8331 166.051 71.1694 166.207C71.3028 166.265 71.432 166.33 71.5569 166.402C71.6764 166.452 71.7917 166.509 71.9027 166.573C72.1803 166.732 72.2295 166.954 72.0505 167.238C71.9822 167.346 71.8852 167.41 71.7593 167.43C71.6249 167.464 71.5091 167.453 71.4119 167.397C71.2731 167.317 71.1498 167.228 71.042 167.129C70.9256 167.044 70.798 166.962 70.6593 166.882C70.4511 166.763 70.2814 166.702 70.1501 166.701C69.9965 166.705 69.8429 166.828 69.6894 167.072C68.5127 168.94 67.3221 170.801 66.1177 172.653C64.8994 174.498 63.7019 176.354 62.5252 178.222C62.4143 178.398 62.3077 178.568 62.2054 178.73C62.1031 178.893 61.9965 179.062 61.8856 179.238C61.7748 179.414 61.6986 179.61 61.6572 179.825C61.6018 180.033 61.6852 180.201 61.9072 180.328C62.0738 180.424 62.2515 180.517 62.4405 180.607C62.6155 180.689 62.7932 180.781 62.9737 180.885C63.2096 181.02 63.2465 181.217 63.0845 181.474C62.931 181.718 62.7294 181.768 62.4796 181.624C62.1188 181.417 61.7622 181.204 61.4099 180.983C61.0576 180.762 60.708 180.553 60.3611 180.354C60.0419 180.17 59.7227 179.987 59.4035 179.804C59.0619 179.627 58.7315 179.446 58.4123 179.263C58.2757 177.71 58.0761 176.167 57.8135 174.634C57.5286 173.107 57.3066 171.569 57.1475 170.022C57.0626 169.107 56.9707 168.188 56.8718 167.265C56.773 166.342 56.6629 165.422 56.5417 164.505C55.6378 165.94 54.734 167.375 53.8302 168.81C52.9124 170.237 52.0017 171.668 51.0978 173.103C51.0211 173.225 50.9481 173.386 50.8789 173.586C50.7873 173.791 50.8317 173.946 51.0121 174.049L51.5741 174.372C51.6574 174.42 51.7492 174.454 51.8495 174.474C51.9413 174.509 52.0288 174.55 52.1121 174.598C52.3758 174.749 52.4181 174.967 52.239 175.251C52.1367 175.413 52.0284 175.48 51.9142 175.452C51.7915 175.436 51.6608 175.389 51.522 175.309C51.2444 175.15 50.9781 174.988 50.7229 174.823C50.4539 174.651 50.1875 174.489 49.9239 174.337C49.563 174.13 49.1937 173.937 48.8158 173.757C48.4241 173.569 48.0478 173.371 47.687 173.164C47.5759 173.101 47.5044 173.004 47.4723 172.875C47.4316 172.76 47.4454 172.648 47.5136 172.54Z" fill="white"/>
<path d="M40.7328 155.142C40.0879 155.787 39.5199 156.502 39.0288 157.287C38.5259 158.061 38.1742 158.865 37.9736 159.698C37.7731 160.531 37.7864 161.354 38.0137 162.167C38.2297 162.991 38.734 163.763 39.5264 164.485C40.3307 165.218 41.1402 165.923 41.9548 166.6L52.3405 156.214C52.6346 155.92 52.7966 155.667 52.8264 155.457C52.8562 155.246 52.7056 154.99 52.3744 154.688C51.9722 154.322 51.5354 153.956 51.0638 153.592C50.5804 153.216 50.0752 152.896 49.548 152.632C48.9978 152.369 48.4442 152.211 47.8873 152.157C46.5188 152.056 45.2162 152.297 43.9795 152.878C42.7427 153.459 41.6605 154.214 40.7328 155.142ZM37.9226 153.036C38.6467 152.312 39.4718 151.701 40.398 151.204C41.3241 150.708 42.3058 150.359 43.3431 150.158C44.3572 149.957 45.3872 149.945 46.4332 150.119C47.1074 150.236 47.8073 150.463 48.5329 150.8C49.2472 151.148 49.9281 151.552 50.5755 152.012C51.2111 152.461 51.7773 152.912 52.2741 153.364C52.6881 153.742 53.0851 154.136 53.4651 154.547C53.8446 154.936 54.2414 155.319 54.6554 155.696C54.9511 155.965 55.2527 156.24 55.5602 156.52C55.8672 156.778 56.1858 157.036 56.5159 157.294C56.6455 157.39 56.7636 157.487 56.87 157.584C56.9878 157.669 57.0999 157.761 57.2063 157.858C57.4192 158.052 57.4352 158.239 57.2542 158.42C57.141 158.533 57.0143 158.558 56.8739 158.495C56.7335 158.432 56.5926 158.347 56.4512 158.24C56.2984 158.144 56.1753 158.075 56.0817 158.033C55.7901 157.94 55.5186 157.963 55.2671 158.102C55.0156 158.24 54.7994 158.4 54.6184 158.581C53.5888 159.611 52.565 160.634 51.5468 161.653C50.5286 162.671 49.5104 163.689 48.4922 164.708C47.9039 165.296 47.3212 165.879 46.7442 166.456C46.1441 167.033 45.5733 167.627 45.0318 168.236C45.0092 168.258 44.9698 168.309 44.9138 168.388C44.8346 168.467 44.7893 168.512 44.778 168.524C44.6777 168.692 44.6819 168.868 44.7904 169.054C44.8989 169.239 45.0475 169.407 45.2362 169.557C45.4136 169.719 45.5615 169.853 45.6798 169.961C45.7744 170.047 45.8461 170.145 45.895 170.255C45.9325 170.375 45.8947 170.492 45.7816 170.605C45.5666 170.82 45.3468 170.825 45.1221 170.621C44.8264 170.351 44.5479 170.076 44.2867 169.795C44.0023 169.514 43.7122 169.239 43.4165 168.97C42.5768 168.205 41.7087 167.468 40.8124 166.759C39.8929 166.052 39.0132 165.315 38.1734 164.55C36.896 163.386 36.0336 162.147 35.5862 160.831C35.1388 159.515 35.1138 158.195 35.5114 156.871C35.897 155.536 36.7008 154.258 37.9226 153.036Z" fill="white"/>
<path d="M16.679 133.408C16.9501 133.271 17.1596 133.335 17.3076 133.6C17.3699 133.712 17.425 133.828 17.4731 133.947C17.5211 134.066 17.5762 134.181 17.6385 134.293C17.6697 134.349 17.7119 134.408 17.7651 134.471C17.804 134.541 17.8429 134.611 17.8819 134.68C17.9597 134.82 18.1031 134.864 18.3119 134.812C18.5065 134.767 18.7108 134.69 18.9248 134.581C19.1246 134.48 19.2672 134.408 19.3528 134.364L32.6857 127.597C32.7856 127.546 32.879 127.517 32.9659 127.508C33.045 127.486 33.1268 127.534 33.2111 127.653C33.3487 127.834 33.4726 128.04 33.5829 128.271C33.7075 128.495 33.8315 128.701 33.9548 128.889C33.6461 129.189 33.379 129.531 33.1534 129.914C32.92 130.284 32.7086 130.66 32.5193 131.043C31.3239 133.299 30.2355 135.6 29.2542 137.945C28.265 140.276 27.1948 142.576 26.0435 144.846C27.9696 143.868 29.8996 142.897 31.8335 141.934C33.7453 140.963 35.6643 139.989 37.5904 139.012C37.7188 138.947 37.8751 138.849 38.0592 138.72C38.2213 138.584 38.2557 138.432 38.1622 138.264C38.0532 138.069 37.9371 137.877 37.8138 137.688C37.6827 137.486 37.5665 137.294 37.4653 137.112C37.403 137 37.4211 136.901 37.5197 136.815C37.5962 136.723 37.6701 136.658 37.7415 136.622C37.8414 136.572 37.9497 136.552 38.0664 136.565C38.1754 136.563 38.261 136.618 38.3233 136.73C38.4557 136.968 38.5738 137.213 38.6777 137.465C38.7815 137.717 38.8996 137.962 39.032 138.199C39.2111 138.521 39.4012 138.846 39.6024 139.174C39.7893 139.509 39.9865 139.831 40.1942 140.138C40.2785 140.256 40.3557 140.378 40.4258 140.504C40.5024 140.609 40.5718 140.717 40.6341 140.829C40.7899 141.108 40.7179 141.324 40.4183 141.476C40.3042 141.534 40.1881 141.539 40.07 141.492C39.9377 141.451 39.8443 141.382 39.7898 141.284C39.7119 141.144 39.6522 141.004 39.6106 140.864C39.5548 140.731 39.488 140.595 39.4101 140.455C39.2933 140.245 39.1791 140.106 39.0675 140.037C38.9339 139.961 38.7387 139.989 38.4818 140.119C36.5129 141.119 34.5363 142.104 32.5518 143.075C30.5595 144.033 28.5789 145.011 26.61 146.01C26.4246 146.105 26.2462 146.195 26.075 146.282C25.9038 146.369 25.7254 146.459 25.54 146.554C25.3545 146.648 25.1885 146.777 25.0419 146.941C24.8876 147.091 24.8728 147.278 24.9973 147.501C25.0908 147.669 25.1953 147.84 25.3108 148.015C25.4185 148.175 25.5229 148.346 25.6242 148.528C25.7566 148.766 25.6872 148.953 25.4161 149.091C25.1593 149.221 24.9608 149.16 24.8207 148.909C24.6182 148.545 24.4229 148.178 24.2347 147.808C24.0465 147.437 23.855 147.077 23.6604 146.728C23.4813 146.406 23.3021 146.085 23.123 145.763C22.9219 145.435 22.7318 145.11 22.5527 144.789C23.2346 143.385 23.8575 141.957 24.4214 140.505C24.9633 139.047 25.5641 137.612 26.224 136.202C26.6221 135.372 27.0162 134.536 27.4064 133.692C27.7967 132.848 28.1759 132.002 28.544 131.151C27.0317 131.919 25.5193 132.687 24.007 133.454C22.4869 134.208 20.9706 134.968 19.4583 135.736C19.3299 135.801 19.1846 135.902 19.0225 136.038C18.8383 136.167 18.7969 136.323 18.8981 136.504L19.2135 137.071C19.2602 137.154 19.3212 137.231 19.3964 137.3C19.4574 137.377 19.5113 137.457 19.558 137.541C19.706 137.807 19.6301 138.015 19.3305 138.168C19.1593 138.254 19.0322 138.256 18.9491 138.173C18.8518 138.097 18.7642 137.989 18.6864 137.849C18.5306 137.569 18.3859 137.293 18.2522 137.021C18.1107 136.734 17.966 136.458 17.8181 136.192C17.6156 135.829 17.3989 135.472 17.1679 135.123C16.9291 134.761 16.7085 134.397 16.506 134.034C16.4437 133.922 16.432 133.803 16.4709 133.675C16.4955 133.555 16.5649 133.466 16.679 133.408Z" fill="white"/>
<path d="M24.6833 113.614C24.9301 113.546 25.1938 113.506 25.4746 113.495C25.7353 113.473 26.0013 113.441 26.2728 113.399C26.5751 113.349 26.8875 113.305 27.2099 113.265C27.5276 113.211 27.8454 113.156 28.1631 113.102C28.4238 113.08 28.6144 113.102 28.7347 113.168C28.8397 113.239 28.9316 113.404 29.0104 113.664C29.4835 115.226 29.9489 116.79 30.4066 118.357C30.8488 119.927 31.3065 121.493 31.7796 123.055C31.9419 123.591 32.1274 124.121 32.336 124.644C32.56 125.163 32.7532 125.69 32.9156 126.226C32.9944 126.487 32.9027 126.653 32.6405 126.725C32.3783 126.798 32.2125 126.719 32.1429 126.489C32.0579 126.264 31.9605 126.025 31.8508 125.773C31.7272 125.476 31.5373 125.263 31.2812 125.134C31.005 124.995 30.5429 125.014 29.8952 125.193L17.4252 128.634C17.1784 128.702 16.9533 128.814 16.7498 128.97C16.5416 129.11 16.4839 129.334 16.5767 129.64C16.6323 129.824 16.6957 130.005 16.7668 130.185C16.8224 130.368 16.8781 130.552 16.9338 130.736C17.0497 131.119 16.9226 131.361 16.5524 131.463C16.3674 131.514 16.2331 131.485 16.1498 131.375C16.051 131.27 15.9784 131.141 15.932 130.987C15.7975 130.543 15.6807 130.103 15.5817 129.665C15.4672 129.232 15.3451 128.802 15.2152 128.373C14.7792 126.933 14.3355 125.496 13.8841 124.061C13.4173 122.63 12.9658 121.195 12.5299 119.755C12.4464 119.48 12.3552 119.206 12.2563 118.935C12.1419 118.668 12.0276 118.401 11.9132 118.134C12.1507 118.035 12.3883 117.936 12.6257 117.837C12.8586 117.723 13.0938 117.617 13.3313 117.518C13.6104 117.391 13.9003 117.245 14.201 117.079C14.4971 116.898 14.7994 116.765 15.1079 116.68C15.2929 116.628 15.4704 116.662 15.6401 116.782C15.7945 116.905 15.8972 117.051 15.9482 117.219C16.0595 117.587 15.9718 117.876 15.685 118.088C15.0296 118.518 14.5325 119.029 14.1935 119.62C13.8345 120.2 13.7778 120.896 14.0237 121.708L15.276 125.842L22.0778 123.965C21.9015 123.383 21.7222 122.819 21.5398 122.272C21.3528 121.71 21.1503 121.151 20.9324 120.598C20.7145 120.044 20.4573 119.526 20.1608 119.043C20.0496 118.842 19.9207 118.637 19.774 118.428C19.6226 118.205 19.5145 117.986 19.4496 117.771C19.3939 117.587 19.4509 117.472 19.6206 117.425C19.7285 117.396 19.8998 117.382 20.1342 117.383C20.3641 117.37 20.5376 117.363 20.6549 117.364C20.8786 117.385 21.0252 117.428 21.0946 117.492C21.1487 117.56 21.2058 117.693 21.2661 117.892C21.3774 118.26 21.4633 118.626 21.5237 118.991C21.6383 119.59 21.7783 120.19 21.9437 120.792C22.0938 121.397 22.2593 121.999 22.4401 122.596C22.5422 122.933 22.7205 123.191 22.9752 123.369C23.2098 123.537 23.5122 123.569 23.8823 123.467L29.5736 121.897C29.9438 121.795 30.1921 121.676 30.3185 121.542C30.4402 121.392 30.4431 121.126 30.3272 120.743C30.202 120.33 30.0628 119.87 29.9097 119.365C29.7567 118.86 29.5782 118.353 29.3742 117.845C29.1656 117.322 28.9146 116.852 28.6212 116.435C28.3278 116.018 27.9805 115.699 27.5793 115.478C27.2382 115.29 26.8147 115.133 26.3086 115.007C25.8025 114.882 25.3567 114.789 24.971 114.729C24.7627 114.704 24.6161 114.661 24.5312 114.602C24.4309 114.547 24.3506 114.419 24.2903 114.22C24.2347 114.037 24.2438 113.901 24.3178 113.815C24.3918 113.728 24.5136 113.661 24.6833 113.614Z" fill="white"/>
<path d="M14.8896 103.235C13.7093 103.329 12.8232 103.664 12.2311 104.241C11.6376 104.802 11.3945 105.696 11.5016 106.923L11.5392 107.353C11.5504 107.481 11.5622 107.616 11.5747 107.76C11.5872 107.903 11.615 108.038 11.658 108.162C11.7198 108.318 11.8006 108.416 11.9005 108.456C12.0004 108.496 12.138 108.51 12.3135 108.496C13.2386 108.422 14.1643 108.356 15.0908 108.299C15.9999 108.226 16.925 108.153 17.866 108.078L18.8469 108C18.8531 107.887 18.8594 107.774 18.8656 107.661C18.8558 107.55 18.8461 107.438 18.8363 107.327C18.764 106.498 18.6036 105.764 18.3551 105.126C18.0893 104.473 17.6845 103.976 17.1407 103.634C16.581 103.293 15.8306 103.16 14.8896 103.235ZM27.1829 96.142C27.3264 96.1306 27.4499 96.2572 27.5533 96.5218C27.6394 96.7718 27.7064 97.0794 27.7543 97.4448C27.8169 97.7929 27.862 98.1264 27.8899 98.4451C27.9336 98.7627 27.9604 98.9772 27.9702 99.0888C28.023 99.6945 28.0072 100.249 27.9228 100.754C27.8369 101.242 27.5136 101.677 26.9526 102.059C25.7407 102.893 24.5114 103.713 23.2648 104.519C22.0022 105.325 20.7476 106.131 19.5009 106.937L19.5647 107.943C20.8247 107.843 22.0927 107.742 23.3687 107.64C24.6273 107.524 25.8946 107.415 27.1706 107.314C27.3141 107.302 27.4542 107.251 27.5908 107.16C27.7114 107.07 27.7648 106.946 27.7508 106.786C27.7341 106.595 27.7095 106.404 27.6768 106.214C27.6442 106.024 27.6195 105.834 27.6028 105.642C27.5958 105.563 27.6454 105.486 27.7515 105.414C27.8402 105.327 27.9245 105.28 28.0042 105.273C28.1159 105.264 28.2143 105.289 28.2997 105.346C28.3836 105.388 28.4304 105.464 28.4401 105.576C28.4527 105.719 28.4565 105.855 28.4517 105.984C28.4469 106.113 28.4501 106.241 28.4612 106.369C28.4543 106.658 28.4634 106.946 28.4885 107.233C28.5135 107.52 28.5386 107.807 28.5636 108.094C28.6235 108.779 28.7 109.471 28.7931 110.17C28.8848 110.853 28.9613 111.545 29.0225 112.246C29.0462 112.517 28.9145 112.664 28.6274 112.687C28.5157 112.696 28.4238 112.655 28.3517 112.565C28.2636 112.475 28.2147 112.375 28.2049 112.263C28.191 112.104 28.1851 111.944 28.1871 111.783C28.1891 111.623 28.1832 111.462 28.1693 111.303C28.1498 111.08 28.0932 110.892 27.9996 110.739C27.9059 110.586 27.7315 110.519 27.4763 110.54L12.691 111.716C12.4517 111.735 12.2964 111.795 12.225 111.897C12.1377 112 12.1037 112.164 12.1232 112.387C12.1371 112.546 12.159 112.705 12.1889 112.863C12.2188 113.021 12.2406 113.18 12.2546 113.339C12.2643 113.451 12.2349 113.574 12.1663 113.707C12.0962 113.825 11.9974 113.889 11.8698 113.9C11.5668 113.924 11.4 113.76 11.3694 113.41C11.3554 113.25 11.3495 113.09 11.3515 112.93C11.3376 112.77 11.3317 112.61 11.3337 112.45C11.3218 112.13 11.3092 111.802 11.296 111.466C11.2667 111.131 11.2382 110.804 11.2104 110.485C11.1436 109.72 11.0536 108.965 10.9403 108.22C10.8097 107.46 10.7117 106.705 10.6463 105.956C10.5892 105.302 10.5946 104.628 10.6624 103.932C10.7142 103.238 10.8658 102.584 11.1174 101.97C11.3676 101.34 11.7398 100.821 12.2341 100.413C12.7125 100.005 13.3504 99.7701 14.1479 99.7067C15.1209 99.6293 15.9198 99.7664 16.5447 100.118C17.1682 100.454 17.6694 100.951 18.0483 101.611C18.4257 102.255 18.7397 103.001 18.9903 103.848C20.205 103.045 21.391 102.188 22.5481 101.278C23.7053 100.367 24.8458 99.4496 25.9696 98.5257C26.2532 98.2784 26.4993 97.9699 26.7079 97.6002C26.9006 97.2318 26.9809 96.8643 26.9489 96.4977C26.9392 96.3861 26.9482 96.3051 26.9759 96.2548C26.9863 96.1898 27.0553 96.1522 27.1829 96.142Z" fill="white"/>
<path d="M23.0046 79.6779C23.1317 79.6931 23.2467 79.739 23.3496 79.8157C23.4546 79.8765 23.4967 79.9863 23.476 80.1449L23.3173 81.3586L28.2504 81.9463C28.3685 82.5243 28.5114 83.0971 28.6792 83.6649C28.8311 84.2308 28.9988 84.7986 29.1825 85.3683C29.3662 85.938 29.4483 86.544 29.4289 87.1861C29.4115 87.8124 29.3634 88.427 29.2846 89.0299C29.2161 89.5534 29.0869 90.11 28.8968 90.6996C28.7068 91.2892 28.4712 91.8573 28.1899 92.4039C27.8928 92.9485 27.5653 93.417 27.2075 93.8094C26.214 94.8672 25.0306 95.5883 23.6573 95.9725C22.286 96.3408 20.9093 96.4427 19.5271 96.278C18.2719 96.1285 17.1211 95.7981 16.0747 95.2867C15.0303 94.7595 14.1427 94.0818 13.412 93.2536C12.6833 92.4095 12.1561 91.4444 11.8302 90.3583C11.4904 89.2544 11.4056 88.0521 11.5757 86.7511C11.7106 85.7199 12.0022 84.7235 12.4507 83.7618C12.517 83.6247 12.6244 83.42 12.773 83.1477C12.9236 82.8595 13.0732 82.5793 13.2218 82.3069C13.3565 82.0169 13.4301 81.8242 13.4426 81.729C13.4737 81.4911 13.4081 81.3141 13.2458 81.1981C13.0834 81.0821 12.9201 80.974 12.7557 80.8738C12.5934 80.7578 12.5236 80.6126 12.5464 80.438C12.5589 80.3429 12.5941 80.2584 12.6522 80.1848C12.7123 80.0953 12.7979 80.0571 12.9092 80.0704C13.64 80.1575 14.3639 80.2356 15.0809 80.3049C15.8 80.3584 16.525 80.4286 17.2558 80.5157C17.4783 80.5422 17.6506 80.6433 17.7728 80.819C17.8971 80.9788 17.9448 81.1697 17.9157 81.3919C17.8805 81.6616 17.8 81.8453 17.6742 81.9431C17.5347 82.0232 17.3406 82.0887 17.0919 82.1396C15.8167 82.3905 14.7507 82.8919 13.8941 83.6438C13.0395 84.3798 12.5251 85.4141 12.3508 86.7468C12.2678 87.3814 12.343 87.9784 12.5764 88.5379C12.8098 89.0974 13.1469 89.6048 13.5875 90.0601C14.0144 90.4977 14.4961 90.8854 15.0328 91.2232C15.5695 91.561 16.0986 91.8335 16.6201 92.0407C17.1416 92.2478 17.6842 92.4172 18.2479 92.5487C18.8115 92.6803 19.3794 92.7802 19.9513 92.8483C20.5074 92.9146 21.0676 92.9491 21.632 92.9519C22.1963 92.9547 22.759 92.9089 23.3199 92.8146C24.0777 92.6954 24.8172 92.4693 25.5384 92.1363C26.2596 91.8033 26.8752 91.353 27.3851 90.7854C27.897 90.2019 28.2069 89.4976 28.3148 88.6727C28.3542 88.3712 28.3591 88.0254 28.3294 87.6352C28.3019 87.2291 28.2315 86.8421 28.1182 86.4741C28.0071 86.0903 27.8399 85.7643 27.6168 85.496C27.3779 85.2259 27.0677 85.0681 26.6864 85.0227L23.5407 84.6479C23.4136 84.6328 23.2813 84.6573 23.1438 84.7215C23.0084 84.7698 22.9314 84.8653 22.9127 85.0081C22.8837 85.2302 22.8695 85.4622 22.8701 85.7039C22.857 85.9279 22.8359 86.151 22.8068 86.3731C22.7902 86.5 22.7042 86.6026 22.5488 86.6807C22.3795 86.7411 22.2393 86.7647 22.1281 86.7514C22.0169 86.7382 21.9278 86.6792 21.8608 86.5746C21.7938 86.4699 21.7676 86.3621 21.7821 86.251C21.8111 86.0289 21.8481 85.8078 21.893 85.5875C21.9241 85.3496 21.9542 85.1195 21.9833 84.8974C22.0538 84.358 22.1233 83.8265 22.1918 83.303C22.2464 82.7617 22.301 82.2204 22.3557 81.6791C22.3771 81.3916 22.3986 81.1042 22.42 80.8167C22.4256 80.5273 22.4471 80.2399 22.4844 79.9543C22.501 79.8274 22.568 79.7468 22.6855 79.7124C22.787 79.6762 22.8934 79.6647 23.0046 79.6779Z" fill="white"/>
<path d="M27.4049 70.0805C26.0062 70.0802 24.6094 70.0975 23.2147 70.1324C21.8255 70.1522 20.4371 70.147 19.0495 70.1167C20.1365 70.957 21.2131 71.8022 22.2793 72.6524C23.3511 73.4875 24.4277 74.3328 25.5092 75.188L27.4049 70.0805ZM15.2443 66.3736C14.8503 66.2403 14.4819 66.2677 14.1391 66.4557C13.7868 66.6235 13.5411 66.895 13.4019 67.27C13.2682 67.63 13.2774 67.996 13.4293 68.3682C13.5715 68.7202 13.8397 68.9628 14.2338 69.0961C14.6127 69.2242 14.966 69.1917 15.2935 68.9986C15.6267 68.7905 15.8601 68.5064 15.9937 68.1464C16.1273 67.7864 16.1306 67.433 16.0034 67.0861C15.8763 66.7392 15.6233 66.5017 15.2443 66.3736ZM36.4438 65.5145C36.6711 65.5914 36.7319 65.7723 36.6261 66.0573C36.5927 66.1473 36.5593 66.2373 36.5259 66.3273C36.4925 66.4173 36.4487 66.5122 36.3946 66.6121C36.2251 66.9769 36.0652 67.3617 35.9148 67.7667C35.7701 68.1567 35.6253 68.5467 35.4806 68.9367C35.2968 69.4317 35.1131 69.9267 34.9294 70.4217C34.7456 70.9167 34.5743 71.4244 34.4153 71.9446C34.4082 72.0097 34.3935 72.0723 34.3712 72.1323C34.3489 72.1923 34.3267 72.2523 34.3044 72.3123C34.2265 72.5223 34.0814 72.5914 33.8692 72.5197C33.6873 72.4582 33.6035 72.3623 33.6177 72.232C33.6223 72.0817 33.6629 71.9265 33.7393 71.7667C33.8157 71.6068 33.8734 71.4744 33.9123 71.3694C34.0125 71.0994 34.0319 70.8864 33.9703 70.7305C33.8992 70.5545 33.7196 70.4178 33.4316 70.3205C33.2649 70.2641 32.9547 70.2267 32.5009 70.2083C32.0375 70.1698 31.5251 70.1485 30.9637 70.1443C30.4078 70.1252 29.8899 70.1189 29.4098 70.1254C28.9202 70.1117 28.5733 70.1042 28.3691 70.1027L26.2645 75.7727C26.3443 75.8334 26.5211 75.9776 26.7949 76.2053C27.0742 76.4179 27.3982 76.671 27.7669 76.9645C28.1412 77.243 28.5079 77.5189 28.867 77.7923C29.2262 78.0657 29.5406 78.2986 29.8103 78.4912C30.0649 78.6785 30.2225 78.7825 30.2831 78.803C30.5711 78.9004 30.796 78.892 30.9578 78.7779C31.1195 78.6637 31.2498 78.4967 31.3484 78.2769C31.4319 78.0519 31.5127 77.8344 31.5906 77.6244C31.6185 77.5494 31.6938 77.5073 31.8166 77.4982C31.9242 77.4839 32.0159 77.4896 32.0917 77.5153C32.1827 77.546 32.2369 77.6066 32.2546 77.6969C32.2778 77.7723 32.2755 77.8475 32.2476 77.9225C32.0639 78.4175 31.865 78.9074 31.651 79.3921C31.4576 79.867 31.2719 80.3445 31.0937 80.8245C31.0046 81.0645 30.9231 81.307 30.8492 81.5521C30.7753 81.7973 30.691 82.0473 30.5963 82.3023C30.5685 82.3773 30.5104 82.4421 30.4219 82.4966C30.3334 82.5511 30.2513 82.5655 30.1755 82.5399C30.0088 82.4835 29.925 82.3876 29.924 82.2523C29.9231 82.1169 29.9581 81.9768 30.0289 81.8319C30.0901 81.6669 30.1402 81.5319 30.1792 81.4269C30.2516 81.2319 30.2343 81.0488 30.1272 80.8775C30.0106 80.6861 29.8877 80.5348 29.7584 80.4236C27.8835 78.8104 25.99 77.2246 24.0778 75.6663C22.1504 74.1029 20.2015 72.5744 18.2311 71.0808C18.0866 70.9645 17.8795 70.81 17.6098 70.6175C17.34 70.425 17.1294 70.3031 16.9778 70.2519C16.8869 70.2211 16.8027 70.218 16.7254 70.2425C16.6385 70.2469 16.5647 70.2388 16.5041 70.2183C16.4283 70.1927 16.4071 70.1349 16.4405 70.0449C16.4715 69.8696 16.5175 69.6995 16.5788 69.5345C16.64 69.3695 16.6937 69.2019 16.7398 69.0318C16.8208 68.7215 16.9019 68.4113 16.9829 68.101C17.0488 67.7857 17.1195 67.4803 17.1949 67.1851L34.579 66.8845C34.9873 66.8875 35.2807 66.8095 35.4592 66.6503C35.6281 66.4711 35.7766 66.209 35.9046 65.864C35.9547 65.729 36.0192 65.6242 36.0981 65.5495C36.1618 65.4698 36.277 65.4581 36.4438 65.5145ZM15.4865 65.721C16.0473 65.9107 16.4269 66.2669 16.6252 66.7898C16.8083 67.3076 16.8024 67.829 16.6075 68.354C16.4071 68.894 16.065 69.3101 15.5812 69.6023C15.0879 69.8745 14.5608 69.9157 14 69.7261C13.4392 69.5364 13.0493 69.1851 12.8303 68.6721C12.6017 68.139 12.5876 67.6024 12.788 67.0624C12.9829 66.5374 13.3449 66.1364 13.8742 65.8596C14.3883 65.5776 14.9257 65.5314 15.4865 65.721Z" fill="white"/>
<path d="M30.9457 51.7986C29.9226 51.2028 28.9923 50.9663 28.1548 51.0892C27.326 51.1985 26.5799 51.7722 25.9164 52.8103L25.6837 53.1743C25.6148 53.2822 25.5415 53.3967 25.464 53.5181C25.3864 53.6394 25.327 53.7621 25.2857 53.886C25.2411 54.045 25.2473 54.1688 25.3044 54.2576C25.3615 54.3463 25.4661 54.435 25.6182 54.5236C26.4201 54.9905 27.2178 55.4642 28.0111 55.9447C28.7992 56.4036 29.6012 56.8706 30.4169 57.3456L31.2673 57.8408C31.3414 57.7545 31.4156 57.6681 31.4897 57.5818C31.55 57.4874 31.6104 57.3931 31.6707 57.2987C32.1187 56.5977 32.4365 55.9225 32.6238 55.2731C32.806 54.6022 32.7793 53.9762 32.5436 53.395C32.2941 52.8057 31.7615 52.2736 30.9457 51.7986ZM45.3454 53.1353C45.4698 53.2078 45.4934 53.3788 45.416 53.6482C45.3335 53.8961 45.2 54.1791 45.0157 54.4972C44.8537 54.8099 44.6866 55.1011 44.5143 55.3707C44.3558 55.6484 44.2463 55.8344 44.186 55.9288C43.8586 56.4411 43.506 56.874 43.1283 57.2275C42.7591 57.5676 42.2283 57.7302 41.5358 57.7154C40.0333 57.6915 38.5255 57.646 37.0126 57.5789C35.4859 57.5039 33.966 57.4328 32.4531 57.3658L31.8895 58.2031C32.9818 58.8391 34.081 59.4792 35.1872 60.1233C36.2881 60.7459 37.3916 61.3792 38.4977 62.0233C38.6222 62.0958 38.7682 62.1345 38.9357 62.1396C39.0894 62.1366 39.2093 62.0677 39.2955 61.9329C39.3989 61.7711 39.4954 61.6053 39.585 61.4354C39.6745 61.2656 39.771 61.0998 39.8744 60.938C39.9175 60.8706 40.0047 60.8381 40.1359 60.8406C40.262 60.8215 40.3596 60.832 40.4287 60.8723C40.5255 60.9287 40.5912 61.0039 40.6259 61.0981C40.6692 61.1788 40.6606 61.2664 40.6003 61.3607C40.5228 61.4821 40.4426 61.5926 40.3599 61.6924C40.2771 61.7922 40.2012 61.8961 40.1323 62.0039C39.9496 62.2305 39.7806 62.4651 39.6255 62.7077C39.4704 62.9504 39.3153 63.1931 39.1602 63.4357C38.7897 64.0155 38.4287 64.6099 38.0772 65.2192C37.7343 65.815 37.3733 66.4095 36.9942 67.0027C36.8477 67.2319 36.65 67.274 36.4011 67.1291C36.3043 67.0728 36.2541 66.988 36.2505 66.8749C36.2331 66.7538 36.2546 66.646 36.3149 66.5517C36.401 66.4168 36.4941 66.2861 36.5941 66.1593C36.6941 66.0325 36.7872 65.9017 36.8734 65.7669C36.994 65.5782 37.0628 65.3963 37.0799 65.2212C37.0969 65.0461 36.9948 64.8942 36.7736 64.7654L23.9562 57.3019C23.7488 57.1811 23.5847 57.141 23.4639 57.1817C23.3292 57.2142 23.2016 57.3249 23.0809 57.5137C22.9948 57.6485 22.9155 57.7873 22.8432 57.9302C22.7708 58.073 22.6916 58.2119 22.6054 58.3467C22.5451 58.4411 22.4459 58.522 22.3078 58.5896C22.1784 58.6438 22.0583 58.6386 21.9477 58.5742C21.685 58.4212 21.6485 58.1964 21.838 57.8998C21.9242 57.765 22.0173 57.6342 22.1173 57.5075C22.2034 57.3727 22.2965 57.2419 22.3965 57.1151C22.5827 56.8535 22.7731 56.5852 22.9679 56.3102C23.1489 56.027 23.3255 55.7507 23.4979 55.481C23.9115 54.8339 24.3 54.1815 24.6635 53.5237C25.0218 52.8444 25.4035 52.1879 25.8085 51.5543C26.1618 51.0015 26.579 50.4675 27.0601 49.9522C27.5274 49.4289 28.0519 48.9943 28.6334 48.6485C29.2235 48.2891 29.8458 48.0873 30.5003 48.0429C31.1409 47.9905 31.8069 48.1655 32.4983 48.5681C33.3417 49.0592 33.9115 49.6222 34.2077 50.2572C34.5124 50.8786 34.6178 51.5597 34.5239 52.3004C34.4385 53.0277 34.2392 53.7996 33.926 54.6162C35.4112 54.6671 36.9059 54.6587 38.4101 54.5911C39.9142 54.5235 41.4088 54.4411 42.8938 54.3439C43.2772 54.3081 43.6673 54.2024 44.0643 54.0265C44.4475 53.8427 44.7381 53.5957 44.9363 53.2856C44.9966 53.1912 45.0535 53.1319 45.107 53.1075C45.1553 53.0617 45.2348 53.0709 45.3454 53.1353Z" fill="white"/>
<path d="M48.6531 38.7829C47.9774 38.1704 47.2284 37.6316 46.4059 37.1666C45.5948 36.6902 44.7527 36.3582 43.8795 36.1708C43.0064 35.9833 42.1443 36 41.2932 36.2208C40.4303 36.431 39.6208 36.916 38.8647 37.6759C38.0973 38.4472 37.359 39.2232 36.6497 40.004L47.5322 49.8686C47.8404 50.148 48.1049 50.3014 48.3255 50.3288C48.5462 50.3563 48.8146 50.2113 49.1305 49.8937C49.5142 49.508 49.8971 49.0893 50.2791 48.6374C50.6723 48.1741 51.0072 47.6903 51.2836 47.1859C51.5595 46.6594 51.7253 46.1302 51.7811 45.5983C51.8863 44.2915 51.6343 43.0492 51.0251 41.8714C50.4159 40.6935 49.6252 39.6641 48.6531 38.7829ZM50.8587 36.0903C51.6174 36.7781 52.257 37.5628 52.7776 38.4445C53.2982 39.3263 53.6638 40.2617 53.8745 41.2509C54.0847 42.218 54.0985 43.2012 53.9158 44.2005C53.7935 44.8446 53.5561 45.5138 53.2035 46.2081C52.839 46.8916 52.4159 47.5435 51.934 48.1637C51.4635 48.7726 50.9912 49.3153 50.5172 49.7916C50.1222 50.1886 49.7095 50.5695 49.2789 50.9342C48.8715 51.2983 48.4703 51.6789 48.0753 52.0759C47.7932 52.3594 47.5054 52.6486 47.212 52.9435C46.9417 53.2378 46.6718 53.5432 46.402 53.8596C46.3011 53.9837 46.1998 54.0969 46.0982 54.1989C46.0085 54.3118 45.9128 54.4192 45.8113 54.5213C45.6081 54.7255 45.4117 54.7416 45.2221 54.5696C45.1035 54.4622 45.0773 54.3413 45.1433 54.207C45.2093 54.0727 45.2984 53.9377 45.4107 53.8022C45.5111 53.656 45.5833 53.5381 45.6273 53.4485C45.7243 53.1698 45.7003 52.9107 45.5552 52.6713C45.4101 52.4319 45.2427 52.2262 45.053 52.0543C43.9743 51.0765 42.9014 50.104 41.8345 49.1369C40.7676 48.1697 39.7007 47.2026 38.6338 46.2355C38.0174 45.6767 37.4069 45.1233 36.8023 44.5753C36.1971 44.0052 35.5753 43.4631 34.9369 42.9491C34.9132 42.9276 34.8601 42.8903 34.7777 42.8372C34.6947 42.762 34.6473 42.719 34.6355 42.7082C34.4594 42.6133 34.2742 42.6181 34.0801 42.7226C33.886 42.827 33.7102 42.9697 33.5528 43.1506C33.3835 43.3207 33.2424 43.4625 33.1296 43.5759C33.0393 43.6666 32.9369 43.7356 32.8223 43.7827C32.6959 43.8191 32.5734 43.7836 32.4549 43.6762C32.2297 43.472 32.2242 43.2622 32.4387 43.0467C32.7208 42.7631 33.0091 42.496 33.3037 42.2453C33.5977 41.9725 33.8857 41.6943 34.1679 41.4107C34.9691 40.6054 35.7407 39.7733 36.4827 38.9143C37.2241 38.0331 37.9954 37.1899 38.7967 36.3847C40.0155 35.1597 41.314 34.3305 42.6921 33.8972C44.0702 33.4638 45.453 33.4337 46.8403 33.8068C48.239 34.1686 49.5784 34.9298 50.8587 36.0903Z" fill="white"/>
<path d="M67.659 32.0521C67.808 32.2603 67.9349 32.4924 68.0396 32.7485C68.1484 32.9829 68.2686 33.2195 68.4001 33.4581C68.5502 33.7228 68.6983 33.9983 68.8444 34.2848C69.0039 34.5624 69.1633 34.8401 69.3228 35.1178C69.4316 35.3522 69.4737 35.5346 69.4492 35.6651C69.4153 35.7826 69.2845 35.9157 69.0566 36.0643C67.6896 36.9557 66.318 37.8407 64.9416 38.7191C63.556 39.5846 62.1797 40.4631 60.8127 41.3545C60.3436 41.6604 59.8885 41.9858 59.4474 42.3308C59.0156 42.6887 58.5651 43.0206 58.0961 43.3265C57.8682 43.4751 57.6751 43.4388 57.5168 43.2176C57.3585 42.9964 57.3799 42.8203 57.5809 42.6892C57.7726 42.5451 57.9731 42.3857 58.1823 42.2111C58.4317 42.0103 58.5763 41.7729 58.616 41.4989C58.6599 41.2031 58.4862 40.782 58.0951 40.2356L50.5655 29.7168C50.4165 29.5086 50.232 29.3331 50.0119 29.1904C49.8052 29.039 49.5678 29.0506 49.2997 29.2254C49.1389 29.3303 48.9827 29.4417 48.8312 29.5596C48.6704 29.6645 48.5096 29.7694 48.3488 29.8742C48.0137 30.0927 47.7344 30.0459 47.5109 29.7336C47.3992 29.5775 47.3829 29.4449 47.4622 29.336C47.5322 29.214 47.6342 29.1094 47.7682 29.022C48.1568 28.7685 48.5481 28.5324 48.942 28.3137C49.3266 28.082 49.7065 27.8438 50.0817 27.5991C51.3415 26.7775 52.5967 25.9495 53.8471 25.1149C55.0883 24.2674 56.3388 23.4328 57.5986 22.6113C57.8398 22.4539 58.0764 22.2901 58.3083 22.1198C58.5309 21.9364 58.7535 21.7531 58.9761 21.5698C59.152 21.7604 59.3278 21.9511 59.5036 22.1418C59.6928 22.3238 59.8753 22.5101 60.0511 22.7008C60.2683 22.9217 60.5081 23.147 60.7707 23.3765C61.0467 23.5973 61.2778 23.8378 61.4641 24.098C61.5758 24.2541 61.602 24.4279 61.5424 24.6194C61.4736 24.7979 61.3655 24.9352 61.2181 25.0313C60.8964 25.2411 60.5842 25.2443 60.2814 25.041C59.6427 24.5606 58.9779 24.2499 58.2872 24.1087C57.6005 23.9459 56.902 24.096 56.1917 24.5592L52.5731 26.919L56.6802 32.6566C57.1894 32.3244 57.6807 31.9946 58.1538 31.6669C58.6404 31.3305 59.1176 30.9811 59.5856 30.6187C60.0535 30.2563 60.4734 29.868 60.8452 29.4537C61.0049 29.2924 61.162 29.1136 61.3165 28.9174C61.4843 28.7125 61.6621 28.5489 61.8497 28.4266C62.0105 28.3217 62.1422 28.3408 62.2446 28.4839C62.3098 28.575 62.3808 28.7291 62.4576 28.9462C62.5477 29.1545 62.612 29.313 62.6504 29.4216C62.7045 29.6344 62.712 29.7822 62.6729 29.8649C62.6245 29.9346 62.5132 30.0263 62.339 30.1399C62.0173 30.3497 61.6884 30.5355 61.3522 30.6975C60.8057 30.9776 60.2664 31.2816 59.7344 31.6094C59.1931 31.9242 58.6611 32.2521 58.1385 32.5929C57.8436 32.7852 57.6516 33.025 57.5623 33.3122C57.4771 33.5777 57.5463 33.8665 57.7698 34.1788L61.2063 38.9796C61.4298 39.2918 61.6283 39.4868 61.8018 39.5644C61.9888 39.6334 62.2498 39.5586 62.5848 39.3401C62.9467 39.1041 63.3488 38.8419 63.791 38.5535C64.2333 38.2651 64.6683 37.9528 65.096 37.6166C65.5371 37.2717 65.9122 36.903 66.2211 36.5107C66.53 36.1184 66.7254 35.7048 66.8072 35.2698C66.8767 34.9 66.8883 34.4631 66.842 33.959C66.7956 33.4548 66.737 33.016 66.6662 32.6423C66.6214 32.4425 66.6139 32.2947 66.6437 32.199C66.6641 32.0902 66.7615 31.9791 66.9357 31.8654C67.0965 31.7606 67.2317 31.7297 67.3411 31.7728C67.4506 31.8159 67.5566 31.909 67.659 32.0521Z" fill="white"/>
<path d="M79.9648 13.4804C80.0856 13.7594 80.0046 13.9546 79.7219 14.0662C79.6028 14.1132 79.4805 14.1529 79.3551 14.1852C79.2297 14.2175 79.1075 14.2571 78.9884 14.3041C78.9289 14.3276 78.8651 14.3614 78.797 14.4055C78.7226 14.4348 78.6482 14.4642 78.5738 14.4936C78.4249 14.5523 78.3695 14.6859 78.4076 14.8944C78.4393 15.0882 78.5028 15.2952 78.5982 15.5154C78.6872 15.721 78.7508 15.8678 78.789 15.9559L84.7325 29.6758C84.7771 29.7786 84.8003 29.8725 84.8024 29.9577C84.8193 30.037 84.764 30.1104 84.6364 30.1779C84.4407 30.2895 84.2207 30.385 83.9762 30.4643C83.7381 30.5583 83.518 30.6537 83.316 30.7506C83.0316 30.4159 82.7014 30.1164 82.3255 29.8521C81.9645 29.582 81.595 29.3324 81.217 29.1034C78.9955 27.6765 76.7208 26.3479 74.3928 25.1177C72.0797 23.8816 69.8039 22.5707 67.5654 21.1848C68.424 23.1668 69.2752 25.1518 70.1189 27.1397C70.9712 29.107 71.8266 31.0817 72.6853 33.0637C72.7425 33.1958 72.8305 33.3588 72.9493 33.5526C73.0767 33.7258 73.2296 33.7772 73.4082 33.7067C73.6166 33.6245 73.8218 33.5349 74.0238 33.438C74.2406 33.3352 74.4458 33.2456 74.6393 33.1693C74.7584 33.1223 74.8582 33.1517 74.9389 33.2574C75.028 33.3425 75.0885 33.4218 75.1203 33.4952C75.1648 33.598 75.1764 33.7051 75.155 33.8167C75.1486 33.9224 75.0858 33.9988 74.9667 34.0458C74.7137 34.1456 74.4543 34.2308 74.1886 34.3013C73.9229 34.3718 73.6635 34.457 73.4105 34.5568C73.0682 34.6919 72.7216 34.8373 72.3708 34.9929C72.0136 35.1339 71.6702 35.2866 71.3406 35.4511C71.2131 35.5186 71.0823 35.5788 70.9483 35.6317C70.8356 35.6934 70.7198 35.7477 70.6007 35.7947C70.303 35.9122 70.0874 35.8167 69.9539 35.5084C69.903 35.391 69.9063 35.2779 69.9638 35.1693C70.0149 35.0459 70.0926 34.9637 70.1968 34.9226C70.3456 34.8639 70.4933 34.8227 70.64 34.7992C70.7803 34.7611 70.9249 34.7126 71.0737 34.6539C71.297 34.5658 71.4479 34.4718 71.5267 34.3719C71.6139 34.2515 71.6003 34.0592 71.4859 33.7949C70.6082 31.7689 69.7453 29.737 68.8974 27.6991C68.0644 25.6555 67.209 23.6206 66.3313 21.5945C66.2486 21.4037 66.1691 21.2202 66.0928 21.044C66.0165 20.8678 65.937 20.6843 65.8543 20.4934C65.7716 20.3026 65.6517 20.1264 65.4946 19.9649C65.3524 19.7975 65.1622 19.7608 64.9241 19.8548C64.7455 19.9253 64.5627 20.0061 64.3755 20.0971C64.2033 20.1823 64.0204 20.263 63.827 20.3394C63.574 20.4392 63.387 20.3497 63.2662 20.0707C63.1517 19.8065 63.2284 19.6215 63.4963 19.5157C63.8833 19.363 64.2734 19.2177 64.6667 19.0796C65.06 18.9416 65.4427 18.7991 65.8148 18.6523C66.1571 18.5172 66.4994 18.3821 66.8417 18.247C67.1925 18.0914 67.5391 17.946 67.8814 17.8109C69.2683 18.6389 70.6839 19.4125 72.1283 20.1318C73.5813 20.8306 75.0054 21.5837 76.4009 22.3911C77.2207 22.8756 78.0479 23.3571 78.8827 23.8357C79.7174 24.3143 80.5563 24.7826 81.3996 25.2406C80.7254 23.6843 80.0512 22.1281 79.377 20.5719C78.7178 19.0097 78.051 17.4505 77.3768 15.8943C77.3196 15.7622 77.2273 15.6095 77.1 15.4362C76.9812 15.2424 76.825 15.1837 76.6316 15.2601L76.0288 15.498C75.9395 15.5332 75.8566 15.5831 75.78 15.6477C75.6971 15.6977 75.6109 15.7402 75.5216 15.7755C75.2389 15.8871 75.0307 15.7887 74.8971 15.4804C74.8208 15.3042 74.8284 15.1809 74.9198 15.1104C75.0049 15.0253 75.1219 14.9533 75.2707 14.8946C75.5684 14.7771 75.8618 14.6699 76.1509 14.573C76.4549 14.4702 76.7483 14.363 77.0311 14.2514C77.4181 14.0987 77.7987 13.9313 78.1729 13.7492C78.562 13.5613 78.95 13.3909 79.337 13.2382C79.4561 13.1912 79.5793 13.1941 79.7068 13.247C79.8279 13.2852 79.9139 13.363 79.9648 13.4804Z" fill="white"/>
<path d="M100.074 21.2849L93.801 21.9896L93.5748 20.1555L99.8474 19.4508L100.074 21.2849Z" fill="white"/>
<path d="M124.618 25.3312C124.483 26.2493 124.164 26.9894 123.66 27.5514C123.159 28.0975 122.542 28.499 121.809 28.7557C121.092 29.0145 120.326 29.162 119.512 29.198C118.699 29.2341 117.911 29.201 117.15 29.0988C116.563 29.0201 116.013 28.8575 115.499 28.611C114.984 28.3803 114.463 28.1249 113.939 27.8446C113.683 27.7134 113.422 27.6218 113.154 27.5698C112.905 27.5041 112.638 27.4521 112.353 27.4138C112.361 27.0275 112.368 26.6491 112.374 26.2787C112.383 25.8924 112.383 25.505 112.376 25.1166C112.384 24.8433 112.382 24.5768 112.372 24.3171C112.362 24.0575 112.375 23.801 112.413 23.5477C112.445 23.3261 112.512 23.1494 112.612 23.0176C112.728 22.8879 112.905 22.839 113.143 22.871C113.365 22.9008 113.525 22.9706 113.622 23.0805C113.737 23.1766 113.811 23.3319 113.844 23.5462C113.913 23.846 113.957 24.1505 113.976 24.4598C114.011 24.7712 114.062 25.0847 114.129 25.4004C114.289 26.1805 114.638 26.8327 115.175 27.3567C115.728 27.883 116.417 28.2014 117.241 28.3121C118.352 28.4611 119.247 28.2584 119.927 27.704C120.625 27.1359 121.054 26.3057 121.215 25.2135C121.309 24.5803 121.251 24.0399 121.042 23.5921C120.835 23.1286 120.54 22.7177 120.156 22.3594C119.772 22.0012 119.354 21.6546 118.902 21.3195C118.48 21.0045 118.047 20.7043 117.604 20.4188C117.161 20.1334 116.727 19.841 116.302 19.5419C115.834 19.2047 115.384 18.8052 114.95 18.3435C114.535 17.8681 114.208 17.3479 113.967 16.783C113.745 16.2044 113.68 15.6064 113.771 14.989C113.925 13.9443 114.321 13.1178 114.961 12.5095C115.616 11.9034 116.396 11.4916 117.302 11.2741C118.223 11.0587 119.151 11.0138 120.087 11.1394C120.689 11.2203 121.255 11.3851 121.785 11.6337C122.332 11.8686 122.859 12.133 123.366 12.427C123.531 12.5137 123.683 12.5825 123.821 12.6333C123.975 12.6863 124.139 12.7244 124.313 12.7479C124.44 12.7649 124.559 12.7808 124.67 12.7957C124.783 12.7948 124.897 12.7939 125.01 12.793C124.983 13.3059 124.964 13.8199 124.953 14.3349C124.941 14.8499 124.93 15.365 124.919 15.88C124.923 15.9613 124.918 16.0494 124.904 16.1444C124.909 16.2257 124.905 16.3059 124.893 16.385C124.86 16.6067 124.783 16.806 124.659 16.9832C124.539 17.1446 124.343 17.2072 124.074 17.171C123.868 17.1433 123.724 17.0756 123.643 16.9679C123.562 16.8601 123.494 16.7139 123.441 16.5291C123.323 16.0128 123.211 15.5056 123.107 15.0073C123.003 14.509 122.814 14.0317 122.542 13.5755C122.258 13.0854 121.87 12.7024 121.377 12.4264C120.886 12.1345 120.363 11.9514 119.808 11.8769C119.269 11.8045 118.795 11.8942 118.386 12.146C117.979 12.382 117.655 12.7178 117.413 13.1534C117.171 13.5891 117.014 14.0522 116.941 14.5429C116.829 15.3027 116.94 15.9229 117.274 16.4035C117.625 16.8704 118.077 17.3184 118.628 17.7476C118.935 17.9664 119.243 18.1852 119.55 18.404C119.876 18.6091 120.193 18.8132 120.503 19.0162C121.242 19.4867 121.946 20.0331 122.614 20.6555C123.301 21.2642 123.838 21.9577 124.224 22.736C124.629 23.5006 124.76 24.3657 124.618 25.3312Z" fill="white"/>
<path d="M146.96 19.2022C146.921 19.3073 146.845 19.3997 146.73 19.4793C146.636 19.5491 146.529 19.5636 146.407 19.5228C146.21 19.4567 146.013 19.3905 145.816 19.3244C145.624 19.2432 145.429 19.1695 145.232 19.1034C145.035 19.0372 144.878 19.0941 144.76 19.274C144.649 19.4389 144.565 19.5965 144.51 19.7466C144.482 19.8217 144.452 19.9042 144.418 19.9943C144.406 20.0745 144.386 20.1521 144.358 20.2272C143.855 21.5935 143.355 22.9523 142.857 24.3036C142.375 25.66 141.885 27.0138 141.387 28.3651C140.657 30.347 139.586 31.7506 138.175 32.5759C136.769 33.3862 135.026 33.4427 132.948 32.7455C130.9 32.0585 129.487 31.0362 128.709 29.6786C127.931 28.321 127.929 26.5912 128.703 24.4892L129.076 23.4757C129.551 22.1845 130.027 20.8932 130.502 19.602C130.999 18.3009 131.487 16.9972 131.968 15.6909C132.018 15.5558 132.069 15.3705 132.122 15.1351C132.18 14.8847 132.121 14.7215 131.944 14.6454C131.752 14.5642 131.548 14.4955 131.33 14.4393C131.127 14.3881 130.927 14.3295 130.73 14.2633C130.624 14.2277 130.539 14.1571 130.476 14.0515C130.418 13.9309 130.408 13.818 130.447 13.7129C130.491 13.5928 130.568 13.5004 130.677 13.4358C130.801 13.3762 130.924 13.3668 131.045 13.4075C131.227 13.4686 131.399 13.5346 131.56 13.6056C131.737 13.6817 131.906 13.7552 132.067 13.8262C132.41 13.9583 132.754 14.0903 133.097 14.2224C133.446 14.3395 133.787 14.454 134.121 14.5659C134.47 14.683 134.803 14.7949 135.122 14.9018C135.456 15.0138 135.792 15.1182 136.131 15.2152C136.349 15.2714 136.56 15.3251 136.762 15.3762C136.986 15.4174 137.196 15.4711 137.393 15.5373C137.515 15.578 137.589 15.6536 137.617 15.764C137.659 15.8795 137.659 15.9974 137.614 16.1175C137.576 16.2226 137.502 16.3074 137.393 16.3721C137.304 16.4268 137.2 16.4338 137.078 16.3931C136.881 16.3269 136.687 16.2533 136.495 16.1721C136.318 16.096 136.132 16.0249 135.934 15.9587C135.783 15.9078 135.659 15.9423 135.564 16.0622C135.474 16.167 135.4 16.277 135.34 16.392C135.237 16.6271 135.141 16.8648 135.052 17.1051C134.979 17.3504 134.898 17.5932 134.809 17.8334C134.312 19.1847 133.799 20.5309 133.271 21.872C132.764 23.2032 132.261 24.5444 131.764 25.8957C131.526 26.5413 131.322 27.1645 131.152 27.7654C131.003 28.3563 130.951 28.9126 130.998 29.4342C131.044 29.9559 131.248 30.4207 131.609 30.8286C131.985 31.2416 132.583 31.5855 133.402 31.8603C134.494 32.2267 135.458 32.2716 136.292 31.995C137.133 31.7033 137.846 31.2005 138.433 30.4864C139.025 29.7573 139.498 28.9123 139.852 27.9513C140.4 26.4649 140.917 24.9683 141.403 23.4616C141.89 21.9548 142.407 20.4582 142.954 18.9718C143.037 18.7466 143.04 18.5786 142.961 18.4679C142.888 18.3422 142.745 18.2437 142.533 18.1725C142.381 18.1216 142.227 18.0782 142.07 18.0423C141.927 18.0115 141.773 17.9681 141.606 17.9122C141.5 17.8765 141.415 17.8059 141.352 17.7003C141.288 17.5947 141.279 17.4819 141.323 17.3617C141.367 17.2416 141.444 17.1493 141.553 17.0846C141.677 17.0251 141.8 17.0156 141.921 17.0564C142.164 17.1378 142.394 17.2317 142.61 17.338C142.832 17.4294 143.062 17.5233 143.299 17.6197C143.445 17.6856 143.594 17.744 143.746 17.7949C143.897 17.8458 144.049 17.8967 144.201 17.9476C144.368 18.0036 144.534 18.0595 144.701 18.1155C144.883 18.1766 145.061 18.2276 145.233 18.2686C145.476 18.35 145.716 18.4139 145.955 18.4602C146.209 18.5116 146.457 18.578 146.7 18.6594C146.973 18.751 147.059 18.9319 146.96 19.2022Z" fill="white"/>
<path d="M165.023 29.7568C164.857 30.0118 164.644 30.062 164.382 29.9074C164.272 29.8423 164.166 29.7704 164.064 29.6919C163.963 29.6134 163.857 29.5415 163.747 29.4764C163.692 29.4439 163.625 29.4139 163.548 29.3867C163.479 29.346 163.41 29.3053 163.341 29.2646C163.204 29.1832 163.057 29.2175 162.903 29.3676C162.757 29.5043 162.619 29.6733 162.488 29.8747C162.366 30.0626 162.279 30.1968 162.227 30.2774L154.091 42.8219C154.03 42.9159 153.964 42.9883 153.893 43.0391C153.836 43.0981 153.741 43.0977 153.608 43.0378C153.398 42.9507 153.187 42.8353 152.975 42.6917C152.755 42.5615 152.544 42.4461 152.342 42.3456C152.458 41.9314 152.517 41.5022 152.52 41.058C152.536 40.6218 152.53 40.191 152.501 39.7654C152.4 37.2178 152.184 34.6859 151.854 32.1695C151.537 29.6613 151.306 27.1387 151.16 24.6017C149.985 26.4139 148.803 28.222 147.614 30.0261C146.447 31.8249 145.276 33.6304 144.101 35.4426C144.022 35.5634 143.936 35.7259 143.842 35.9301C143.77 36.1291 143.816 36.2774 143.982 36.375C144.175 36.489 144.372 36.5962 144.573 36.6968C144.789 36.8054 144.986 36.9127 145.165 37.0185C145.275 37.0836 145.309 37.178 145.267 37.3017C145.247 37.42 145.216 37.5128 145.172 37.5799C145.111 37.6739 145.027 37.7449 144.92 37.7928C144.826 37.849 144.724 37.8445 144.614 37.7794C144.38 37.641 144.155 37.4892 143.938 37.324C143.721 37.1588 143.496 37.007 143.261 36.8686C142.945 36.6814 142.617 36.4968 142.277 36.3149C141.947 36.1196 141.614 35.9417 141.28 35.7813C141.147 35.7215 141.019 35.655 140.895 35.5817C140.776 35.53 140.662 35.4716 140.551 35.4065C140.276 35.2437 140.23 35.0214 140.412 34.7395C140.482 34.6321 140.58 34.5693 140.706 34.551C140.841 34.5193 140.957 34.5319 141.053 34.5889C141.191 34.6703 141.313 34.761 141.42 34.8611C141.535 34.9478 141.661 35.0318 141.799 35.1132C142.006 35.2353 142.175 35.298 142.306 35.3013C142.46 35.2993 142.615 35.1775 142.772 34.9358C143.973 33.0834 145.188 31.239 146.417 29.4028C147.66 27.5747 148.882 25.7345 150.084 23.882C150.197 23.7075 150.306 23.5397 150.41 23.3786C150.515 23.2175 150.624 23.0497 150.737 22.8752C150.85 22.7007 150.929 22.5058 150.973 22.2906C151.031 22.0836 150.95 21.9149 150.73 21.7847C150.564 21.687 150.388 21.592 150.2 21.4996C150.026 21.4153 149.849 21.3203 149.67 21.2145C149.436 21.0761 149.402 20.8794 149.567 20.6244C149.724 20.3827 149.926 20.3352 150.174 20.4817C150.532 20.6933 150.886 20.9117 151.236 21.1367C151.585 21.3618 151.932 21.576 152.276 21.7795C152.593 21.9667 152.91 22.1539 153.227 22.3411C153.566 22.523 153.894 22.7076 154.211 22.8948C154.327 24.4489 154.506 25.9939 154.749 27.5298C155.014 29.0603 155.216 30.6 155.354 32.1489C155.427 33.0647 155.507 33.9845 155.594 34.9085C155.68 35.8324 155.778 36.7537 155.887 37.6723C156.81 36.2494 157.733 34.8265 158.656 33.4036C159.593 31.9888 160.523 30.57 161.445 29.147C161.524 29.0262 161.599 28.8663 161.671 28.6674C161.765 28.4632 161.723 28.3082 161.544 28.2024L160.986 27.8727C160.903 27.8239 160.812 27.7885 160.712 27.7665C160.62 27.7311 160.533 27.689 160.451 27.6401C160.189 27.4855 160.149 27.2672 160.332 26.9853C160.437 26.8242 160.546 26.7587 160.66 26.7889C160.782 26.8056 160.912 26.8546 161.05 26.936C161.326 27.0988 161.59 27.2642 161.843 27.4323C162.11 27.6085 162.374 27.7739 162.636 27.9286C162.994 28.1402 163.361 28.3384 163.736 28.5232C164.126 28.7161 164.499 28.9184 164.858 29.13C164.968 29.1951 165.038 29.2924 165.069 29.4217C165.108 29.5377 165.092 29.6494 165.023 29.7568Z" fill="white"/>
<path d="M171.569 47.2359C172.222 46.5995 172.799 45.8921 173.301 45.1136C173.814 44.346 174.176 43.5469 174.387 42.7161C174.599 41.8853 174.596 41.0623 174.379 40.247C174.174 39.4205 173.68 38.6412 172.897 37.909C172.102 37.1659 171.302 36.4504 170.496 35.7627L159.976 46.0124C159.678 46.3027 159.513 46.553 159.48 46.7632C159.448 46.9734 159.595 47.2316 159.922 47.5375C160.319 47.9091 160.751 48.2803 161.218 48.6511C161.697 49.0329 162.198 49.3592 162.721 49.6301C163.268 49.9006 163.82 50.0662 164.376 50.1268C165.743 50.2454 167.049 50.0221 168.293 49.457C169.537 48.8918 170.629 48.1515 171.569 47.2359ZM174.351 49.3783C173.618 50.0929 172.785 50.6925 171.852 51.1771C170.92 51.6617 169.934 51.9977 168.894 52.1852C167.877 52.3723 166.847 52.3718 165.803 52.1837C165.131 52.058 164.434 51.8221 163.713 51.4759C163.003 51.1186 162.327 50.7057 161.686 50.2372C161.056 49.7797 160.496 49.3214 160.005 48.8624C159.596 48.4799 159.204 48.0807 158.83 47.6647C158.455 47.2708 158.063 46.8827 157.654 46.5002C157.362 46.227 157.064 45.9483 156.76 45.6642C156.457 45.4021 156.142 45.1402 155.815 44.8784C155.686 44.7803 155.57 44.6821 155.465 44.5837C155.348 44.4965 155.237 44.4038 155.132 44.3054C154.921 44.1087 154.908 43.921 155.091 43.7424C155.206 43.6307 155.333 43.6073 155.473 43.6722C155.612 43.737 155.752 43.824 155.892 43.933C156.043 44.0309 156.166 44.1015 156.259 44.1447C156.549 44.2412 156.821 44.2218 157.074 44.0866C157.327 43.9515 157.546 43.7946 157.729 43.6159C158.772 42.5999 159.809 41.5894 160.84 40.5846C161.872 39.5797 162.903 38.5748 163.935 37.5699C164.531 36.9893 165.121 36.4143 165.705 35.8449C166.313 35.2752 166.891 34.6893 167.441 34.0871C167.464 34.0647 167.504 34.0146 167.561 33.9367C167.641 33.8585 167.687 33.8139 167.698 33.8027C167.801 33.636 167.799 33.4592 167.693 33.2725C167.587 33.0858 167.44 32.916 167.254 32.7633C167.078 32.5993 166.932 32.4627 166.815 32.3534C166.722 32.266 166.651 32.1673 166.604 32.0573C166.568 31.9362 166.607 31.8198 166.722 31.7081C166.94 31.496 167.16 31.4937 167.382 31.7013C167.674 31.9745 167.949 32.2535 168.206 32.5381C168.487 32.8224 168.773 33.1012 169.066 33.3744C169.895 34.1503 170.754 34.8983 171.641 35.6184C172.551 36.3382 173.421 37.0861 174.251 37.862C175.513 39.0422 176.359 40.293 176.789 41.6143C177.219 42.9357 177.227 44.2558 176.812 45.5747C176.409 46.9046 175.589 48.1725 174.351 49.3783Z" fill="white"/>
<path d="M195.317 69.275C195.045 69.4091 194.836 69.3424 194.692 69.0749C194.631 68.9622 194.577 68.8461 194.531 68.7264C194.484 68.6067 194.431 68.4905 194.37 68.3778C194.339 68.3215 194.298 68.2617 194.246 68.1984C194.208 68.128 194.17 68.0576 194.132 67.9872C194.056 67.8463 193.913 67.8007 193.704 67.8503C193.508 67.8927 193.303 67.9669 193.088 68.0728C192.887 68.1716 192.743 68.2422 192.657 68.2846L179.239 74.882C179.139 74.9314 179.045 74.9597 178.958 74.9668C178.879 74.988 178.798 74.9388 178.715 74.8191C178.58 74.6361 178.459 74.4285 178.351 74.1961C178.23 73.9708 178.109 73.7631 177.988 73.5731C178.3 73.2769 178.572 72.9385 178.803 72.5578C179.041 72.1913 179.257 71.8177 179.451 71.4371C180.676 69.1957 181.795 66.9086 182.807 64.5759C183.826 62.2573 184.927 59.9702 186.108 57.7148C184.169 58.6678 182.227 59.6139 180.281 60.5529C178.357 61.4989 176.426 62.4484 174.488 63.4015C174.358 63.465 174.201 63.5603 174.015 63.6873C173.851 63.8213 173.815 63.9728 173.906 64.1418C174.012 64.3389 174.126 64.5325 174.247 64.7225C174.375 64.9267 174.489 65.1203 174.588 65.3033C174.648 65.416 174.629 65.5146 174.529 65.5992C174.451 65.6909 174.377 65.7544 174.305 65.7897C174.204 65.8391 174.096 65.8568 173.979 65.8429C173.87 65.843 173.786 65.7867 173.725 65.6741C173.596 65.4347 173.481 65.1883 173.38 64.9348C173.28 64.6813 173.165 64.4349 173.036 64.1955C172.861 63.8717 172.675 63.5443 172.479 63.2135C172.296 62.8755 172.103 62.5517 171.9 62.242C171.817 62.1223 171.741 61.9991 171.673 61.8724C171.598 61.7668 171.53 61.6577 171.469 61.5451C171.317 61.2635 171.392 61.0485 171.693 60.9003C171.808 60.8438 171.924 60.8402 172.042 60.8893C172.174 60.9315 172.266 61.0018 172.319 61.1004C172.395 61.2412 172.453 61.382 172.493 61.5228C172.547 61.6566 172.612 61.7939 172.688 61.9347C172.802 62.1459 172.914 62.2867 173.025 62.357C173.157 62.4343 173.353 62.4095 173.611 62.2824C175.593 61.3081 177.582 60.348 179.578 59.4019C181.583 58.4699 183.575 57.5168 185.557 56.5425C185.743 56.4507 185.923 56.3625 186.095 56.2778C186.268 56.1931 186.447 56.1048 186.634 56.013C186.82 55.9213 186.988 55.7943 187.137 55.6321C187.293 55.484 187.31 55.2973 187.189 55.072C187.097 54.9031 186.995 54.7306 186.882 54.5546C186.777 54.3927 186.674 54.2202 186.576 54.0372C186.446 53.7978 186.518 53.6111 186.791 53.4769C187.05 53.3499 187.247 53.413 187.384 53.6665C187.582 54.0326 187.772 54.4022 187.955 54.7753C188.138 55.1485 188.325 55.5111 188.515 55.8631C188.69 56.1869 188.864 56.5108 189.039 56.8346C189.236 57.1655 189.422 57.4928 189.597 57.8167C188.896 59.2122 188.255 60.6323 187.672 62.077C187.111 63.5287 186.491 64.9558 185.813 66.3584C185.404 67.183 184.999 68.0146 184.598 68.8533C184.196 69.692 183.806 70.5342 183.427 71.38C184.949 70.6316 186.471 69.8833 187.993 69.135C189.522 68.4007 191.048 67.6594 192.57 66.9111C192.699 66.8475 192.846 66.7488 193.01 66.6147C193.195 66.4877 193.239 66.3327 193.14 66.1497L192.832 65.5794C192.787 65.4949 192.727 65.4175 192.652 65.3472C192.592 65.2697 192.54 65.1888 192.494 65.1043C192.35 64.8368 192.428 64.6289 192.73 64.4806C192.902 64.3959 193.029 64.3958 193.111 64.4802C193.207 64.5576 193.294 64.6667 193.37 64.8075C193.522 65.0891 193.663 65.3672 193.793 65.6418C193.93 65.9305 194.071 66.2085 194.216 66.4761C194.413 66.8422 194.625 67.2012 194.851 67.5532C195.085 67.9192 195.301 68.2853 195.499 68.6514C195.559 68.764 195.569 68.8837 195.529 69.0106C195.503 69.1304 195.432 69.2185 195.317 69.275Z" fill="white"/>
<path d="M187.041 88.9648C186.794 89.0298 186.529 89.0661 186.249 89.0737C185.988 89.0925 185.721 89.1211 185.449 89.1594C185.146 89.2059 184.834 89.2466 184.511 89.2818C184.192 89.3323 183.874 89.3828 183.556 89.4333C183.295 89.4521 183.105 89.4276 182.985 89.3598C182.881 89.2878 182.792 89.1212 182.716 88.8598C182.264 87.2916 181.82 85.7214 181.384 84.1491C180.963 82.5728 180.527 81.0005 180.075 79.4323C179.92 78.8942 179.742 78.3622 179.54 77.8363C179.323 77.3144 179.137 76.7844 178.982 76.2463C178.907 75.9849 179.001 75.8197 179.264 75.7507C179.527 75.6816 179.692 75.7624 179.758 75.993C179.84 76.2196 179.934 76.4595 180.04 76.7127C180.16 77.0121 180.347 77.2276 180.601 77.3593C180.875 77.5023 181.338 77.4885 181.987 77.3178L194.5 74.0335C194.747 73.9685 194.974 73.8594 195.179 73.7062C195.389 73.5684 195.45 73.3458 195.361 73.0383C195.308 72.8538 195.247 72.6713 195.179 72.4909C195.126 72.3064 195.072 72.1219 195.019 71.9374C194.909 71.553 195.039 71.3121 195.41 71.2146C195.596 71.1659 195.73 71.1969 195.812 71.3077C195.909 71.4145 195.98 71.5447 196.024 71.6985C196.153 72.1443 196.263 72.5866 196.356 73.0252C196.465 73.4597 196.581 73.8922 196.705 74.3227C197.122 75.7679 197.546 77.2111 197.978 78.6523C198.425 80.0893 198.857 81.5305 199.273 82.9757C199.353 83.2524 199.441 83.5271 199.536 83.7998C199.646 84.0684 199.757 84.3371 199.868 84.6057C199.629 84.7014 199.39 84.7972 199.152 84.8929C198.917 85.004 198.681 85.1075 198.442 85.2032C198.161 85.3265 197.869 85.4693 197.567 85.6314C197.268 85.809 196.964 85.9384 196.655 86.0196C196.469 86.0684 196.292 86.0321 196.124 85.9109C195.971 85.7856 195.871 85.6384 195.822 85.4692C195.716 85.1003 195.807 84.8116 196.097 84.6033C196.758 84.1818 197.262 83.6774 197.608 83.0902C197.975 82.5144 198.041 81.819 197.806 81.0042L196.61 76.853L189.786 78.6445C189.954 79.2287 190.126 79.7956 190.301 80.345C190.48 80.9098 190.675 81.4705 190.885 82.0272C191.095 82.5839 191.346 83.1053 191.635 83.5915C191.744 83.7945 191.87 84.0012 192.014 84.2115C192.162 84.4372 192.267 84.6577 192.329 84.8729C192.382 85.0574 192.324 85.172 192.154 85.2167C192.045 85.2451 191.874 85.257 191.64 85.2524C191.41 85.2631 191.236 85.2673 191.119 85.265C190.896 85.241 190.75 85.1966 190.681 85.1319C190.628 85.0632 190.573 84.9288 190.515 84.729C190.409 84.36 190.328 83.9926 190.272 83.6268C190.166 83.0263 190.034 82.4242 189.877 81.8206C189.735 81.2128 189.578 80.6092 189.405 80.0096C189.307 79.6713 189.133 79.4113 188.88 79.2294C188.648 79.0588 188.346 79.0223 187.975 79.1198L182.264 80.6188C181.893 80.7163 181.643 80.8315 181.515 80.9643C181.391 81.1126 181.385 81.3789 181.496 81.7632C181.615 82.1783 181.748 82.6396 181.894 83.1469C182.04 83.6543 182.212 84.1633 182.409 84.6738C182.61 85.1997 182.855 85.673 183.143 86.0936C183.43 86.5142 183.773 86.8377 184.171 87.0639C184.51 87.2562 184.931 87.4185 185.435 87.5507C185.939 87.683 186.384 87.7813 186.769 87.8457C186.977 87.8738 187.122 87.9182 187.207 87.9788C187.306 88.0354 187.385 88.1636 187.442 88.3634C187.495 88.5479 187.484 88.6831 187.409 88.769C187.334 88.8549 187.211 88.9201 187.041 88.9648Z" fill="white"/>
<path d="M196.686 99.4631C197.867 99.3839 198.758 99.0597 199.358 98.4903C199.959 97.9369 200.214 97.0459 200.124 95.8172L200.092 95.3864C200.083 95.2587 200.073 95.1231 200.062 94.9795C200.052 94.8358 200.026 94.7013 199.984 94.5758C199.925 94.4194 199.845 94.3205 199.746 94.279C199.647 94.2376 199.509 94.2227 199.334 94.2345C198.408 94.2966 197.481 94.3506 196.554 94.3967C195.644 94.4577 194.718 94.5197 193.776 94.5828L192.795 94.6486C192.787 94.7614 192.779 94.8741 192.771 94.9869C192.779 95.0986 192.788 95.2103 192.796 95.322C192.857 96.1518 193.007 96.8873 193.247 97.5287C193.504 98.185 193.902 98.6875 194.441 99.0363C194.996 99.3839 195.744 99.5262 196.686 99.4631ZM184.298 106.403C184.154 106.412 184.033 106.284 183.933 106.018C183.85 105.767 183.787 105.459 183.744 105.093C183.687 104.744 183.646 104.41 183.623 104.091C183.583 103.773 183.559 103.558 183.551 103.446C183.507 102.84 183.53 102.285 183.621 101.782C183.714 101.294 184.043 100.863 184.609 100.489C185.832 99.6692 187.072 98.8645 188.33 98.0747C189.603 97.2838 190.869 96.4934 192.126 95.7036L192.076 94.6967C190.815 94.7812 189.546 94.8663 188.269 94.9519C187.009 95.0523 185.74 95.1453 184.463 95.2309C184.319 95.2405 184.179 95.2901 184.041 95.3795C183.919 95.4678 183.864 95.5918 183.876 95.7513C183.89 95.9428 183.912 96.1338 183.942 96.3242C183.972 96.5146 183.994 96.7055 184.008 96.897C184.014 96.9768 183.963 97.0524 183.856 97.1237C183.766 97.2099 183.681 97.2557 183.602 97.261C183.49 97.2685 183.392 97.243 183.307 97.1845C183.224 97.142 183.178 97.0649 183.17 96.9532C183.159 96.8096 183.157 96.6734 183.164 96.5447C183.17 96.416 183.169 96.2878 183.16 96.1601C183.17 95.8707 183.165 95.5824 183.144 95.2952C183.123 95.008 183.102 94.7208 183.081 94.4336C183.03 93.7474 182.963 93.0543 182.88 92.3544C182.797 91.6704 182.73 90.9773 182.679 90.2752C182.659 90.004 182.792 89.8587 183.08 89.8394C183.192 89.8319 183.283 89.8739 183.354 89.9654C183.441 90.0558 183.488 90.1568 183.496 90.2685C183.508 90.4281 183.512 90.5882 183.508 90.7488C183.503 90.9095 183.507 91.0696 183.519 91.2292C183.535 91.4526 183.589 91.6414 183.681 91.7956C183.772 91.9498 183.946 92.0184 184.201 92.0012L199 91.0097C199.24 90.9936 199.396 90.935 199.469 90.834C199.557 90.7318 199.593 90.569 199.577 90.3456C199.565 90.1861 199.546 90.027 199.518 89.8685C199.49 89.71 199.47 89.551 199.459 89.3914C199.45 89.2797 199.482 89.1574 199.552 89.0244C199.624 88.9073 199.723 88.8445 199.851 88.836C200.154 88.8156 200.319 88.981 200.345 89.3321C200.356 89.4916 200.36 89.6517 200.356 89.8124C200.368 89.9719 200.371 90.132 200.367 90.2927C200.375 90.6129 200.383 90.9411 200.392 91.2772C200.416 91.6123 200.44 91.9394 200.464 92.2586C200.52 93.0245 200.6 93.7809 200.703 94.5276C200.823 95.2893 200.911 96.0451 200.966 96.7951C201.014 97.4493 200.999 98.1238 200.922 98.8185C200.861 99.5121 200.7 100.164 200.44 100.775C200.182 101.402 199.802 101.916 199.302 102.319C198.819 102.72 198.178 102.947 197.379 103.001C196.406 103.066 195.609 102.919 194.989 102.559C194.37 102.216 193.876 101.712 193.506 101.047C193.137 100.398 192.833 99.6491 192.594 98.7992C191.369 99.5869 190.171 100.429 189.002 101.325C187.833 102.221 186.68 103.124 185.544 104.034C185.257 104.278 185.006 104.583 184.793 104.95C184.595 105.316 184.51 105.683 184.537 106.05C184.545 106.162 184.535 106.243 184.506 106.293C184.495 106.357 184.426 106.394 184.298 106.403Z" fill="white"/>
<path d="M188.245 122.913C188.118 122.896 188.003 122.848 187.902 122.771C187.797 122.708 187.757 122.598 187.78 122.44L187.955 121.228L183.029 120.579C182.919 120 182.784 119.425 182.624 118.856C182.48 118.288 182.32 117.718 182.144 117.146C181.968 116.574 181.894 115.968 181.922 115.326C181.948 114.7 182.005 114.086 182.092 113.484C182.167 112.962 182.304 112.407 182.502 111.82C182.7 111.233 182.944 110.668 183.233 110.125C183.537 109.584 183.871 109.12 184.234 108.732C185.242 107.687 186.436 106.981 187.814 106.614C189.191 106.263 190.569 106.178 191.949 106.36C193.202 106.525 194.348 106.87 195.388 107.394C196.425 107.934 197.303 108.623 198.023 109.46C198.74 110.313 199.254 111.285 199.565 112.374C199.89 113.482 199.959 114.685 199.771 115.984C199.622 117.013 199.317 118.006 198.855 118.962C198.787 119.098 198.676 119.301 198.524 119.572C198.37 119.858 198.216 120.136 198.064 120.406C197.925 120.695 197.849 120.886 197.835 120.981C197.801 121.219 197.864 121.397 198.025 121.515C198.186 121.633 198.347 121.743 198.511 121.845C198.671 121.963 198.739 122.109 198.714 122.283C198.7 122.378 198.664 122.462 198.605 122.535C198.543 122.624 198.457 122.661 198.346 122.646C197.616 122.55 196.893 122.463 196.177 122.385C195.459 122.322 194.735 122.243 194.005 122.147C193.783 122.118 193.612 122.014 193.492 121.837C193.37 121.676 193.325 121.484 193.357 121.263C193.396 120.993 193.479 120.811 193.606 120.715C193.747 120.636 193.942 120.573 194.191 120.525C195.47 120.291 196.543 119.803 197.41 119.062C198.275 118.336 198.803 117.309 198.996 115.979C199.087 115.345 199.02 114.747 198.794 114.185C198.568 113.623 198.238 113.111 197.804 112.651C197.383 112.208 196.906 111.814 196.374 111.47C195.842 111.125 195.317 110.846 194.798 110.633C194.279 110.419 193.739 110.243 193.177 110.104C192.615 109.966 192.049 109.859 191.478 109.784C190.923 109.71 190.363 109.669 189.798 109.659C189.234 109.649 188.671 109.688 188.108 109.775C187.349 109.885 186.606 110.102 185.881 110.426C185.155 110.749 184.533 111.192 184.015 111.753C183.495 112.33 183.176 113.03 183.057 113.854C183.013 114.155 183.004 114.5 183.028 114.891C183.05 115.297 183.115 115.685 183.223 116.054C183.329 116.439 183.492 116.767 183.711 117.038C183.947 117.311 184.255 117.473 184.636 117.523L187.776 117.937C187.903 117.954 188.036 117.931 188.174 117.869C188.31 117.822 188.389 117.727 188.409 117.585C188.441 117.363 188.459 117.131 188.461 116.89C188.478 116.666 188.502 116.443 188.534 116.222C188.552 116.095 188.64 115.993 188.796 115.917C188.966 115.859 189.107 115.837 189.218 115.852C189.329 115.866 189.417 115.926 189.483 116.032C189.548 116.137 189.573 116.246 189.557 116.356C189.525 116.578 189.485 116.799 189.437 117.018C189.403 117.256 189.369 117.485 189.337 117.707C189.259 118.246 189.183 118.776 189.107 119.299C189.045 119.839 188.983 120.38 188.921 120.92C188.896 121.207 188.87 121.494 188.845 121.781C188.835 122.071 188.81 122.358 188.769 122.643C188.75 122.769 188.682 122.849 188.564 122.882C188.462 122.917 188.356 122.927 188.245 122.913Z" fill="white"/>
<path d="M183.711 132.451C185.11 132.469 186.508 132.469 187.903 132.452C189.293 132.45 190.682 132.473 192.069 132.521C190.993 131.667 189.928 130.809 188.873 129.945C187.812 129.097 186.746 128.238 185.676 127.37L183.711 132.451ZM195.825 136.311C196.217 136.449 196.586 136.426 196.931 136.243C197.286 136.079 197.535 135.811 197.68 135.438C197.818 135.08 197.814 134.714 197.667 134.34C197.529 133.986 197.264 133.74 196.872 133.602C196.495 133.469 196.141 133.497 195.811 133.686C195.475 133.89 195.238 134.171 195.099 134.529C194.961 134.887 194.953 135.241 195.075 135.589C195.198 135.937 195.447 136.178 195.825 136.311ZM174.61 136.9C174.383 136.821 174.325 136.639 174.434 136.355C174.469 136.266 174.504 136.176 174.538 136.087C174.573 135.997 174.618 135.903 174.673 135.804C174.848 135.441 175.013 135.059 175.169 134.656C175.319 134.268 175.469 133.88 175.619 133.492C175.809 132.999 176 132.507 176.19 132.014C176.381 131.522 176.559 131.017 176.725 130.499C176.733 130.434 176.748 130.371 176.771 130.312C176.794 130.252 176.817 130.192 176.841 130.132C176.921 129.923 177.067 129.856 177.279 129.931C177.46 129.994 177.542 130.091 177.526 130.221C177.52 130.372 177.477 130.526 177.398 130.685C177.32 130.844 177.26 130.976 177.22 131.08C177.116 131.349 177.094 131.561 177.153 131.718C177.222 131.895 177.4 132.034 177.687 132.135C177.853 132.193 178.163 132.234 178.616 132.258C179.079 132.303 179.591 132.331 180.153 132.342C180.709 132.368 181.227 132.381 181.707 132.381C182.196 132.4 182.543 132.412 182.747 132.417L184.928 126.776C184.849 126.714 184.675 126.567 184.404 126.336C184.127 126.12 183.807 125.863 183.442 125.565C183.071 125.282 182.708 125.001 182.353 124.724C181.997 124.446 181.686 124.209 181.418 124.013C181.166 123.823 181.01 123.717 180.95 123.695C180.663 123.594 180.438 123.6 180.275 123.712C180.111 123.824 179.979 123.989 179.877 124.208C179.791 124.432 179.707 124.648 179.626 124.857C179.597 124.932 179.521 124.973 179.398 124.98C179.291 124.993 179.199 124.986 179.124 124.96C179.033 124.928 178.979 124.867 178.963 124.776C178.941 124.7 178.944 124.625 178.973 124.551C179.163 124.058 179.369 123.571 179.59 123.089C179.789 122.617 179.981 122.142 180.166 121.664C180.258 121.426 180.343 121.184 180.42 120.94C180.498 120.696 180.585 120.447 180.683 120.193C180.712 120.119 180.771 120.055 180.861 120.002C180.95 119.948 181.032 119.935 181.108 119.961C181.274 120.02 181.356 120.117 181.355 120.252C181.354 120.387 181.317 120.527 181.245 120.671C181.181 120.835 181.129 120.969 181.089 121.074C181.014 121.268 181.029 121.451 181.133 121.624C181.248 121.816 181.369 121.969 181.496 122.082C183.35 123.718 185.223 125.328 187.114 126.91C189.021 128.497 190.95 130.05 192.901 131.568C193.044 131.686 193.249 131.843 193.516 132.039C193.783 132.234 193.992 132.359 194.143 132.412C194.234 132.444 194.318 132.448 194.395 132.425C194.482 132.421 194.556 132.43 194.616 132.452C194.692 132.478 194.712 132.536 194.678 132.626C194.644 132.801 194.596 132.97 194.532 133.134C194.469 133.298 194.413 133.465 194.365 133.635C194.279 133.944 194.194 134.253 194.109 134.562C194.039 134.876 193.964 135.181 193.885 135.475L176.493 135.555C176.085 135.546 175.79 135.621 175.61 135.777C175.438 135.955 175.286 136.215 175.154 136.558C175.102 136.692 175.036 136.796 174.956 136.87C174.891 136.949 174.776 136.959 174.61 136.9ZM195.574 136.96C195.015 136.763 194.641 136.402 194.449 135.877C194.273 135.357 194.286 134.836 194.488 134.314C194.696 133.777 195.043 133.365 195.531 133.079C196.028 132.813 196.556 132.779 197.114 132.975C197.673 133.172 198.058 133.528 198.27 134.044C198.492 134.58 198.499 135.116 198.291 135.653C198.089 136.176 197.721 136.572 197.188 136.842C196.67 137.117 196.132 137.157 195.574 136.96Z" fill="white"/>
<path d="M179.922 150.685C180.938 151.294 181.865 151.542 182.704 151.43C183.534 151.331 184.288 150.768 184.965 149.738L185.203 149.378C185.273 149.271 185.348 149.157 185.427 149.037C185.506 148.916 185.567 148.795 185.61 148.671C185.657 148.513 185.653 148.389 185.597 148.299C185.541 148.21 185.437 148.12 185.286 148.03C184.49 147.552 183.699 147.069 182.912 146.578C182.13 146.109 181.334 145.632 180.524 145.146L179.68 144.64C179.605 144.726 179.529 144.811 179.454 144.896C179.393 144.99 179.331 145.084 179.269 145.177C178.812 145.872 178.485 146.543 178.289 147.19C178.098 147.858 178.117 148.484 178.345 149.068C178.587 149.66 179.112 150.199 179.922 150.685ZM165.538 149.162C165.414 149.088 165.393 148.917 165.474 148.649C165.56 148.402 165.697 148.121 165.886 147.805C166.052 147.495 166.223 147.206 166.399 146.938C166.561 146.663 166.673 146.478 166.734 146.385C167.068 145.877 167.427 145.449 167.809 145.1C168.183 144.765 168.716 144.609 169.408 144.633C170.911 144.676 172.418 144.741 173.93 144.828C175.456 144.923 176.976 145.013 178.488 145.1L179.063 144.27C177.978 143.62 176.887 142.966 175.79 142.308C174.697 141.671 173.601 141.024 172.504 140.366C172.38 140.292 172.235 140.251 172.067 140.244C171.913 140.245 171.792 140.312 171.705 140.446C171.599 140.606 171.5 140.771 171.408 140.939C171.317 141.108 171.218 141.273 171.112 141.433C171.068 141.5 170.981 141.531 170.85 141.527C170.723 141.544 170.626 141.533 170.557 141.492C170.461 141.434 170.396 141.358 170.363 141.263C170.321 141.182 170.33 141.095 170.392 141.001C170.471 140.881 170.553 140.771 170.637 140.673C170.721 140.574 170.798 140.471 170.869 140.364C171.054 140.14 171.226 139.908 171.385 139.667C171.543 139.426 171.701 139.186 171.86 138.945C172.238 138.371 172.607 137.781 172.966 137.176C173.317 136.585 173.686 135.996 174.073 135.408C174.222 135.18 174.421 135.141 174.668 135.289C174.764 135.346 174.813 135.432 174.815 135.545C174.831 135.666 174.808 135.774 174.746 135.867C174.658 136.001 174.564 136.13 174.462 136.256C174.36 136.381 174.265 136.511 174.178 136.645C174.054 136.832 173.983 137.013 173.964 137.187C173.944 137.362 174.045 137.515 174.264 137.647L186.985 145.274C187.191 145.397 187.355 145.439 187.476 145.4C187.611 145.369 187.74 145.26 187.863 145.073C187.951 144.94 188.032 144.802 188.107 144.66C188.181 144.518 188.262 144.38 188.35 144.247C188.411 144.153 188.512 144.073 188.651 144.008C188.781 143.955 188.901 143.962 189.011 144.028C189.271 144.184 189.305 144.409 189.111 144.703C189.024 144.837 188.929 144.966 188.827 145.092C188.739 145.226 188.644 145.355 188.543 145.481C188.353 145.74 188.159 146.005 187.96 146.278C187.776 146.559 187.595 146.832 187.42 147.1C186.997 147.741 186.6 148.389 186.228 149.041C185.861 149.716 185.47 150.367 185.057 150.995C184.696 151.543 184.272 152.072 183.784 152.581C183.31 153.098 182.779 153.525 182.193 153.864C181.598 154.215 180.973 154.409 180.318 154.445C179.677 154.489 179.013 154.305 178.327 153.894C177.49 153.392 176.927 152.822 176.639 152.183C176.343 151.558 176.246 150.876 176.35 150.137C176.445 149.411 176.654 148.642 176.979 147.83C175.494 147.759 173.999 147.749 172.493 147.797C170.988 147.845 169.492 147.908 168.006 147.986C167.622 148.017 167.23 148.117 166.831 148.288C166.445 148.467 166.151 148.71 165.949 149.017C165.887 149.111 165.83 149.17 165.776 149.193C165.727 149.238 165.648 149.228 165.538 149.162Z" fill="white"/>
<path d="M162.041 163.474C162.708 164.095 163.45 164.643 164.267 165.119C165.071 165.606 165.909 165.949 166.78 166.148C167.651 166.346 168.513 166.341 169.367 166.131C170.232 165.932 171.048 165.458 171.814 164.708C172.591 163.947 173.34 163.181 174.059 162.409L163.306 152.404C163.002 152.12 162.739 151.963 162.519 151.933C162.298 151.903 162.028 152.044 161.708 152.358C161.319 152.738 160.931 153.152 160.543 153.599C160.144 154.057 159.803 154.536 159.52 155.037C159.237 155.56 159.064 156.087 159.002 156.618C158.879 157.923 159.115 159.169 159.709 160.354C160.303 161.54 161.08 162.58 162.041 163.474ZM159.8 166.137C159.05 165.44 158.421 164.647 157.912 163.758C157.403 162.87 157.05 161.93 156.852 160.938C156.654 159.968 156.653 158.985 156.849 157.988C156.98 157.345 157.226 156.679 157.587 155.99C157.961 155.311 158.392 154.665 158.882 154.051C159.361 153.448 159.84 152.912 160.32 152.442C160.72 152.05 161.138 151.675 161.573 151.315C161.985 150.957 162.392 150.581 162.792 150.19C163.078 149.91 163.369 149.624 163.666 149.333C163.94 149.043 164.214 148.741 164.488 148.428C164.591 148.305 164.694 148.193 164.796 148.093C164.888 147.981 164.985 147.875 165.088 147.774C165.293 147.572 165.49 147.559 165.677 147.733C165.795 147.842 165.819 147.963 165.751 148.097C165.684 148.23 165.593 148.364 165.479 148.498C165.376 148.643 165.303 148.76 165.258 148.849C165.157 149.126 165.178 149.386 165.319 149.627C165.461 149.868 165.626 150.076 165.814 150.251C166.88 151.242 167.94 152.229 168.994 153.21C170.048 154.191 171.102 155.171 172.157 156.152C172.766 156.719 173.369 157.28 173.966 157.836C174.564 158.414 175.179 158.964 175.81 159.487C175.834 159.508 175.886 159.546 175.968 159.601C176.05 159.677 176.097 159.721 176.109 159.731C176.283 159.829 176.469 159.826 176.664 159.724C176.86 159.622 177.037 159.482 177.197 159.303C177.368 159.135 177.511 158.995 177.626 158.884C177.717 158.794 177.82 158.726 177.936 158.681C178.063 158.646 178.185 158.683 178.302 158.792C178.524 158.999 178.527 159.209 178.31 159.422C178.024 159.702 177.732 159.965 177.434 160.212C177.137 160.481 176.845 160.755 176.559 161.035C175.748 161.83 174.965 162.652 174.212 163.501C173.459 164.372 172.677 165.205 171.865 166C170.63 167.209 169.321 168.021 167.938 168.436C166.554 168.852 165.171 168.864 163.788 168.473C162.395 168.093 161.065 167.314 159.8 166.137Z" fill="white"/>
<path d="M142.945 169.965C142.799 169.755 142.675 169.521 142.574 169.264C142.468 169.028 142.351 168.79 142.223 168.55C142.076 168.283 141.932 168.005 141.789 167.717C141.634 167.437 141.478 167.158 141.322 166.878C141.216 166.642 141.177 166.459 141.203 166.329C141.238 166.212 141.371 166.08 141.601 165.935C142.979 165.061 144.362 164.193 145.749 163.333C147.146 162.485 148.533 161.624 149.912 160.75C150.385 160.451 150.844 160.131 151.289 159.792C151.726 159.439 152.18 159.113 152.653 158.813C152.883 158.668 153.076 158.707 153.231 158.93C153.386 159.153 153.363 159.329 153.16 159.457C152.967 159.599 152.764 159.756 152.553 159.928C152.301 160.125 152.153 160.361 152.11 160.635C152.062 160.93 152.23 161.353 152.614 161.905L160.003 172.523C160.149 172.733 160.332 172.911 160.55 173.056C160.754 173.21 160.992 173.202 161.262 173.03C161.424 172.928 161.582 172.818 161.735 172.702C161.897 172.599 162.059 172.497 162.221 172.394C162.559 172.18 162.838 172.23 163.057 172.545C163.167 172.703 163.181 172.836 163.101 172.944C163.029 173.065 162.926 173.168 162.791 173.254C162.399 173.502 162.004 173.733 161.608 173.947C161.22 174.174 160.837 174.407 160.459 174.647C159.189 175.452 157.923 176.264 156.662 177.083C155.41 177.914 154.149 178.733 152.879 179.538C152.636 179.692 152.397 179.853 152.163 180.02C151.938 180.201 151.713 180.381 151.488 180.562C151.315 180.369 151.141 180.176 150.968 179.983C150.781 179.798 150.601 179.61 150.428 179.417C150.214 179.193 149.977 178.964 149.718 178.731C149.445 178.507 149.217 178.264 149.034 178.001C148.924 177.843 148.9 177.669 148.962 177.478C149.034 177.301 149.143 177.165 149.292 177.071C149.616 176.865 149.929 176.866 150.229 177.073C150.861 177.562 151.521 177.881 152.21 178.031C152.894 178.203 153.595 178.062 154.311 177.608L157.959 175.295L153.929 169.503C153.415 169.829 152.92 170.152 152.443 170.474C151.952 170.804 151.47 171.147 150.997 171.504C150.525 171.86 150.1 172.243 149.723 172.652C149.561 172.812 149.402 172.989 149.245 173.183C149.074 173.385 148.894 173.547 148.705 173.667C148.543 173.77 148.412 173.749 148.311 173.604C148.247 173.512 148.178 173.357 148.104 173.139C148.017 172.93 147.955 172.77 147.918 172.661C147.867 172.448 147.861 172.3 147.901 172.218C147.95 172.148 148.063 172.058 148.239 171.947C148.563 171.741 148.894 171.56 149.232 171.402C149.782 171.129 150.326 170.832 150.862 170.511C151.407 170.203 151.943 169.882 152.47 169.548C152.767 169.359 152.963 169.122 153.056 168.836C153.144 168.572 153.079 168.282 152.86 167.967L149.487 163.121C149.268 162.805 149.072 162.608 148.899 162.528C148.713 162.457 148.451 162.528 148.114 162.742C147.749 162.974 147.343 163.231 146.897 163.513C146.452 163.796 146.013 164.103 145.581 164.433C145.135 164.773 144.755 165.136 144.441 165.525C144.127 165.913 143.926 166.324 143.839 166.758C143.765 167.127 143.747 167.564 143.787 168.069C143.827 168.574 143.88 169.013 143.946 169.388C143.988 169.588 143.993 169.736 143.962 169.832C143.94 169.94 143.842 170.05 143.666 170.161C143.504 170.264 143.368 170.293 143.259 170.249C143.15 170.204 143.046 170.11 142.945 169.965Z" fill="white"/>
<path d="M130.392 188.391C130.275 188.11 130.358 187.916 130.642 187.808C130.762 187.763 130.885 187.725 131.011 187.694C131.136 187.663 131.259 187.625 131.379 187.58C131.439 187.557 131.503 187.524 131.571 187.481C131.646 187.452 131.721 187.424 131.796 187.395C131.945 187.338 132.003 187.206 131.967 186.997C131.938 186.802 131.877 186.594 131.785 186.373C131.699 186.166 131.637 186.019 131.6 185.93L125.842 172.131C125.799 172.028 125.777 171.933 125.776 171.848C125.76 171.769 125.817 171.696 125.945 171.63C126.142 171.521 126.363 171.428 126.609 171.352C126.848 171.261 127.069 171.168 127.273 171.074C127.553 171.412 127.879 171.716 128.251 171.985C128.608 172.26 128.974 172.514 129.349 172.748C131.55 174.204 133.807 175.562 136.117 176.822C138.413 178.088 140.67 179.428 142.889 180.843C142.058 178.849 141.233 176.853 140.417 174.854C139.591 172.875 138.762 170.889 137.93 168.896C137.875 168.763 137.789 168.599 137.673 168.404C137.548 168.229 137.396 168.175 137.216 168.244C137.007 168.323 136.801 168.41 136.597 168.504C136.379 168.605 136.173 168.691 135.978 168.765C135.859 168.811 135.759 168.78 135.68 168.673C135.592 168.587 135.533 168.507 135.502 168.433C135.459 168.33 135.449 168.223 135.472 168.111C135.479 168.006 135.543 167.93 135.663 167.885C135.917 167.788 136.178 167.706 136.444 167.639C136.711 167.572 136.971 167.49 137.225 167.393C137.569 167.262 137.918 167.121 138.27 166.97C138.629 166.834 138.975 166.685 139.306 166.525C139.435 166.459 139.566 166.401 139.701 166.349C139.814 166.289 139.931 166.236 140.051 166.191C140.35 166.077 140.564 166.175 140.693 166.485C140.743 166.604 140.738 166.717 140.679 166.825C140.626 166.947 140.547 167.028 140.443 167.068C140.293 167.125 140.145 167.164 139.998 167.186C139.857 167.222 139.712 167.269 139.563 167.326C139.338 167.411 139.186 167.503 139.106 167.602C139.017 167.721 139.028 167.914 139.139 168.18C139.989 170.218 140.825 172.261 141.645 174.31C142.45 176.365 143.278 178.411 144.129 180.449C144.209 180.641 144.286 180.825 144.36 181.002C144.434 181.18 144.511 181.364 144.591 181.556C144.671 181.748 144.788 181.926 144.943 182.089C145.083 182.259 145.273 182.298 145.512 182.207C145.691 182.139 145.875 182.06 146.064 181.971C146.237 181.888 146.421 181.81 146.615 181.736C146.869 181.639 147.055 181.731 147.172 182.012C147.283 182.278 147.204 182.462 146.935 182.564C146.546 182.712 146.154 182.852 145.759 182.985C145.364 183.118 144.979 183.256 144.606 183.398C144.262 183.529 143.918 183.66 143.574 183.791C143.221 183.942 142.872 184.083 142.528 184.213C141.153 183.368 139.748 182.576 138.314 181.838C136.871 181.12 135.458 180.349 134.073 179.524C133.26 179.029 132.44 178.536 131.612 178.047C130.784 177.558 129.952 177.079 129.115 176.61C129.768 178.175 130.421 179.74 131.074 181.305C131.712 182.876 132.358 184.444 133.011 186.01C133.066 186.142 133.157 186.296 133.282 186.471C133.398 186.667 133.553 186.727 133.748 186.653L134.353 186.423C134.443 186.389 134.527 186.34 134.604 186.276C134.688 186.228 134.774 186.186 134.864 186.152C135.148 186.044 135.355 186.145 135.484 186.455C135.558 186.632 135.549 186.756 135.457 186.825C135.37 186.909 135.252 186.979 135.103 187.036C134.804 187.15 134.509 187.253 134.219 187.347C133.914 187.446 133.619 187.549 133.335 187.657C132.946 187.805 132.563 187.968 132.187 188.145C131.795 188.328 131.405 188.493 131.016 188.641C130.896 188.687 130.773 188.682 130.647 188.628C130.526 188.588 130.441 188.509 130.392 188.391Z" fill="white"/>
<path d="M110.387 180.341L116.668 179.714L116.869 181.551L110.588 182.178L110.387 180.341Z" fill="white"/>
</svg>
