<svg width="200" height="200" viewBox="0 0 200 200" fill="none" xmlns="http://www.w3.org/2000/svg">
<path d="M82.4628 174.899C82.5799 173.979 82.8841 173.235 83.3755 172.669C83.8649 172.118 84.4731 171.712 85.2 171.45C85.911 171.186 86.6724 171.033 87.4842 170.991C88.2959 170.949 89.0827 170.977 89.8446 171.074C90.4318 171.149 90.9841 171.308 91.5016 171.551C92.021 171.779 92.5454 172.031 93.0746 172.308C93.3323 172.438 93.5951 172.528 93.8629 172.578C94.1128 172.642 94.3806 172.692 94.6663 172.729C94.6654 173.116 94.6656 173.495 94.6668 173.866C94.6659 174.253 94.673 174.641 94.688 175.03C94.6854 175.304 94.6918 175.571 94.7071 175.831C94.7224 176.091 94.7139 176.348 94.6816 176.602C94.6533 176.824 94.5904 177.001 94.4929 177.134C94.3795 177.265 94.2038 177.315 93.9657 177.285C93.7435 177.256 93.5829 177.188 93.4839 177.078C93.367 176.983 93.29 176.828 93.2527 176.613C93.178 176.313 93.128 176.009 93.1029 175.699C93.0619 175.387 93.0051 175.074 92.9323 174.758C92.7574 173.977 92.3967 173.327 91.8501 172.805C91.2876 172.282 90.5937 171.968 89.7684 171.863C88.6574 171.721 87.7679 171.93 87.0999 172.49C86.414 173.064 86.0013 173.899 85.862 174.994C85.7812 175.629 85.8495 176.17 86.0668 176.617C86.2821 177.08 86.5849 177.489 86.975 177.845C87.3652 178.202 87.7891 178.546 88.2468 178.879C88.6748 179.191 89.1127 179.489 89.5606 179.772C90.0085 180.055 90.4474 180.345 90.8774 180.641C91.351 180.976 91.8085 181.373 92.2501 181.832C92.6737 182.306 93.0109 182.824 93.2617 183.389C93.4946 183.967 93.5717 184.565 93.493 185.184C93.3597 186.232 92.9798 187.063 92.3534 187.676C91.711 188.288 90.9401 188.706 90.0407 188.93C89.1253 189.152 88.1994 189.203 87.263 189.084C86.6599 189.007 86.0917 188.846 85.5584 188.601C85.0072 188.369 84.4759 188.108 83.9646 187.817C83.7981 187.731 83.6454 187.663 83.5066 187.613C83.3519 187.561 83.1873 187.524 83.0127 187.502C82.8857 187.486 82.7667 187.471 82.6556 187.457C82.5425 187.458 82.4293 187.46 82.3162 187.462C82.3332 186.948 82.3423 186.433 82.3434 185.917C82.3445 185.401 82.3457 184.885 82.3468 184.369C82.341 184.287 82.3442 184.199 82.3563 184.104C82.3505 184.022 82.3527 183.942 82.3628 183.863C82.3911 183.64 82.4649 183.44 82.5844 183.262C82.7018 183.099 82.8954 183.035 83.1653 183.07C83.3716 183.096 83.5163 183.163 83.5994 183.27C83.6825 183.378 83.7527 183.524 83.8098 183.708C83.9377 184.225 84.0586 184.732 84.1726 185.23C84.2866 185.729 84.4841 186.206 84.7649 186.661C85.0575 187.15 85.4526 187.531 85.9501 187.804C86.4456 188.093 86.9711 188.273 87.5266 188.343C88.0662 188.412 88.5378 188.319 88.9412 188.064C89.3426 187.825 89.6598 187.486 89.893 187.048C90.1261 186.61 90.274 186.145 90.3366 185.653C90.4335 184.891 90.3108 184.271 89.9686 183.792C89.6084 183.326 89.149 182.881 88.5903 182.455C88.2792 182.238 87.9681 182.021 87.657 181.803C87.328 181.6 87.007 181.398 86.6938 181.197C85.9467 180.731 85.2335 180.188 84.5541 179.569C83.8569 178.964 83.3077 178.273 82.9066 177.496C82.4875 176.733 82.3396 175.868 82.4628 174.899Z" fill="white"/>
<path d="M61.3174 181.126C61.3531 181.02 61.4267 180.926 61.5381 180.846C61.6294 180.775 61.7356 180.761 61.8569 180.802C62.054 180.868 62.251 180.935 62.4481 181.001C62.6401 181.083 62.8346 181.157 63.0316 181.224C63.2287 181.29 63.3831 181.232 63.4949 181.051C63.6015 180.884 63.6803 180.725 63.7313 180.573C63.7568 180.497 63.7848 180.414 63.8154 180.323C63.8257 180.242 63.8436 180.164 63.8691 180.088C64.333 178.708 64.7943 177.335 65.253 175.97C65.6966 174.6 66.1478 173.232 66.6065 171.868C67.2794 169.866 68.3047 168.447 69.6825 167.612C71.0553 166.792 72.78 166.733 74.8568 167.434C76.9033 168.125 78.3293 169.155 79.1349 170.525C79.9406 171.895 79.9865 173.641 79.2729 175.765L78.9289 176.788C78.4905 178.093 78.0521 179.397 77.6138 180.701C77.1552 182.016 76.7041 183.333 76.2606 184.652C76.2148 184.789 76.1688 184.976 76.1226 185.213C76.0714 185.466 76.1342 185.631 76.311 185.708C76.503 185.789 76.7076 185.858 76.9249 185.915C77.1271 185.966 77.3267 186.025 77.5238 186.092C77.6299 186.128 77.7157 186.199 77.7811 186.305C77.8415 186.427 77.8539 186.541 77.8182 186.647C77.7774 186.769 77.7038 186.862 77.5974 186.927C77.4759 186.988 77.3545 186.997 77.2332 186.956C77.0513 186.895 76.8795 186.828 76.7179 186.757C76.5411 186.68 76.3718 186.606 76.2102 186.535C75.8666 186.402 75.5231 186.269 75.1795 186.136C74.8309 186.018 74.4898 185.903 74.1563 185.791C73.8076 185.673 73.4741 185.56 73.1558 185.453C72.8223 185.34 72.4862 185.235 72.1476 185.138C71.9303 185.081 71.7206 185.027 71.5184 184.976C71.296 184.935 71.0862 184.881 70.8892 184.814C70.7679 184.773 70.6922 184.697 70.6622 184.585C70.617 184.469 70.6147 184.35 70.6555 184.229C70.6912 184.122 70.7622 184.037 70.8686 183.971C70.9547 183.916 71.0584 183.909 71.1797 183.95C71.3768 184.016 71.5713 184.09 71.7633 184.172C71.9401 184.249 72.127 184.32 72.3241 184.387C72.4757 184.438 72.5971 184.403 72.6885 184.282C72.7748 184.176 72.8459 184.065 72.9018 183.948C72.9985 183.711 73.0876 183.471 73.1692 183.228C73.2356 182.98 73.3096 182.735 73.3911 182.493C73.8499 181.128 74.3238 179.768 74.8129 178.413C75.2817 177.068 75.7455 175.713 76.2042 174.348C76.4234 173.696 76.6096 173.067 76.763 172.46C76.896 171.863 76.9329 171.301 76.8736 170.775C76.8143 170.248 76.6006 169.779 76.2325 169.368C75.8492 168.951 75.2482 168.605 74.4297 168.328C73.3382 167.96 72.3824 167.916 71.5624 168.196C70.7373 168.492 70.043 169 69.4798 169.722C68.9114 170.459 68.4641 171.313 68.1379 172.283C67.6332 173.785 67.1589 175.296 66.7149 176.818C66.2709 178.34 65.7966 179.852 65.292 181.354C65.2155 181.581 65.2176 181.751 65.2983 181.862C65.3738 181.989 65.5177 182.088 65.7299 182.16C65.8815 182.211 66.0356 182.255 66.1923 182.291C66.3338 182.322 66.488 182.365 66.6547 182.422C66.7608 182.457 66.8466 182.529 66.9121 182.635C66.9776 182.742 66.9899 182.856 66.9491 182.977C66.9084 183.098 66.8348 183.192 66.7284 183.257C66.6069 183.317 66.4855 183.327 66.3642 183.286C66.1216 183.204 65.8918 183.11 65.6746 183.003C65.4523 182.911 65.2224 182.816 64.985 182.719C64.8385 182.653 64.6894 182.594 64.5378 182.543C64.3863 182.492 64.2347 182.44 64.0831 182.389C63.9163 182.333 63.7496 182.277 63.5828 182.22C63.4009 182.159 63.224 182.108 63.0522 182.066C62.8096 181.984 62.5696 181.92 62.332 181.874C62.0793 181.822 61.8316 181.756 61.5891 181.674C61.3162 181.582 61.2257 181.399 61.3174 181.126Z" fill="white"/>
<path d="M44.3564 170.693C44.5127 170.432 44.7211 170.38 44.9815 170.537C45.0911 170.603 45.1966 170.676 45.2981 170.756C45.3995 170.836 45.505 170.909 45.6146 170.975C45.6694 171.008 45.7352 171.038 45.812 171.066C45.8805 171.107 45.949 171.148 46.0175 171.19C46.1546 171.272 46.2971 171.237 46.4452 171.083C46.5851 170.943 46.7168 170.77 46.8402 170.565C46.9554 170.372 47.0377 170.235 47.0871 170.153L54.7773 157.33C54.8349 157.234 54.898 157.16 54.9665 157.108C55.0214 157.048 55.1146 157.048 55.2461 157.108C55.4545 157.196 55.6641 157.313 55.8752 157.459C56.0944 157.591 56.3041 157.708 56.5042 157.81C56.3999 158.233 56.3518 158.671 56.3598 159.124C56.3542 159.569 56.3705 160.009 56.4087 160.443C56.5668 163.041 56.8373 165.623 57.2202 168.189C57.5894 170.746 57.875 173.319 58.0769 175.906C59.1879 174.054 60.3057 172.206 61.4303 170.361C62.533 168.523 63.6398 166.677 64.7508 164.825C64.8249 164.701 64.9058 164.535 64.9936 164.327C65.0595 164.124 65.0102 163.972 64.8457 163.873C64.6538 163.758 64.4579 163.649 64.2578 163.547C64.044 163.437 63.848 163.328 63.6699 163.221C63.5602 163.155 63.5246 163.059 63.563 162.932C63.5795 162.811 63.6083 162.717 63.6495 162.648C63.7071 162.552 63.788 162.479 63.8922 162.43C63.9827 162.373 64.0827 162.377 64.1924 162.443C64.4253 162.583 64.6501 162.737 64.8666 162.905C65.0831 163.073 65.3079 163.227 65.5408 163.368C65.856 163.557 66.1822 163.745 66.5193 163.929C66.8483 164.127 67.1785 164.308 67.5102 164.47C67.6418 164.531 67.7692 164.598 67.8926 164.672C68.0104 164.725 68.1242 164.784 68.2338 164.85C68.5079 165.015 68.5585 165.242 68.3857 165.53C68.3199 165.64 68.2253 165.704 68.1019 165.723C67.9703 165.756 67.8565 165.744 67.7606 165.686C67.6236 165.603 67.5016 165.511 67.3947 165.409C67.2796 165.321 67.1535 165.236 67.0165 165.153C66.8109 165.029 66.6437 164.966 66.5149 164.963C66.3641 164.966 66.2146 165.09 66.0665 165.337C64.9309 167.231 63.7815 169.116 62.6185 170.993C61.4418 172.862 60.2856 174.743 59.1499 176.637C59.043 176.815 58.9401 176.987 58.8413 177.151C58.7426 177.316 58.6397 177.488 58.5327 177.666C58.4258 177.844 58.353 178.043 58.3146 178.263C58.2624 178.475 58.346 178.646 58.5653 178.778C58.7297 178.878 58.9051 178.974 59.0915 179.068C59.2642 179.153 59.4396 179.249 59.6178 179.357C59.8507 179.497 59.8891 179.698 59.7327 179.958C59.5846 180.205 59.3872 180.254 59.1405 180.106C58.7842 179.891 58.432 179.669 58.0839 179.441C57.7358 179.213 57.3905 178.995 57.0479 178.789C56.7326 178.599 56.4174 178.409 56.1022 178.219C55.7651 178.035 55.4389 177.847 55.1237 177.657C54.9735 176.072 54.7616 174.497 54.488 172.931C54.1925 171.371 53.9587 169.801 53.7865 168.221C53.6936 167.287 53.5939 166.349 53.4873 165.407C53.3807 164.465 53.2632 163.526 53.1347 162.589C52.2624 164.043 51.3901 165.498 50.5178 166.952C49.6318 168.399 48.7526 169.849 47.8803 171.303C47.8063 171.427 47.7363 171.59 47.6704 171.793C47.5826 172.002 47.6278 172.16 47.806 172.267L48.361 172.602C48.4432 172.651 48.5337 172.687 48.6323 172.709C48.7228 172.745 48.8091 172.788 48.8914 172.837C49.1518 172.994 49.1955 173.217 49.0227 173.505C48.924 173.669 48.8184 173.737 48.706 173.706C48.5854 173.69 48.4566 173.64 48.3195 173.557C48.0454 173.392 47.7823 173.224 47.5302 173.054C47.2643 172.875 47.0012 172.707 46.7408 172.55C46.3845 172.335 46.0199 172.134 45.6472 171.947C45.2607 171.752 44.8893 171.547 44.533 171.332C44.4233 171.266 44.3521 171.167 44.3193 171.035C44.2782 170.917 44.2906 170.803 44.3564 170.693Z" fill="white"/>
<path d="M38.5473 153.248C37.9184 153.908 37.3647 154.641 36.8861 155.445C36.3959 156.238 36.0534 157.062 35.8586 157.916C35.6637 158.771 35.6777 159.614 35.9006 160.448C36.1125 161.292 36.6057 162.085 37.3803 162.826C38.1665 163.579 38.9577 164.302 39.7538 164.997L49.8824 154.36C50.1692 154.059 50.3271 153.8 50.356 153.584C50.3849 153.369 50.2374 153.106 49.9137 152.796C49.5206 152.42 49.0937 152.045 48.6328 151.67C48.1604 151.285 47.6667 150.956 47.1517 150.685C46.6141 150.414 46.0734 150.251 45.5295 150.196C44.1933 150.091 42.9217 150.336 41.7148 150.931C40.5079 151.525 39.4521 152.298 38.5473 153.248ZM35.801 151.086C36.5072 150.344 37.3121 149.719 38.2158 149.211C39.1196 148.703 40.0777 148.346 41.0902 148.141C42.0802 147.937 43.0859 147.925 44.1074 148.105C44.7658 148.225 45.4495 148.459 46.1583 148.805C46.8562 149.162 47.5215 149.577 48.1542 150.05C48.7753 150.511 49.3287 150.974 49.8143 151.439C50.2189 151.826 50.607 152.23 50.9786 152.652C51.3496 153.051 51.7374 153.445 52.1421 153.832C52.4311 154.108 52.7259 154.39 53.0265 154.678C53.3266 154.943 53.6379 155.207 53.9606 155.472C54.0872 155.571 54.2026 155.67 54.3066 155.77C54.4217 155.858 54.5313 155.951 54.6353 156.051C54.8435 156.25 54.8592 156.442 54.6827 156.628C54.5724 156.744 54.4486 156.769 54.3115 156.704C54.1743 156.64 54.0366 156.552 53.8984 156.442C53.7492 156.344 53.6289 156.273 53.5374 156.229C53.2526 156.134 52.9875 156.157 52.7421 156.299C52.4968 156.441 52.2858 156.604 52.1093 156.79C51.1053 157.844 50.1067 158.893 49.1137 159.936C48.1208 160.978 47.1278 162.021 46.1348 163.064C45.561 163.667 44.9928 164.263 44.4301 164.854C43.8448 165.446 43.2882 166.054 42.7602 166.678C42.7381 166.701 42.6997 166.753 42.6451 166.833C42.5679 166.915 42.5237 166.961 42.5127 166.973C42.415 167.145 42.4192 167.326 42.5254 167.516C42.6315 167.706 42.7768 167.878 42.9613 168.033C43.1347 168.199 43.2792 168.337 43.3949 168.448C43.4873 168.536 43.5575 168.636 43.6053 168.749C43.6421 168.872 43.6054 168.992 43.495 169.108C43.2854 169.328 43.0707 169.333 42.8511 169.123C42.562 168.847 42.2898 168.564 42.0344 168.275C41.7564 167.987 41.4729 167.705 41.1839 167.428C40.363 166.643 39.5146 165.887 38.6385 165.159C37.7399 164.433 36.8802 163.677 36.0593 162.891C34.8107 161.697 33.9672 160.425 33.5288 159.075C33.0904 157.726 33.0645 156.373 33.4511 155.015C33.8261 153.647 34.6094 152.337 35.801 151.086Z" fill="white"/>
<path d="M16.0352 131.917C16.3034 131.774 16.5088 131.836 16.6513 132.105C16.7113 132.218 16.7642 132.335 16.81 132.455C16.8559 132.576 16.9088 132.693 16.9688 132.806C16.9988 132.862 17.0396 132.922 17.0912 132.985C17.1287 133.056 17.1662 133.127 17.2037 133.197C17.2787 133.339 17.4192 133.382 17.6253 133.326C17.8172 133.278 18.0191 133.198 18.2308 133.085C18.4285 132.98 18.5697 132.904 18.6544 132.859L31.8491 125.826C31.9479 125.774 32.0401 125.743 32.1257 125.733C32.2038 125.71 32.2837 125.758 32.3653 125.878C32.4985 126.06 32.618 126.269 32.7239 126.502C32.8439 126.728 32.9634 126.937 33.0825 127.127C32.7754 127.436 32.5086 127.786 32.2822 128.179C32.0483 128.558 31.8361 128.943 31.6454 129.334C30.4433 131.643 29.3459 133.996 28.3533 136.392C27.3532 138.775 26.2737 141.127 25.1148 143.449C27.0209 142.433 28.9308 141.424 30.8444 140.422C32.7364 139.414 34.6355 138.402 36.5416 137.386C36.6687 137.318 36.8235 137.217 37.0062 137.084C37.1673 136.943 37.2028 136.788 37.1128 136.619C37.0079 136.421 36.8958 136.227 36.7767 136.036C36.6501 135.832 36.5381 135.638 36.4406 135.454C36.3806 135.341 36.3996 135.24 36.4976 135.152C36.5739 135.057 36.6474 134.99 36.718 134.953C36.8168 134.9 36.9236 134.879 37.0383 134.891C37.1455 134.888 37.2291 134.943 37.2891 135.056C37.4166 135.297 37.5299 135.544 37.6292 135.8C37.7284 136.055 37.8417 136.303 37.9692 136.543C38.1417 136.868 38.325 137.197 38.519 137.528C38.699 137.867 38.8893 138.192 39.09 138.502C39.1716 138.622 39.2462 138.745 39.3137 138.872C39.3878 138.978 39.4548 139.087 39.5148 139.2C39.6648 139.483 39.5915 139.703 39.295 139.861C39.182 139.922 39.0678 139.928 38.9522 139.881C38.8225 139.841 38.7314 139.772 38.6789 139.673C38.6039 139.532 38.5468 139.39 38.5075 139.248C38.4542 139.113 38.39 138.975 38.315 138.834C38.2025 138.622 38.0918 138.481 37.9829 138.412C37.8523 138.337 37.6599 138.367 37.4058 138.502C35.4573 139.541 33.5013 140.565 31.5378 141.576C29.5668 142.572 27.6071 143.589 25.6586 144.628C25.475 144.726 25.2985 144.82 25.1291 144.91C24.9597 145 24.7832 145.095 24.5996 145.192C24.4161 145.29 24.2513 145.423 24.1052 145.592C23.9517 145.746 23.9349 145.937 24.0548 146.163C24.1448 146.332 24.2456 146.505 24.3572 146.681C24.4613 146.844 24.5621 147.016 24.6596 147.2C24.787 147.44 24.7167 147.632 24.4484 147.775C24.1942 147.911 23.9997 147.851 23.8647 147.597C23.6697 147.229 23.4818 146.858 23.301 146.483C23.1202 146.108 22.936 145.744 22.7486 145.39C22.5761 145.065 22.4036 144.74 22.2312 144.415C22.0371 144.083 21.8538 143.755 21.6813 143.43C22.3685 141.994 22.9978 140.534 23.5694 139.051C24.1194 137.561 24.7271 136.095 25.3926 134.653C25.7938 133.804 26.1912 132.949 26.5849 132.086C26.9786 131.224 27.3614 130.358 27.7335 129.489C26.2368 130.286 24.7402 131.084 23.2435 131.882C21.7393 132.665 20.2389 133.456 18.7423 134.254C18.6152 134.322 18.4711 134.426 18.3101 134.566C18.1274 134.7 18.0848 134.858 18.1823 135.042L18.4859 135.614C18.5309 135.699 18.59 135.776 18.6633 135.846C18.7224 135.924 18.7744 136.005 18.8194 136.089C18.9619 136.358 18.8849 136.571 18.5884 136.729C18.4189 136.82 18.2939 136.823 18.2131 136.739C18.1183 136.663 18.0334 136.554 17.9584 136.412C17.8084 136.13 17.6692 135.85 17.5409 135.574C17.405 135.284 17.2659 135.005 17.1234 134.736C16.9285 134.369 16.7194 134.009 16.4962 133.656C16.2655 133.29 16.0527 132.923 15.8577 132.555C15.7977 132.442 15.7876 132.321 15.8273 132.191C15.8529 132.068 15.9222 131.977 16.0352 131.917Z" fill="white"/>
<path d="M24.4605 112.283C24.7064 112.211 24.9689 112.169 25.2478 112.154C25.507 112.129 25.7717 112.094 26.0418 112.049C26.3427 111.995 26.6534 111.947 26.9741 111.904C27.2903 111.846 27.6065 111.787 27.9227 111.729C28.1819 111.704 28.3709 111.724 28.4897 111.79C28.5932 111.86 28.6826 112.025 28.758 112.287C29.2102 113.855 29.6548 115.425 30.0917 116.997C30.5133 118.574 30.9502 120.147 31.4025 121.715C31.5577 122.253 31.7359 122.784 31.9372 123.309C32.1539 123.829 32.3398 124.359 32.495 124.897C32.5704 125.158 32.4774 125.327 32.2162 125.402C31.9549 125.478 31.791 125.401 31.7245 125.17C31.6427 124.944 31.5487 124.704 31.4425 124.452C31.3231 124.153 31.1369 123.941 30.8839 123.814C30.6111 123.677 30.152 123.702 29.5066 123.889L17.0818 127.489C16.8359 127.56 16.611 127.676 16.4071 127.835C16.1987 127.978 16.1389 128.204 16.2276 128.511C16.2808 128.696 16.3417 128.878 16.4103 129.058C16.4635 129.243 16.5167 129.427 16.5699 129.612C16.6807 129.996 16.5517 130.241 16.1829 130.348C15.9985 130.402 15.8655 130.374 15.7839 130.264C15.687 130.159 15.6163 130.029 15.572 129.876C15.4434 129.43 15.3324 128.987 15.239 128.548C15.1302 128.113 15.0137 127.68 14.8896 127.25C14.4728 125.805 14.0483 124.362 13.6161 122.921C13.1686 121.485 12.7364 120.044 12.3196 118.599C12.2398 118.323 12.1523 118.048 12.0571 117.776C11.9466 117.508 11.836 117.24 11.7255 116.972C11.9625 116.87 12.1995 116.768 12.4365 116.666C12.6691 116.549 12.9039 116.439 13.1409 116.337C13.4196 116.207 13.7092 116.056 14.0098 115.886C14.3059 115.7 14.6076 115.563 14.915 115.473C15.0994 115.42 15.2752 115.452 15.4425 115.57C15.5944 115.693 15.6948 115.839 15.7436 116.008C15.85 116.377 15.7596 116.67 15.4723 116.886C14.8165 117.326 14.317 117.846 13.9736 118.445C13.6104 119.033 13.5463 119.735 13.7813 120.55L14.9785 124.7L21.7557 122.736C21.5872 122.152 21.4155 121.586 21.2405 121.037C21.061 120.472 20.8662 119.912 20.6561 119.357C20.4459 118.802 20.1963 118.282 19.9072 117.8C19.799 117.598 19.6733 117.393 19.5299 117.185C19.3821 116.961 19.2772 116.741 19.2151 116.526C19.1619 116.342 19.2198 116.225 19.3889 116.176C19.4965 116.145 19.6667 116.129 19.8996 116.128C20.128 116.112 20.3005 116.103 20.4169 116.103C20.6389 116.122 20.784 116.163 20.8523 116.227C20.9052 116.295 20.9604 116.429 21.0181 116.628C21.1245 116.997 21.2056 117.365 21.2615 117.732C21.3686 118.334 21.5008 118.937 21.6584 119.541C21.8006 120.15 21.9582 120.754 22.1311 121.353C22.2286 121.692 22.4029 121.949 22.6538 122.126C22.8849 122.293 23.1849 122.322 23.5537 122.215L29.2244 120.572C29.5932 120.465 29.8412 120.343 29.9683 120.207C30.0909 120.054 30.0968 119.786 29.9859 119.402C29.8662 118.987 29.7332 118.526 29.5869 118.018C29.4406 117.511 29.269 117.003 29.0721 116.493C28.8708 115.969 28.6268 115.498 28.3401 115.081C28.0534 114.665 27.712 114.347 27.316 114.129C26.9794 113.943 26.5604 113.79 26.0592 113.668C25.558 113.547 25.1161 113.458 24.7337 113.403C24.5271 113.379 24.382 113.338 24.2983 113.279C24.1993 113.224 24.121 113.097 24.0634 112.897C24.0102 112.713 24.0208 112.577 24.0953 112.488C24.1697 112.4 24.2915 112.331 24.4605 112.283Z" fill="white"/>
<path d="M14.87 102.335C13.6901 102.433 12.8032 102.772 12.2091 103.352C11.6138 103.915 11.3671 104.811 11.4692 106.039L11.505 106.469C11.5156 106.597 11.5269 106.732 11.5388 106.876C11.5507 107.019 11.5779 107.153 11.6204 107.278C11.6815 107.434 11.7619 107.531 11.8615 107.571C11.9612 107.611 12.0987 107.624 12.2741 107.609C13.1989 107.532 14.1243 107.463 15.0504 107.401C15.9592 107.325 16.884 107.248 17.8247 107.17L18.8053 107.088C18.812 106.975 18.8187 106.862 18.8253 106.749C18.8161 106.637 18.8068 106.526 18.7975 106.414C18.7286 105.585 18.5713 104.851 18.3256 104.214C18.0626 103.561 17.6601 103.065 17.1181 102.725C16.5601 102.386 15.8107 102.256 14.87 102.335ZM27.1843 95.1889C27.3278 95.1769 27.4507 95.3031 27.553 95.5675C27.6379 95.8173 27.7037 96.1249 27.7501 96.4903C27.8111 96.8384 27.8549 97.1719 27.8814 97.4908C27.9239 97.8084 27.9498 98.023 27.959 98.1346C28.0094 98.7405 27.9914 99.296 27.9049 99.8009C27.8171 100.29 27.4922 100.726 26.9301 101.111C25.7155 101.951 24.4836 102.776 23.2345 103.587C21.9694 104.399 20.7124 105.21 19.4632 106.021L19.5228 107.028C20.7824 106.922 22.05 106.817 23.3256 106.71C24.5839 106.589 25.8508 106.475 27.1264 106.369C27.2699 106.357 27.41 106.305 27.5469 106.213C27.6678 106.123 27.7217 105.998 27.7084 105.838C27.6925 105.647 27.6686 105.456 27.6368 105.266C27.6049 105.076 27.5811 104.886 27.5651 104.694C27.5585 104.614 27.6084 104.538 27.7147 104.465C27.8037 104.377 27.8881 104.33 27.9678 104.323C28.0794 104.314 28.1777 104.338 28.2628 104.395C28.3465 104.436 28.393 104.513 28.4022 104.624C28.4142 104.768 28.4175 104.904 28.4121 105.033C28.4068 105.162 28.4094 105.29 28.42 105.418C28.412 105.707 28.4199 105.996 28.4438 106.283C28.4676 106.57 28.4915 106.857 28.5154 107.144C28.5724 107.829 28.646 108.521 28.7362 109.22C28.8251 109.903 28.8987 110.596 28.957 111.297C28.9795 111.568 28.8473 111.716 28.5603 111.74C28.4487 111.749 28.357 111.709 28.2853 111.618C28.1976 111.529 28.1491 111.429 28.1399 111.317C28.1266 111.158 28.1213 110.998 28.124 110.837C28.1267 110.676 28.1214 110.516 28.1082 110.357C28.0896 110.133 28.0338 109.945 27.9409 109.793C27.8479 109.64 27.6738 109.574 27.4187 109.595L12.6382 110.83C12.399 110.85 12.2436 110.911 12.1718 111.013C12.0841 111.117 12.0495 111.281 12.0681 111.504C12.0813 111.663 12.1025 111.822 12.1317 111.98C12.1609 112.138 12.1822 112.297 12.1954 112.456C12.2047 112.568 12.1748 112.691 12.1057 112.825C12.0352 112.944 11.9362 113.008 11.8087 113.019C11.5057 113.044 11.3397 112.881 11.3105 112.53C11.2973 112.371 11.292 112.211 11.2947 112.05C11.2814 111.891 11.2761 111.73 11.2788 111.57C11.2682 111.249 11.257 110.921 11.2451 110.585C11.2173 110.25 11.1901 109.923 11.1636 109.604C11.1 108.839 11.0131 108.084 10.9029 107.338C10.7755 106.578 10.6807 105.824 10.6184 105.074C10.564 104.42 10.5721 103.745 10.6427 103.049C10.6973 102.354 10.8515 101.699 11.1054 101.084C11.358 100.453 11.7321 99.9316 12.2278 99.5209C12.7075 99.1115 13.346 98.8736 14.1432 98.807C15.1159 98.7257 15.9137 98.8598 16.5368 99.2091C17.1586 99.5425 17.6574 100.039 18.0333 100.698C18.4078 101.341 18.7186 102.086 18.9656 102.932C20.1828 102.124 21.3715 101.262 22.5316 100.346C23.6917 99.4303 24.8352 98.5079 25.9621 97.5789C26.2465 97.3304 26.4937 97.0207 26.7037 96.65C26.8978 96.2805 26.9796 95.9124 26.9491 95.5457C26.9398 95.4341 26.9491 95.353 26.977 95.3025C26.9877 95.2374 27.0568 95.1995 27.1843 95.1889Z" fill="white"/>
<path d="M22.8738 79.0931C23.0008 79.1089 23.1159 79.1556 23.2191 79.233C23.3243 79.2945 23.367 79.4047 23.3473 79.5635L23.196 80.7781L28.1256 81.3948C28.2469 81.9743 28.393 82.5489 28.564 83.1185C28.719 83.6862 28.89 84.2558 29.0768 84.8274C29.2636 85.399 29.3492 86.0063 29.3336 86.6494C29.32 87.2765 29.2756 87.8918 29.2005 88.4951C29.1353 89.0191 29.0095 89.5758 28.8233 90.1652C28.637 90.7547 28.4051 91.3223 28.1276 91.868C27.8341 92.4118 27.5099 92.8792 27.1549 93.2701C26.1691 94.3239 24.9917 95.0393 23.6226 95.4163C22.2555 95.7774 20.8814 95.8715 19.5001 95.6987C18.2459 95.5418 17.0948 95.2043 16.0468 94.6862C15.0007 94.1522 14.1104 93.4684 13.3758 92.6348C12.6431 91.7853 12.1108 90.8157 11.7789 89.7261C11.4331 88.6186 11.3413 87.4139 11.5034 86.1119C11.6319 85.0799 11.9172 84.0836 12.3592 83.123C12.4247 82.9861 12.5307 82.7817 12.6775 82.5098C12.8262 82.222 12.9739 81.9422 13.1206 81.6703C13.2534 81.3805 13.3257 81.188 13.3376 81.0928C13.3673 80.8546 13.3007 80.677 13.1379 80.5599C12.9751 80.4427 12.8114 80.3336 12.6466 80.2323C12.4838 80.1152 12.4133 79.9693 12.4351 79.7947C12.4469 79.6994 12.4816 79.6151 12.5391 79.5417C12.5986 79.4524 12.6839 79.4147 12.7951 79.4286C13.5254 79.5199 14.2487 79.6023 14.9651 79.6758C15.6835 79.7335 16.4079 79.808 17.1382 79.8993C17.3605 79.9271 17.5331 80.0294 17.6563 80.206C17.7814 80.3668 17.8301 80.5583 17.8024 80.7806C17.7688 81.0505 17.6895 81.2341 17.5645 81.3313C17.4256 81.4107 17.2322 81.4752 16.9842 81.5248C15.7123 81.7688 14.6508 82.2649 13.7999 83.013C12.9509 83.7453 12.4434 84.7783 12.2773 86.112C12.1982 86.7471 12.2769 87.3455 12.5133 87.9072C12.7497 88.4688 13.0893 88.9789 13.532 89.4374C13.9609 89.8781 14.4443 90.2691 14.9822 90.6105C15.5201 90.9519 16.0501 91.2279 16.5721 91.4383C17.0941 91.6487 17.6369 91.8214 18.2006 91.9564C18.7642 92.0915 19.3318 92.1947 19.9033 92.2662C20.459 92.3357 21.0186 92.3735 21.5822 92.3795C22.1458 92.3855 22.7073 92.3429 23.2669 92.2516C24.0229 92.1366 24.76 91.9144 25.4782 91.585C26.1964 91.2556 26.8084 90.8081 27.3142 90.2425C27.8219 89.661 28.1272 88.9575 28.23 88.1319C28.2675 87.8302 28.2704 87.4839 28.2384 87.0929C28.2085 86.686 28.1358 86.298 28.0206 85.9288C27.9073 85.5438 27.7385 85.2163 27.5141 84.9463C27.2738 84.6744 26.9632 84.5146 26.5822 84.467L23.4387 84.0737C23.3117 84.0578 23.1797 84.0816 23.0428 84.1451C22.9079 84.1927 22.8315 84.288 22.8138 84.4309C22.7861 84.6532 22.7733 84.8854 22.7754 85.1275C22.7636 85.3518 22.7438 85.5751 22.7162 85.7973C22.7004 85.9244 22.6151 86.0266 22.4603 86.104C22.2917 86.1635 22.1518 86.1863 22.0407 86.1724C21.9295 86.1585 21.8402 86.0989 21.7727 85.9937C21.7052 85.8886 21.6783 85.7804 21.6922 85.6692C21.7198 85.447 21.7554 85.2257 21.799 85.0054C21.8287 84.7672 21.8573 84.537 21.885 84.3147C21.9522 83.7749 22.0184 83.243 22.0837 82.719C22.135 82.1772 22.1864 81.6354 22.2377 81.0936C22.2574 80.8058 22.2771 80.518 22.2968 80.2302C22.3007 79.9405 22.3204 79.6527 22.356 79.3669C22.3718 79.2399 22.4382 79.1595 22.5553 79.1258C22.6565 79.0901 22.7626 79.0792 22.8738 79.0931Z" fill="white"/>
<path d="M26.932 69.7845C25.5464 69.7678 24.1629 69.7689 22.7817 69.7878C21.4058 69.7916 20.0303 69.7701 18.6553 69.7232C19.7424 70.5847 20.8193 71.451 21.8859 72.3221C22.9579 73.1782 24.0348 74.0445 25.1165 74.9211L26.932 69.7845ZM14.84 65.8979C14.448 65.7587 14.0834 65.782 13.7462 65.9679C13.3992 66.1333 13.1591 66.4046 13.0258 66.7818C12.8978 67.1438 12.9113 67.5137 13.0664 67.8913C13.2116 68.2485 13.4803 68.4967 13.8723 68.6359C14.2492 68.7698 14.5988 68.7411 14.9209 68.5499C15.2484 68.3436 15.4761 68.0594 15.604 67.6973C15.732 67.3353 15.7309 66.9783 15.6007 66.6265C15.4705 66.2746 15.217 66.0318 14.84 65.8979ZM35.8302 65.2784C36.0564 65.3587 36.1188 65.5422 36.0175 65.8288C35.9855 65.9193 35.9535 66.0098 35.9216 66.1004C35.8896 66.1909 35.8474 66.2862 35.795 66.3865C35.6315 66.7529 35.4778 67.1398 35.3338 67.5471C35.1952 67.9393 35.0566 68.3315 34.918 68.7238C34.742 69.2216 34.566 69.7194 34.3901 70.2172C34.2141 70.715 34.0506 71.2258 33.8995 71.7494C33.8932 71.8151 33.8794 71.8781 33.8581 71.9384C33.8368 71.9988 33.8154 72.0591 33.7941 72.1194C33.7195 72.3306 33.5766 72.3988 33.3655 72.3238C33.1846 72.2596 33.1004 72.1617 33.1129 72.0303C33.1156 71.8785 33.1539 71.7223 33.2276 71.5617C33.3013 71.4011 33.3569 71.268 33.3942 71.1624C33.4902 70.8909 33.5067 70.676 33.4438 70.5179C33.3712 70.3393 33.1916 70.1991 32.9052 70.0974C32.7393 70.0385 32.4315 69.9971 31.9817 69.9732C31.5223 69.9289 31.0144 69.9014 30.4582 69.8906C29.9073 69.8648 29.3941 69.8523 28.9186 69.8533C28.4334 69.8338 28.0897 69.822 27.8874 69.8181L25.8719 75.5204C25.9517 75.5827 26.1286 75.7304 26.4026 75.9636C26.6819 76.1816 27.006 76.441 27.3748 76.7418C27.749 77.0275 28.1157 77.3105 28.4748 77.5908C28.8339 77.8711 29.1482 78.1101 29.4178 78.3077C29.6722 78.5 29.8296 78.6068 29.89 78.6282C30.1764 78.7299 30.3991 78.7241 30.558 78.6107C30.7168 78.4974 30.8438 78.3302 30.9388 78.1093C31.0188 77.883 31.0961 77.6643 31.1708 77.4531C31.1974 77.3776 31.2715 77.336 31.3931 77.3283C31.4995 77.3151 31.5905 77.322 31.6658 77.3487C31.7563 77.3809 31.8108 77.4427 31.8294 77.5341C31.8533 77.6106 31.8519 77.6865 31.8253 77.7619C31.6493 78.2597 31.4583 78.7522 31.2522 79.2393C31.0665 79.7167 30.8883 80.1967 30.7177 80.6795C30.6324 80.9208 30.5546 81.1649 30.4844 81.4116C30.4141 81.6583 30.3337 81.9099 30.2431 82.1664C30.2164 82.2418 30.1596 82.3065 30.0726 82.3605C29.9857 82.4145 29.9045 82.4281 29.8291 82.4014C29.6632 82.3425 29.579 82.2447 29.5764 82.1079C29.5739 81.9712 29.6068 81.83 29.6752 81.6845C29.7338 81.5186 29.7818 81.3828 29.8191 81.2772C29.8884 81.0811 29.869 80.896 29.7609 80.7217C29.6431 80.5271 29.5194 80.3728 29.39 80.2589C27.513 78.6076 25.6178 76.9837 23.7044 75.3874C21.7759 73.7857 19.8266 72.2191 17.8563 70.6874C17.7118 70.5682 17.5048 70.4098 17.2352 70.2122C16.9657 70.0146 16.7555 69.889 16.6047 69.8355C16.5143 69.8033 16.4309 69.7992 16.3546 69.823C16.2685 69.8264 16.1953 69.8174 16.135 69.796C16.0596 69.7692 16.0379 69.7106 16.0699 69.6201C16.0984 69.4434 16.142 69.2721 16.2006 69.1062C16.2593 68.9403 16.3104 68.7717 16.354 68.6004C16.4305 68.2879 16.507 67.9755 16.5834 67.6631C16.6448 67.3453 16.7111 67.0378 16.7823 66.7404L33.9997 66.6404C34.4043 66.6482 34.694 66.5728 34.8688 66.4142C35.0339 66.2351 35.1778 65.9721 35.3004 65.6251C35.3484 65.4893 35.411 65.3842 35.4882 65.3098C35.5504 65.23 35.6644 65.2195 35.8302 65.2784ZM15.072 65.2417C15.6298 65.4398 16.0102 65.8041 16.213 66.3345C16.4007 66.8596 16.4013 67.3862 16.2147 67.9142C16.0227 68.4573 15.6889 68.8736 15.2133 69.1631C14.7279 69.4321 14.2062 69.4676 13.6483 69.2695C13.0905 69.0714 12.6999 68.712 12.4767 68.1913C12.2437 67.6501 12.2232 67.108 12.4152 66.5649C12.6018 66.0369 12.9555 65.6362 13.4764 65.3627C13.9822 65.0839 14.5141 65.0436 15.072 65.2417Z" fill="white"/>
<path d="M29.9096 51.5537C28.8995 50.936 27.9842 50.6857 27.1637 50.8029C26.3515 50.9063 25.6251 51.4843 24.9846 52.5367L24.76 52.9057C24.6935 53.015 24.6228 53.1312 24.5479 53.2542C24.473 53.3772 24.416 53.5017 24.3767 53.6278C24.3345 53.7895 24.3419 53.9159 24.3988 54.007C24.4557 54.0981 24.5593 54.1895 24.7094 54.2813C25.5011 54.7655 26.2887 55.2564 27.0721 55.7542C27.8501 56.23 28.6418 56.7142 29.4472 57.2066L30.2867 57.72C30.3586 57.6327 30.4304 57.5453 30.5023 57.458C30.5606 57.3623 30.6188 57.2667 30.677 57.171C31.1096 56.4603 31.4145 55.7747 31.5917 55.1141C31.7637 54.4316 31.7311 53.7927 31.4939 53.1976C31.2431 52.5941 30.715 52.0461 29.9096 51.5537ZM44.0537 53.0574C44.1765 53.1325 44.2014 53.3071 44.1282 53.5812C44.0497 53.8333 43.9216 54.1207 43.744 54.4434C43.5883 54.7608 43.4272 55.0561 43.2609 55.3295C43.1081 55.6112 43.0027 55.7999 42.9444 55.8955C42.6283 56.4149 42.2867 56.853 41.9197 57.21C41.5609 57.5532 41.0417 57.7139 40.3619 57.6921C38.8872 57.653 37.4073 57.592 35.9219 57.5089C34.423 57.4174 32.9308 57.3302 31.4455 57.2471L30.9009 58.0956C31.9793 58.755 33.0645 59.4186 34.1565 60.0864C35.2432 60.7322 36.3325 61.3889 37.4245 62.0567C37.5474 62.1318 37.691 62.1728 37.8555 62.1795C38.0063 62.178 38.1232 62.1089 38.2064 61.9722C38.3063 61.8082 38.3993 61.64 38.4854 61.4676C38.5716 61.2953 38.6646 61.1271 38.7644 60.9631C38.806 60.8947 38.8912 60.8625 39.02 60.8662C39.1435 60.848 39.2394 60.8597 39.3077 60.9014C39.4032 60.9599 39.4685 61.0373 39.5035 61.1337C39.5467 61.2164 39.5393 61.3056 39.481 61.4013C39.4062 61.5243 39.3286 61.6363 39.2485 61.7373C39.1683 61.8383 39.0949 61.9435 39.0283 62.0528C38.8513 62.2821 38.6879 62.5198 38.5382 62.7658C38.3884 63.0118 38.2387 63.2579 38.089 63.5039C37.7313 64.0916 37.3831 64.6945 37.0444 65.3125C36.714 65.9169 36.3658 66.5198 35.9997 67.1212C35.8583 67.3535 35.6648 67.3946 35.4191 67.2443C35.3235 67.1859 35.2734 67.099 35.2687 66.9836C35.2504 66.8599 35.2703 66.7502 35.3285 66.6545C35.4117 66.5178 35.5017 66.3853 35.5986 66.257C35.6954 66.1286 35.7854 65.9961 35.8686 65.8595C35.9851 65.6681 36.0508 65.4832 36.0657 65.3048C36.0806 65.1264 35.9789 64.9704 35.7605 64.8369L23.1068 57.0991C22.9021 56.9739 22.7406 56.9314 22.6225 56.9717C22.4907 57.0036 22.3665 57.1153 22.2501 57.3066C22.1669 57.4433 22.0905 57.5841 22.021 57.7292C21.9514 57.8742 21.8751 58.015 21.7919 58.1517C21.7337 58.2474 21.6372 58.329 21.5024 58.3966C21.3759 58.4506 21.258 58.4441 21.1488 58.3774C20.8895 58.2188 20.8513 57.9891 21.0343 57.6884C21.1175 57.5518 21.2075 57.4193 21.3044 57.2909C21.3875 57.1543 21.4775 57.0218 21.5744 56.8934C21.7544 56.6284 21.9386 56.3566 22.1269 56.0779C22.3016 55.7909 22.4721 55.5107 22.6385 55.2374C23.0378 54.5813 23.4125 53.9196 23.7625 53.2522C24.1072 52.5627 24.475 51.8968 24.866 51.2545C25.207 50.6941 25.611 50.1534 26.0779 49.6325C26.5311 49.1032 27.0413 48.665 27.6085 48.3179C28.1839 47.9572 28.7925 47.7573 29.4343 47.7184C30.0625 47.6712 30.7178 47.8562 31.4003 48.2736C32.2329 48.7828 32.7978 49.3626 33.0949 50.0132C33.4003 50.65 33.5107 51.3458 33.426 52.1004C33.3496 52.8414 33.1619 53.6268 32.8628 54.4567C34.3209 54.5231 35.7875 54.5291 37.2628 54.4748C38.7381 54.4205 40.204 54.351 41.6603 54.2663C42.0361 54.2336 42.4179 54.1294 42.8056 53.954C43.1797 53.7701 43.4625 53.521 43.6538 53.2067C43.712 53.111 43.7673 53.051 43.8195 53.0267C43.8664 52.9804 43.9445 52.9906 44.0537 53.0574Z" fill="white"/>
<path d="M46.7669 38.5973C46.1063 37.9685 45.3742 37.4152 44.5706 36.9374C43.778 36.4479 42.9553 36.1066 42.1025 35.9133C41.2497 35.72 40.408 35.7361 39.5773 35.9615C38.735 36.1758 37.9452 36.6721 37.2079 37.4503C36.4596 38.2401 35.7397 39.0348 35.0481 39.8345L45.6867 49.9616C45.988 50.2485 46.2464 50.4061 46.4619 50.4345C46.6774 50.4629 46.9392 50.3146 47.2474 49.9893C47.6215 49.5944 47.9948 49.1656 48.3672 48.7027C48.7506 48.2283 49.0769 47.7326 49.3462 47.2158C49.6149 46.6763 49.7761 46.134 49.8299 45.5887C49.9309 44.249 49.6833 42.9751 49.0869 41.7667C48.4905 40.5584 47.7172 39.5019 46.7669 38.5973ZM48.917 35.8395C49.6587 36.5455 50.2842 37.3508 50.7937 38.2555C51.3031 39.1601 51.6613 40.1197 51.8684 41.1341C52.0748 42.1259 52.0895 43.1339 51.9125 44.1583C51.7939 44.8185 51.5629 45.5043 51.2195 46.2157C50.8645 46.916 50.4522 47.5838 49.9825 48.2192C49.5238 48.8429 49.0634 49.3986 48.6012 49.8864C48.2161 50.2929 47.8135 50.6829 47.3936 51.0563C46.9963 51.4292 46.605 51.8188 46.2199 52.2254C45.9447 52.5157 45.6641 52.8119 45.378 53.1139C45.1145 53.4153 44.8513 53.728 44.5883 54.0521C44.4899 54.1792 44.3911 54.2951 44.2921 54.3996C44.2046 54.5152 44.1114 54.6252 44.0123 54.7298C43.8143 54.9388 43.6225 54.9551 43.4371 54.7786C43.3212 54.6683 43.2954 54.5443 43.3597 54.4067C43.4239 54.2691 43.5108 54.1308 43.6203 53.9921C43.7181 53.8422 43.7885 53.7214 43.8314 53.6297C43.9257 53.344 43.9019 53.0783 43.7599 52.8327C43.6179 52.5871 43.4542 52.376 43.2688 52.1995C42.2142 51.1956 41.1654 50.1973 40.1224 49.2044C39.0795 48.2115 38.0365 47.2187 36.9935 46.2258C36.3908 45.6522 35.794 45.0841 35.203 44.5214C34.6114 43.9362 34.0036 43.3796 33.3795 42.8519C33.3563 42.8298 33.3045 42.7915 33.2239 42.7369C33.1428 42.6597 33.0965 42.6156 33.0849 42.6045C32.9128 42.507 32.732 42.5117 32.5426 42.6185C32.3532 42.7254 32.1818 42.8714 32.0283 43.0567C31.8632 43.2309 31.7257 43.3761 31.6156 43.4922C31.5276 43.5852 31.4277 43.6557 31.3159 43.7039C31.1925 43.7411 31.0729 43.7045 30.957 43.5942C30.7368 43.3846 30.7312 43.1695 30.9403 42.9488C31.2154 42.6584 31.4966 42.3849 31.7839 42.1282C32.0706 41.8489 32.3515 41.564 32.6266 41.2737C33.4079 40.449 34.1603 39.5968 34.8837 38.717C35.6065 37.8145 36.3585 36.951 37.1398 36.1263C38.3283 34.872 39.5951 34.0234 40.9402 33.5808C42.2852 33.1382 43.6353 33.109 44.9904 33.4933C46.3566 33.866 47.6654 34.648 48.917 35.8395Z" fill="white"/>
<path d="M64.7865 31.9205C64.9307 32.132 65.053 32.3682 65.1534 32.6292C65.258 32.8678 65.3737 33.1086 65.5005 33.3514C65.6453 33.6207 65.788 33.9011 65.9286 34.1926C66.0825 34.4751 66.2363 34.7576 66.3901 35.0401C66.4947 35.2788 66.5344 35.4649 66.5093 35.5984C66.4752 35.7188 66.3459 35.8558 66.1215 36.0095C64.775 36.9317 63.4239 37.8472 62.0684 38.7561C60.7039 39.6518 59.3484 40.5607 58.0019 41.4829C57.5398 41.7993 57.0913 42.1356 56.6563 42.4916C56.2303 42.8609 55.7863 43.2038 55.3243 43.5202C55.0999 43.6739 54.9111 43.6384 54.7579 43.4136C54.6047 43.1889 54.6271 43.0087 54.8251 42.8731C55.0141 42.7243 55.2118 42.5598 55.4182 42.3796C55.6642 42.1724 55.8078 41.9286 55.8491 41.6482C55.8945 41.3456 55.728 40.9167 55.3495 40.3614L48.0636 29.6723C47.9194 29.4608 47.7401 29.283 47.5258 29.1389C47.3246 28.9858 47.092 28.9997 46.828 29.1805C46.6695 29.289 46.5156 29.4041 46.3662 29.5258C46.2078 29.6343 46.0494 29.7428 45.891 29.8513C45.561 30.0773 45.2878 30.0316 45.0715 29.7143C44.9634 29.5557 44.9486 29.4204 45.0272 29.3084C45.0968 29.1832 45.1975 29.0754 45.3295 28.9849C45.7124 28.7228 46.0976 28.4783 46.4853 28.2516C46.8639 28.0117 47.238 27.7652 47.6077 27.5121C48.8486 26.6622 50.085 25.8058 51.3168 24.9428C52.5397 24.0665 53.7716 23.2035 55.0125 22.3536C55.2501 22.1909 55.4832 22.0216 55.7118 21.8456C55.9314 21.6565 56.151 21.4673 56.3706 21.2781C56.5412 21.4716 56.7118 21.665 56.8824 21.8585C57.0662 22.0429 57.2434 22.2318 57.414 22.4253C57.6248 22.6493 57.8578 22.8776 58.1131 23.11C58.3815 23.3334 58.6059 23.5773 58.7861 23.8417C58.8942 24.0004 58.9183 24.1778 58.8584 24.374C58.7895 24.5569 58.6824 24.6981 58.5372 24.7976C58.2204 25.0145 57.9146 25.0204 57.6197 24.8151C56.9981 24.3293 56.3497 24.0171 55.6743 23.8785C55.0031 23.7176 54.3176 23.8767 53.618 24.3559L50.0537 26.7968L54.0278 32.6272C54.5295 32.2837 55.0134 31.9426 55.4796 31.6039C55.9591 31.2562 56.4295 30.8952 56.8909 30.521C57.3523 30.1469 57.7669 29.7466 58.1346 29.3202C58.2924 29.154 58.4477 28.97 58.6007 28.7683C58.7668 28.5576 58.9423 28.3889 59.1271 28.2623C59.2856 28.1539 59.4143 28.1723 59.5135 28.3178C59.5765 28.4103 59.6448 28.5672 59.7181 28.7884C59.8047 29.0007 59.8663 29.1621 59.903 29.2727C59.9541 29.4898 59.9602 29.6408 59.9212 29.7256C59.8733 29.7973 59.7635 29.8919 59.5918 30.0094C59.275 30.2264 58.9513 30.419 58.6206 30.5873C58.0829 30.8779 57.5522 31.1929 57.0283 31.5323C56.4955 31.8584 55.9716 32.1978 55.4568 32.5504C55.1663 32.7493 54.9762 32.9958 54.8863 33.2901C54.8006 33.5621 54.8659 33.8568 55.0822 34.1741L58.4075 39.0525C58.6238 39.3698 58.8166 39.5675 58.9859 39.6454C59.1684 39.7144 59.4247 39.6358 59.7547 39.4098C60.1112 39.1657 60.5072 38.8945 60.9428 38.5961C61.3785 38.2978 61.8072 37.9751 62.229 37.6281C62.664 37.272 63.0344 36.8922 63.3403 36.4888C63.6463 36.0854 63.8411 35.661 63.9249 35.2158C63.9961 34.8374 64.0112 34.3907 63.9701 33.8759C63.929 33.3611 63.8753 32.913 63.809 32.5317C63.7669 32.3279 63.7608 32.1769 63.7908 32.0788C63.8117 31.9675 63.908 31.8531 64.0796 31.7356C64.238 31.6271 64.3707 31.5944 64.4775 31.6376C64.5844 31.6808 64.6874 31.7751 64.7865 31.9205Z" fill="white"/>
<path d="M76.4703 13.189C76.5862 13.47 76.5037 13.6687 76.2229 13.7851C76.1047 13.8342 75.9834 13.8758 75.859 13.91C75.7347 13.9442 75.6134 13.9858 75.4951 14.0348C75.436 14.0593 75.3725 14.0943 75.3047 14.1397C75.2308 14.1703 75.1569 14.201 75.083 14.2316C74.9352 14.2929 74.8788 14.4288 74.9138 14.6395C74.9426 14.8354 75.0028 15.0442 75.0944 15.2661C75.1798 15.4732 75.2408 15.6211 75.2774 15.7098L80.9792 29.532C81.0219 29.6355 81.0438 29.7304 81.0447 29.8166C81.0604 29.8967 81.0048 29.9717 80.8779 30.0416C80.6832 30.1569 80.4645 30.2562 80.2219 30.3394C79.9854 30.4375 79.7668 30.5367 79.566 30.6373C79.2891 30.3017 78.9666 30.0024 78.5984 29.7393C78.245 29.4701 77.883 29.2218 77.5123 28.9944C75.3348 27.576 73.1036 26.2579 70.8185 25.04C68.5481 23.816 66.3156 22.5157 64.1208 21.1392C64.9445 23.1359 65.7608 25.1358 66.5697 27.1387C67.3873 29.1207 68.208 31.11 69.0317 33.1068C69.0866 33.2399 69.1715 33.4039 69.2865 33.5987C69.4102 33.7726 69.5607 33.8228 69.7381 33.7493C69.945 33.6636 70.1489 33.5704 70.3497 33.4698C70.5653 33.3632 70.7692 33.27 70.9613 33.1904C71.0796 33.1414 71.1779 33.1699 71.2563 33.276C71.3433 33.3611 71.4021 33.4407 71.4326 33.5146C71.4753 33.6182 71.4854 33.7266 71.4629 33.8398C71.4552 33.9469 71.3922 34.025 71.2739 34.074C71.0227 34.1782 70.7653 34.2675 70.5018 34.3421C70.2383 34.4166 69.981 34.506 69.7297 34.6101C69.3897 34.751 69.0454 34.9024 68.6968 35.0642C68.3421 35.2112 68.0008 35.37 67.6731 35.5405C67.5461 35.6104 67.4161 35.6729 67.2831 35.728C67.171 35.7918 67.0558 35.8482 66.9375 35.8973C66.6419 36.0198 66.43 35.9257 66.3019 35.6151C66.2531 35.4968 66.2578 35.3823 66.316 35.2716C66.368 35.1461 66.4458 35.0619 66.5493 35.019C66.6971 34.9577 66.8436 34.9143 66.9888 34.8888C67.128 34.8484 67.2714 34.7976 67.4192 34.7364C67.6409 34.6445 67.7913 34.5475 67.8704 34.4455C67.9581 34.3225 67.9471 34.1279 67.8373 33.8617C66.9953 31.8205 66.168 29.7732 65.3556 27.7198C64.5579 25.6603 63.7381 23.61 62.8961 21.5688C62.8168 21.3765 62.7405 21.1916 62.6673 21.0141C62.5941 20.8367 62.5178 20.6518 62.4385 20.4595C62.3592 20.2672 62.2429 20.0902 62.0897 19.9286C61.9512 19.7608 61.7638 19.7259 61.5273 19.8239C61.3499 19.8975 61.1682 19.9814 60.9822 20.0759C60.8109 20.1642 60.6292 20.2481 60.437 20.3278C60.1858 20.4319 60.0022 20.3435 59.8862 20.0624C59.7764 19.7962 59.8545 19.608 60.1206 19.4977C60.5049 19.3384 60.8922 19.1865 61.2826 19.042C61.673 18.8976 62.053 18.7487 62.4225 18.5956C62.7625 18.4547 63.1024 18.3138 63.4424 18.1729C63.791 18.0111 64.1353 17.8597 64.4753 17.7188C65.8355 18.5406 67.2247 19.3071 68.6431 20.0183C70.0701 20.7085 71.4681 21.454 72.8369 22.255C73.641 22.7357 74.4525 23.2134 75.2714 23.6881C76.0903 24.1627 76.9135 24.6269 77.741 25.0806C77.0943 23.5128 76.4475 21.9449 75.8008 20.3771C75.1688 18.8031 74.5294 17.2322 73.8827 15.6644C73.8278 15.5312 73.7385 15.3777 73.6148 15.2038C73.4998 15.009 73.3463 14.9514 73.1541 15.0311L72.5555 15.2792C72.4668 15.3159 72.3842 15.3675 72.3078 15.4338C72.2252 15.4853 72.1395 15.5295 72.0509 15.5663C71.77 15.6826 71.5655 15.5855 71.4374 15.2749C71.3642 15.0974 71.3732 14.9725 71.4645 14.9C71.5496 14.8127 71.6661 14.7385 71.8139 14.6772C72.1095 14.5547 72.4008 14.4426 72.6878 14.341C72.9895 14.2333 73.2807 14.1212 73.5616 14.0048C73.9459 13.8456 74.3241 13.6715 74.6962 13.4826C75.0831 13.2877 75.4686 13.1105 75.8529 12.9512C75.9712 12.9022 76.093 12.9037 76.2183 12.9557C76.3375 12.9929 76.4215 13.0707 76.4703 13.189Z" fill="white"/>
<path d="M95.0498 21.2474L88.7812 21.987L88.5657 20.1516L94.8342 19.412L95.0498 21.2474Z" fill="white"/>
<path d="M118.496 25.4412C118.368 26.3602 118.054 27.0996 117.555 27.6595C117.059 28.2036 116.445 28.6019 115.715 28.8544C115.001 29.1092 114.238 29.2521 113.426 29.283C112.613 29.314 111.827 29.2758 111.067 29.1687C110.48 29.086 109.93 28.9196 109.416 28.6694C108.899 28.435 108.378 28.1757 107.853 27.8916C107.597 27.7586 107.335 27.6651 107.068 27.6113C106.819 27.5439 106.552 27.4901 106.267 27.4499C106.273 27.0629 106.277 26.6839 106.281 26.3127C106.287 25.9258 106.285 25.5377 106.275 25.1485C106.281 24.8746 106.278 24.6076 106.266 24.3474C106.254 24.0872 106.266 23.8303 106.301 23.5768C106.332 23.355 106.397 23.1783 106.497 23.0469C106.612 22.9177 106.788 22.8698 107.026 22.9033C107.248 22.9346 107.407 23.0056 107.505 23.1163C107.62 23.2134 107.696 23.3694 107.73 23.5843C107.801 23.8851 107.847 24.1906 107.868 24.5005C107.905 24.8128 107.958 25.1272 108.027 25.4439C108.191 26.2266 108.544 26.8822 109.084 27.4107C109.639 27.9414 110.329 28.2649 111.153 28.381C112.262 28.5373 113.154 28.3399 113.829 27.7887C114.522 27.2239 114.945 26.3949 115.099 25.3016C115.188 24.6678 115.126 24.126 114.915 23.676C114.706 23.2103 114.408 22.7967 114.023 22.4353C113.637 22.074 113.218 21.724 112.764 21.3854C112.34 21.0672 111.906 20.7636 111.462 20.4748C111.018 20.186 110.583 19.8903 110.157 19.5879C109.688 19.2471 109.235 18.844 108.8 18.3786C108.382 17.8997 108.052 17.3764 107.808 16.8089C107.583 16.2277 107.513 15.6282 107.6 15.0102C107.747 13.9645 108.137 13.1389 108.771 12.5335C109.421 11.9303 110.198 11.5227 111.1 11.3105C112.018 11.1006 112.944 11.0615 113.879 11.1933C114.481 11.2781 115.047 11.4468 115.577 11.6992C116.125 11.9381 116.653 12.2064 117.161 12.5041C117.326 12.5921 117.478 12.662 117.616 12.7137C117.77 12.7678 117.934 12.8071 118.109 12.8316C118.235 12.8495 118.354 12.8662 118.465 12.8819C118.578 12.8817 118.691 12.8814 118.804 12.8812C118.781 13.395 118.765 13.9098 118.757 14.4258C118.75 14.9418 118.742 15.4577 118.734 15.9737C118.739 16.0551 118.734 16.1434 118.721 16.2385C118.726 16.3199 118.723 16.4003 118.712 16.4795C118.68 16.7013 118.604 16.9006 118.482 17.0773C118.363 17.2382 118.168 17.2997 117.899 17.2617C117.693 17.2327 117.549 17.164 117.467 17.0555C117.386 16.947 117.318 16.8001 117.263 16.6146C117.142 16.0966 117.027 15.5877 116.92 15.0878C116.812 14.5878 116.621 14.1085 116.346 13.6496C116.059 13.1568 115.669 12.7706 115.175 12.4909C114.684 12.1954 114.161 12.0085 113.606 11.9304C113.067 11.8544 112.595 11.9413 112.188 12.191C111.784 12.4249 111.462 12.7592 111.223 13.1942C110.985 13.6291 110.831 14.0922 110.762 14.5834C110.655 15.3439 110.77 15.966 111.106 16.4497C111.46 16.9197 111.914 17.3714 112.467 17.8049C112.775 18.0261 113.083 18.2473 113.392 18.4684C113.718 18.676 114.036 18.8825 114.347 19.0878C115.088 19.5639 115.794 20.1159 116.465 20.7437C117.155 21.358 117.695 22.0562 118.086 22.8384C118.495 23.6071 118.632 24.4747 118.496 25.4412Z" fill="white"/>
<path d="M139.716 19.4887C139.679 19.5944 139.604 19.6868 139.492 19.7659C139.4 19.8352 139.293 19.8486 139.172 19.8061C138.976 19.7369 138.78 19.6678 138.584 19.5987C138.393 19.5145 138.199 19.4378 138.003 19.3687C137.807 19.2996 137.652 19.3552 137.538 19.5355C137.429 19.7008 137.348 19.8589 137.295 20.0099C137.269 20.0854 137.24 20.1684 137.208 20.259C137.196 20.3398 137.178 20.418 137.151 20.4934C136.669 21.8674 136.19 23.2338 135.714 24.5927C135.252 25.9569 134.783 27.3185 134.307 28.6773C133.608 30.6703 132.564 32.0754 131.176 32.8924C129.792 33.6943 128.067 33.731 126 33.0026C123.962 32.2849 122.55 31.2359 121.762 29.8558C120.974 28.4756 120.951 26.7286 121.692 24.6148L122.05 23.5957C122.505 22.2972 122.96 20.9987 123.416 19.7002C123.892 18.3919 124.36 17.081 124.82 15.7674C124.868 15.6316 124.916 15.4451 124.966 15.2079C125.02 14.9557 124.96 14.7902 124.784 14.7113C124.593 14.6271 124.389 14.5553 124.173 14.4959C123.971 14.4419 123.772 14.3804 123.576 14.3112C123.47 14.274 123.386 14.2017 123.322 14.0943C123.263 13.9718 123.252 13.8577 123.289 13.7521C123.331 13.6313 123.406 13.5389 123.513 13.4749C123.636 13.4162 123.757 13.4081 123.878 13.4506C124.059 13.5144 124.23 13.5831 124.391 13.6567C124.566 13.7356 124.735 13.8118 124.895 13.8854C125.237 14.0228 125.579 14.1602 125.921 14.2976C126.268 14.4198 126.607 14.5395 126.939 14.6564C127.286 14.7787 127.618 14.8957 127.935 15.0073C128.267 15.1243 128.602 15.2337 128.939 15.3356C129.156 15.3949 129.365 15.4516 129.566 15.5056C129.788 15.5499 129.997 15.6065 130.193 15.6757C130.314 15.7182 130.389 15.7954 130.417 15.9073C130.461 16.0244 130.462 16.1434 130.419 16.2642C130.382 16.3699 130.31 16.4547 130.203 16.5187C130.116 16.573 130.012 16.5788 129.892 16.5363C129.695 16.4672 129.502 16.3905 129.311 16.3063C129.135 16.2274 128.949 16.1534 128.753 16.0843C128.602 16.0311 128.48 16.0645 128.387 16.1844C128.3 16.2893 128.227 16.3994 128.17 16.5149C128.07 16.7511 127.978 16.9901 127.893 17.2316C127.823 17.4785 127.746 17.7228 127.661 17.9644C127.185 19.3232 126.693 20.6768 126.187 22.025C125.7 23.3635 125.219 24.7122 124.742 26.071C124.515 26.7203 124.32 27.3473 124.159 27.9521C124.018 28.5471 123.974 29.1083 124.027 29.6357C124.079 30.1631 124.287 30.6349 124.649 31.0511C125.027 31.4726 125.623 31.8269 126.438 32.114C127.525 32.4968 128.48 32.5533 129.304 32.2837C130.132 31.999 130.833 31.4995 131.406 30.7851C131.984 30.0557 132.442 29.2079 132.781 28.2416C133.305 26.7468 133.799 25.2414 134.263 23.7254C134.727 22.2093 135.221 20.7039 135.745 19.2092C135.824 18.9827 135.824 18.8131 135.745 18.7004C135.671 18.5726 135.529 18.4715 135.318 18.397C135.167 18.3439 135.013 18.2982 134.857 18.2602C134.716 18.2274 134.562 18.1818 134.396 18.1233C134.291 18.0861 134.206 18.0138 134.142 17.9064C134.078 17.799 134.067 17.6849 134.109 17.5641C134.151 17.4433 134.226 17.3509 134.333 17.2869C134.456 17.2282 134.577 17.2202 134.698 17.2627C134.939 17.3478 135.168 17.4453 135.384 17.5552C135.605 17.6501 135.833 17.7476 136.07 17.8477C136.215 17.916 136.364 17.9767 136.514 18.0299C136.665 18.0831 136.816 18.1362 136.967 18.1894C137.133 18.2479 137.299 18.3064 137.465 18.3649C137.646 18.4287 137.822 18.4822 137.994 18.5256C138.235 18.6107 138.474 18.678 138.711 18.7276C138.963 18.7824 139.21 18.8524 139.452 18.9375C139.723 19.0332 139.811 19.2169 139.716 19.4887Z" fill="white"/>
<path d="M156.54 30.1426C156.38 30.4012 156.171 30.4504 155.913 30.2901C155.804 30.2226 155.699 30.1483 155.599 30.0672C155.499 29.9861 155.394 29.9118 155.285 29.8444C155.231 29.8106 155.166 29.7795 155.089 29.7509C155.021 29.7087 154.953 29.6665 154.885 29.6243C154.749 29.54 154.606 29.5736 154.456 29.7253C154.315 29.8633 154.181 30.0345 154.055 30.2387C153.937 30.4292 153.853 30.5654 153.802 30.647L145.946 43.3684C145.887 43.4637 145.823 43.537 145.754 43.5881C145.698 43.6478 145.605 43.6464 145.474 43.5841C145.267 43.4932 145.059 43.3735 144.85 43.2249C144.632 43.0899 144.424 42.9702 144.225 42.8657C144.335 42.4443 144.389 42.0069 144.387 41.5537C144.398 41.1089 144.388 40.6692 144.355 40.2348C144.231 37.6345 143.994 35.0491 143.645 32.4785C143.309 29.9164 143.057 27.3404 142.889 24.7505C141.754 26.5882 140.612 28.4218 139.463 30.2511C138.337 32.0752 137.206 33.9062 136.071 35.744C135.995 35.8665 135.912 36.0315 135.822 36.2389C135.753 36.4412 135.8 36.593 135.964 36.6942C136.154 36.8123 136.348 36.9236 136.547 37.0281C136.76 37.141 136.954 37.2523 137.131 37.362C137.24 37.4295 137.274 37.5261 137.234 37.6519C137.216 37.7725 137.186 37.8668 137.144 37.9349C137.085 38.0302 137.003 38.1018 136.898 38.1497C136.807 38.2061 136.707 38.2005 136.598 38.133C136.367 37.9896 136.144 37.8326 135.93 37.662C135.716 37.4913 135.493 37.3343 135.262 37.1909C134.949 36.9968 134.626 36.8054 134.291 36.6165C133.965 36.4141 133.637 36.2294 133.307 36.0626C133.176 36.0003 133.05 35.9312 132.927 35.8553C132.81 35.8014 132.697 35.7407 132.589 35.6732C132.317 35.5045 132.269 35.2772 132.446 34.9913C132.513 34.8824 132.608 34.8193 132.732 34.8018C132.864 34.7707 132.977 34.7847 133.073 34.8438C133.209 34.9282 133.329 35.0219 133.435 35.1251C133.549 35.2146 133.674 35.3016 133.81 35.3859C134.014 35.5125 134.18 35.578 134.309 35.5826C134.46 35.5821 134.611 35.4592 134.762 35.2142C135.922 33.3356 137.096 31.4655 138.283 29.6037C139.485 27.7504 140.665 25.8845 141.825 24.0059C141.935 23.8289 142.04 23.6588 142.141 23.4954C142.242 23.3321 142.347 23.1619 142.456 22.9849C142.565 22.8079 142.641 22.6099 142.682 22.3907C142.737 22.18 142.655 22.0072 142.438 21.8722C142.275 21.771 142.101 21.6723 141.915 21.5763C141.744 21.4886 141.57 21.39 141.393 21.2803C141.162 21.1369 141.126 20.9359 141.286 20.6772C141.437 20.4322 141.635 20.3856 141.88 20.5375C142.234 20.7568 142.583 20.9829 142.928 21.2159C143.273 21.4489 143.615 21.6708 143.955 21.8817C144.268 22.0757 144.581 22.2697 144.893 22.4638C145.228 22.6526 145.552 22.8441 145.864 23.0381C145.994 24.6249 146.185 26.2029 146.438 27.7723C146.714 29.3364 146.927 30.9093 147.078 32.4909C147.159 33.426 147.247 34.3652 147.341 35.3088C147.435 36.2523 147.54 37.1932 147.657 38.1315C148.548 36.6886 149.439 35.2456 150.33 33.8026C151.235 32.3681 152.133 30.9293 153.024 29.4863C153.1 29.3638 153.172 29.2014 153.241 28.9991C153.331 28.7917 153.288 28.6331 153.111 28.5234L152.561 28.1818C152.479 28.1311 152.389 28.0941 152.291 28.0708C152.201 28.0337 152.115 27.9899 152.033 27.9393C151.775 27.779 151.734 27.556 151.911 27.2701C152.012 27.1067 152.118 27.041 152.23 27.0728C152.35 27.091 152.479 27.1423 152.615 27.2267C152.886 27.3954 153.147 27.5667 153.397 27.7406C153.661 27.9229 153.922 28.0942 154.18 28.2545C154.533 28.4739 154.895 28.6796 155.266 28.8717C155.649 29.0722 156.018 29.2822 156.372 29.5015C156.48 29.569 156.55 29.6689 156.581 29.8012C156.621 29.9199 156.607 30.0337 156.54 30.1426Z" fill="white"/>
<path d="M162.122 47.6623C162.76 47.0101 163.323 46.285 163.812 45.4871C164.312 44.7004 164.666 43.8811 164.872 43.0295C165.078 42.1778 165.075 41.3339 164.863 40.4978C164.662 39.6503 164.179 38.851 163.414 38.0999C162.638 37.3376 161.856 36.6036 161.069 35.8981L150.803 46.4021C150.512 46.6996 150.351 46.9561 150.319 47.1717C150.287 47.3872 150.431 47.652 150.751 47.9659C151.139 48.347 151.561 48.7278 152.017 49.1083C152.484 49.5 152.974 49.8348 153.485 50.1127C154.019 50.3904 154.558 50.5605 155.101 50.6229C156.436 50.7451 157.71 50.5168 158.925 49.938C160.139 49.3592 161.205 48.6006 162.122 47.6623ZM164.84 49.8603C164.124 50.5926 163.311 51.207 162.401 51.7034C161.491 52.1999 160.528 52.5439 159.513 52.7355C158.52 52.927 157.515 52.926 156.495 52.7325C155.839 52.6033 155.158 52.3611 154.454 52.0058C153.761 51.6391 153.101 51.2154 152.474 50.7348C151.859 50.2653 151.312 49.7952 150.833 49.3243C150.433 48.932 150.05 48.5224 149.684 48.0957C149.318 47.6917 148.936 47.2935 148.536 46.9011C148.251 46.6209 147.96 46.335 147.663 46.0435C147.366 45.7747 147.058 45.506 146.739 45.2374C146.614 45.1367 146.5 45.036 146.397 44.9351C146.283 44.8456 146.175 44.7504 146.072 44.6495C145.867 44.4478 145.853 44.2553 146.032 44.0722C146.144 43.9578 146.268 43.9339 146.405 44.0005C146.541 44.067 146.677 44.1563 146.814 44.2681C146.962 44.3686 147.081 44.441 147.172 44.4853C147.456 44.5844 147.721 44.5647 147.968 44.4262C148.216 44.2877 148.429 44.127 148.608 43.9439C149.625 42.9026 150.637 41.8671 151.644 40.8373C152.651 39.8075 153.657 38.7777 154.664 37.7479C155.245 37.1529 155.821 36.5636 156.391 35.98C156.984 35.3962 157.549 34.7958 158.085 34.1786C158.107 34.1557 158.146 34.1043 158.202 34.0244C158.28 33.9443 158.325 33.8986 158.336 33.8871C158.436 33.7162 158.434 33.535 158.331 33.3435C158.227 33.152 158.084 32.9779 157.902 32.8211C157.73 32.653 157.588 32.5128 157.474 32.4007C157.382 32.3111 157.313 32.2098 157.267 32.097C157.232 31.9728 157.27 31.8534 157.382 31.739C157.594 31.5216 157.809 31.5194 158.026 31.7324C158.311 32.0127 158.58 32.2988 158.832 32.5907C159.106 32.8824 159.386 33.1684 159.671 33.4487C160.482 34.2446 161.32 35.012 162.186 35.7507C163.076 36.4892 163.925 37.2564 164.736 38.0524C165.969 39.2631 166.796 40.546 167.216 41.901C167.637 43.256 167.645 44.6095 167.241 45.9617C166.848 47.325 166.048 48.6246 164.84 49.8603Z" fill="white"/>
<path d="M184.355 69.2861C184.085 69.4256 183.88 69.3601 183.741 69.0898C183.683 68.9759 183.631 68.8584 183.587 68.7372C183.543 68.616 183.491 68.4985 183.433 68.3847C183.404 68.3277 183.364 68.2674 183.313 68.2036C183.276 68.1324 183.24 68.0613 183.203 67.9901C183.13 67.8478 182.99 67.803 182.783 67.8557C182.591 67.9011 182.388 67.9789 182.175 68.089C181.976 68.1918 181.833 68.2652 181.748 68.3092L168.463 75.1692C168.363 75.2206 168.271 75.2504 168.185 75.2586C168.106 75.2811 168.027 75.232 167.947 75.1112C167.816 74.9267 167.7 74.7169 167.597 74.4819C167.48 74.2542 167.363 74.0444 167.246 73.8525C167.557 73.5478 167.829 73.2006 168.06 72.811C168.299 72.4356 168.516 72.0533 168.712 71.6641C169.944 69.3712 171.072 67.0331 172.096 64.6497C173.127 62.2806 174.237 59.9427 175.426 57.636C173.507 58.627 171.584 59.6109 169.658 60.5877C167.753 61.5713 165.841 62.5587 163.921 63.5497C163.793 63.6157 163.637 63.7144 163.453 63.8456C163.29 63.9837 163.252 64.1382 163.34 64.309C163.442 64.5082 163.552 64.7038 163.669 64.8956C163.792 65.1018 163.902 65.2973 163.997 65.4823C164.056 65.5962 164.035 65.6967 163.936 65.7839C163.859 65.8779 163.784 65.9433 163.713 65.98C163.614 66.0314 163.507 66.0507 163.392 66.0378C163.285 66.0392 163.202 65.9829 163.143 65.8691C163.019 65.6271 162.909 65.3779 162.813 65.1213C162.717 64.8647 162.607 64.6154 162.483 64.3735C162.315 64.0462 162.136 63.7154 161.946 63.3812C161.77 63.0397 161.584 62.7126 161.388 62.4C161.308 62.2793 161.235 62.1549 161.169 62.0268C161.096 61.9203 161.03 61.8101 160.972 61.6962C160.826 61.4116 160.902 61.1922 161.2 61.0381C161.314 60.9794 161.428 60.9743 161.543 61.023C161.673 61.0644 161.763 61.1348 161.814 61.2345C161.887 61.3768 161.942 61.5193 161.98 61.6621C162.031 61.7975 162.094 61.9363 162.167 62.0786C162.277 62.2921 162.385 62.434 162.494 62.5042C162.623 62.5813 162.816 62.5539 163.072 62.4217C165.034 61.4087 167.003 60.4099 168.979 59.4253C170.963 58.455 172.936 57.4633 174.898 56.4503C175.083 56.3549 175.261 56.2631 175.431 56.175C175.602 56.0869 175.779 55.9952 175.964 55.8997C176.149 55.8043 176.316 55.6733 176.464 55.5067C176.619 55.3544 176.639 55.1643 176.522 54.9367C176.434 54.7659 176.335 54.5917 176.226 54.414C176.124 54.2506 176.026 54.0764 175.931 53.8914C175.806 53.6495 175.879 53.4588 176.149 53.3193C176.405 53.1871 176.599 53.2492 176.731 53.5053C176.921 53.8753 177.104 54.249 177.28 54.6263C177.456 55.0037 177.635 55.3702 177.818 55.726C177.986 56.0533 178.154 56.3806 178.322 56.7079C178.512 57.0421 178.691 57.3728 178.859 57.7001C178.154 59.127 177.505 60.5782 176.914 62.0538C176.345 63.5362 175.718 64.9943 175.034 66.4281C174.622 67.2712 174.213 68.1214 173.808 68.9787C173.403 69.836 173.009 70.6968 172.626 71.561C174.133 70.7829 175.64 70.0048 177.147 69.2266C178.661 68.4628 180.172 67.6917 181.679 66.9136C181.806 66.8476 181.952 66.7455 182.115 66.6073C182.299 66.4761 182.344 66.318 182.249 66.133L181.953 65.5567C181.909 65.4713 181.851 65.3932 181.778 65.3225C181.72 65.2445 181.669 65.1628 181.625 65.0774C181.486 64.807 181.566 64.5947 181.865 64.4406C182.035 64.3525 182.16 64.3509 182.24 64.4358C182.334 64.5134 182.417 64.6234 182.49 64.7657C182.637 65.0503 182.772 65.3315 182.897 65.6092C183.029 65.9011 183.165 66.1823 183.304 66.4527C183.494 66.8227 183.698 67.1854 183.917 67.5407C184.143 67.9102 184.351 68.28 184.541 68.65C184.599 68.7638 184.608 68.8855 184.566 69.0149C184.539 69.137 184.469 69.2274 184.355 69.2861Z" fill="white"/>
<path d="M175.673 88.8084C175.427 88.8764 175.164 88.9157 174.885 88.9263C174.625 88.948 174.36 88.9796 174.089 89.021C173.788 89.0709 173.476 89.1153 173.155 89.154C172.838 89.2082 172.521 89.2624 172.204 89.3166C171.945 89.3383 171.756 89.3157 171.638 89.2486C171.536 89.1773 171.448 89.0105 171.376 88.7482C170.945 87.1743 170.521 85.5983 170.104 84.0203C169.703 82.4379 169.287 80.8598 168.855 79.286C168.707 78.7459 168.536 78.2123 168.341 77.685C168.131 77.162 167.952 76.6304 167.804 76.0904C167.732 75.8281 167.827 75.6608 168.089 75.5885C168.352 75.5162 168.514 75.5958 168.578 75.8272C168.657 76.0544 168.748 76.2949 168.851 76.5487C168.966 76.8488 169.15 77.0638 169.401 77.1937C169.672 77.3348 170.131 77.316 170.779 77.1374L183.25 73.6997C183.497 73.6317 183.723 73.5195 183.929 73.3631C184.139 73.2222 184.202 72.9974 184.117 72.6888C184.067 72.5037 184.008 72.3206 183.942 72.1397C183.891 71.9546 183.84 71.7694 183.789 71.5843C183.684 71.1985 183.816 70.9546 184.186 70.8526C184.371 70.8015 184.504 70.8314 184.584 70.9421C184.679 71.0485 184.748 71.1789 184.791 71.3331C184.913 71.7806 185.019 72.2246 185.106 72.6652C185.209 73.1014 185.32 73.5356 185.439 73.9676C185.837 75.418 186.242 76.8663 186.656 78.3125C187.085 79.7544 187.498 81.2005 187.896 82.6509C187.972 82.9286 188.056 83.2042 188.148 83.4777C188.255 83.747 188.362 84.0162 188.469 84.2854C188.23 84.3843 187.992 84.4832 187.754 84.5821C187.52 84.6964 187.283 84.803 187.045 84.9019C186.765 85.029 186.473 85.1758 186.17 85.3422C185.872 85.5241 185.568 85.6575 185.26 85.7426C185.075 85.7936 184.899 85.759 184.734 85.6387C184.583 85.5141 184.485 85.367 184.438 85.1973C184.337 84.827 184.431 84.5354 184.721 84.3227C185.383 83.8914 185.889 83.3784 186.24 82.7837C186.611 82.2002 186.684 81.4995 186.46 80.6818L185.317 76.5157L178.514 78.3908C178.675 78.9772 178.84 79.5459 179.007 80.0972C179.179 80.6638 179.367 81.2262 179.57 81.7844C179.773 82.3425 180.016 82.8648 180.298 83.3511C180.404 83.5544 180.527 83.7611 180.668 83.9713C180.812 84.1969 180.915 84.4177 180.974 84.6337C181.025 84.8189 180.965 84.9348 180.796 84.9816C180.688 85.0114 180.517 85.0252 180.284 85.023C180.056 85.0362 179.883 85.0423 179.767 85.0412C179.545 85.0193 179.4 84.9762 179.333 84.9118C179.281 84.8431 179.227 84.7085 179.172 84.5079C179.071 84.1376 178.994 83.7686 178.943 83.401C178.844 82.7977 178.72 82.193 178.57 81.587C178.436 80.9767 178.286 80.3707 178.121 79.7689C178.028 79.4295 177.857 79.1695 177.608 78.9891C177.379 78.8199 177.08 78.7863 176.71 78.8883L171.018 80.4573C170.648 80.5593 170.398 80.6779 170.269 80.813C170.145 80.9635 170.135 81.2317 170.241 81.6174C170.356 82.034 170.483 82.4969 170.622 83.0061C170.762 83.5153 170.927 84.0258 171.117 84.5377C171.312 85.0649 171.549 85.5388 171.831 85.9592C172.112 86.3795 172.449 86.7015 172.842 86.925C173.176 87.1151 173.593 87.274 174.093 87.4018C174.593 87.5296 175.033 87.6239 175.415 87.6847C175.621 87.7108 175.766 87.7539 175.849 87.8141C175.947 87.87 176.024 87.9982 176.079 88.1988C176.129 88.3839 176.117 88.5201 176.041 88.6074C175.966 88.6946 175.843 88.7616 175.673 88.8084Z" fill="white"/>
<path d="M185.134 98.8809C186.315 98.7978 187.207 98.4704 187.808 97.8988C188.411 97.3431 188.669 96.4508 188.583 95.2218L188.553 94.7909C188.544 94.6632 188.534 94.5275 188.524 94.3839C188.514 94.2402 188.489 94.1057 188.448 93.9802C188.389 93.824 188.31 93.7253 188.211 93.6842C188.112 93.643 187.974 93.6286 187.799 93.641C186.873 93.7061 185.947 93.7633 185.02 93.8125C184.11 93.8765 183.184 93.9416 182.243 94.0079L181.261 94.0769C181.253 94.1898 181.245 94.3026 181.237 94.4155C181.245 94.5272 181.252 94.6389 181.26 94.7507C181.318 95.5806 181.466 96.3161 181.703 96.957C181.958 97.6128 182.354 98.1142 182.891 98.4613C183.445 98.8073 184.193 98.9472 185.134 98.8809ZM172.728 105.865C172.584 105.875 172.463 105.747 172.364 105.482C172.282 105.231 172.221 104.922 172.179 104.556C172.123 104.207 172.083 103.873 172.061 103.554C172.022 103.236 171.999 103.021 171.992 102.909C171.949 102.303 171.974 101.748 172.067 101.244C172.162 100.756 172.492 100.324 173.059 99.9471C174.285 99.1231 175.527 98.3139 176.787 97.5195C178.062 96.724 179.33 95.9291 180.589 95.1347L180.543 94.1275C179.282 94.2162 178.013 94.3055 176.736 94.3953C175.477 94.5 174.208 94.5973 172.931 94.6871C172.788 94.6972 172.647 94.7472 172.509 94.8371C172.387 94.9259 172.331 95.0501 172.342 95.2097C172.356 95.4013 172.377 95.5922 172.407 95.7827C172.436 95.9731 172.457 96.164 172.471 96.3556C172.476 96.4354 172.426 96.5111 172.318 96.5828C172.228 96.6694 172.143 96.7154 172.063 96.7211C171.952 96.7289 171.854 96.7037 171.769 96.6455C171.686 96.6032 171.641 96.5262 171.633 96.4145C171.623 96.2709 171.621 96.1346 171.628 96.0058C171.635 95.877 171.634 95.7488 171.625 95.6211C171.637 95.3315 171.633 95.0431 171.613 94.7558C171.593 94.4685 171.573 94.1812 171.553 93.8939C171.505 93.2076 171.44 92.5144 171.359 91.8144C171.279 91.1303 171.214 90.4372 171.165 89.7349C171.146 89.4635 171.28 89.3178 171.568 89.2976C171.679 89.2897 171.77 89.3314 171.841 89.4227C171.927 89.5128 171.975 89.6138 171.982 89.7255C171.994 89.8851 171.997 90.0453 171.992 90.206C171.987 90.3667 171.99 90.5269 172.002 90.6865C172.017 90.91 172.071 91.0987 172.162 91.2527C172.253 91.4067 172.426 91.4747 172.681 91.4567L187.477 90.4156C187.716 90.3988 187.872 90.3397 187.945 90.2383C188.034 90.1358 188.071 89.9728 188.055 89.7494C188.044 89.5898 188.025 89.4307 187.998 89.2722C187.971 89.1137 187.952 88.9547 187.94 88.7951C187.933 88.6833 187.964 88.5608 188.035 88.4275C188.107 88.3102 188.207 88.247 188.334 88.238C188.638 88.2167 188.802 88.3816 188.826 88.7327C188.837 88.8924 188.841 89.0525 188.836 89.2133C188.847 89.3729 188.85 89.533 188.845 89.6938C188.852 90.0141 188.859 90.3424 188.866 90.6787C188.89 91.0139 188.913 91.3411 188.935 91.6603C188.989 92.4265 189.066 93.1829 189.166 93.9297C189.284 94.6913 189.369 95.4472 189.421 96.1974C189.467 96.8518 189.45 97.5266 189.371 98.2219C189.307 98.9161 189.144 99.5692 188.882 100.181C188.621 100.809 188.241 101.325 187.74 101.729C187.255 102.132 186.613 102.362 185.815 102.418C184.841 102.486 184.045 102.342 183.427 101.984C182.809 101.643 182.317 101.14 181.95 100.476C181.584 99.8285 181.283 99.0798 181.047 98.2302C179.819 99.0223 178.619 99.8687 177.447 100.769C176.275 101.67 175.12 102.577 173.981 103.491C173.693 103.736 173.442 104.042 173.227 104.41C173.029 104.777 172.942 105.144 172.968 105.511C172.976 105.623 172.965 105.704 172.937 105.754C172.925 105.819 172.856 105.856 172.728 105.865Z" fill="white"/>
<path d="M176.828 122.016C176.702 121.999 176.587 121.95 176.485 121.872C176.381 121.809 176.339 121.698 176.361 121.539L176.528 120.327L171.607 119.646C171.493 119.065 171.355 118.488 171.191 117.916C171.044 117.347 170.88 116.775 170.701 116.201C170.521 115.627 170.444 115.019 170.468 114.376C170.489 113.749 170.542 113.134 170.625 112.532C170.697 112.009 170.83 111.454 171.024 110.867C171.218 110.28 171.457 109.715 171.742 109.173C172.042 108.633 172.372 108.17 172.732 107.784C173.732 106.743 174.918 106.043 176.292 105.684C177.664 105.341 179.039 105.265 180.418 105.456C181.67 105.629 182.817 105.982 183.858 106.513C184.897 107.061 185.778 107.756 186.502 108.6C187.223 109.459 187.743 110.435 188.061 111.529C188.392 112.641 188.468 113.847 188.289 115.147C188.147 116.177 187.849 117.169 187.394 118.124C187.327 118.26 187.219 118.463 187.068 118.733C186.916 119.019 186.764 119.297 186.614 119.567C186.478 119.855 186.403 120.046 186.39 120.141C186.357 120.379 186.421 120.558 186.582 120.677C186.744 120.796 186.906 120.907 187.069 121.011C187.231 121.13 187.299 121.277 187.275 121.451C187.262 121.546 187.226 121.63 187.168 121.703C187.107 121.791 187.021 121.828 186.911 121.812C186.181 121.712 185.459 121.62 184.744 121.537C184.026 121.47 183.303 121.386 182.574 121.285C182.352 121.254 182.181 121.15 182.06 120.971C181.937 120.809 181.891 120.617 181.921 120.395C181.958 120.126 182.04 119.943 182.166 119.847C182.306 119.77 182.5 119.708 182.749 119.662C184.024 119.434 185.092 118.952 185.952 118.215C186.811 117.494 187.332 116.468 187.515 115.136C187.603 114.502 187.532 113.903 187.303 113.338C187.074 112.773 186.741 112.259 186.304 111.795C185.881 111.348 185.403 110.951 184.869 110.603C184.336 110.254 183.809 109.971 183.29 109.754C182.771 109.537 182.231 109.357 181.669 109.215C181.107 109.072 180.541 108.962 179.97 108.883C179.415 108.806 178.856 108.761 178.293 108.748C177.729 108.734 177.167 108.769 176.607 108.853C175.849 108.959 175.109 109.171 174.387 109.491C173.664 109.811 173.047 110.25 172.534 110.809C172.018 111.384 171.704 112.084 171.59 112.908C171.549 113.209 171.542 113.555 171.568 113.947C171.593 114.354 171.661 114.743 171.771 115.113C171.879 115.5 172.044 115.83 172.265 116.103C172.501 116.378 172.81 116.541 173.19 116.594L176.328 117.028C176.455 117.046 176.587 117.024 176.725 116.962C176.861 116.916 176.938 116.822 176.958 116.679C176.988 116.458 177.004 116.226 177.005 115.983C177.02 115.759 177.043 115.536 177.073 115.314C177.091 115.188 177.177 115.086 177.333 115.011C177.503 114.954 177.643 114.933 177.754 114.948C177.865 114.964 177.953 115.024 178.019 115.13C178.085 115.236 178.111 115.345 178.096 115.456C178.065 115.678 178.026 115.899 177.98 116.118C177.947 116.356 177.916 116.586 177.885 116.808C177.811 117.347 177.738 117.878 177.666 118.401C177.607 118.942 177.549 119.483 177.49 120.024C177.467 120.312 177.444 120.599 177.42 120.887C177.412 121.176 177.389 121.464 177.35 121.749C177.332 121.876 177.265 121.955 177.147 121.988C177.046 122.022 176.939 122.031 176.828 122.016Z" fill="white"/>
<path d="M172.651 131.271C174.036 131.306 175.42 131.323 176.801 131.322C178.177 131.336 179.552 131.376 180.926 131.44C179.85 130.565 178.785 129.684 177.73 128.799C176.669 127.929 175.604 127.049 174.533 126.158L172.651 131.271ZM184.691 135.315C185.081 135.46 185.446 135.441 185.786 135.26C186.135 135.099 186.379 134.831 186.517 134.455C186.649 134.095 186.641 133.725 186.491 133.345C186.35 132.986 186.085 132.734 185.695 132.59C185.319 132.451 184.969 132.475 184.645 132.662C184.315 132.865 184.083 133.146 183.951 133.506C183.818 133.866 183.814 134.223 183.94 134.577C184.066 134.93 184.316 135.177 184.691 135.315ZM163.695 135.66C163.47 135.577 163.41 135.393 163.515 135.108C163.548 135.017 163.581 134.927 163.614 134.837C163.648 134.747 163.691 134.652 163.745 134.553C163.913 134.189 164.072 133.804 164.221 133.398C164.365 133.008 164.508 132.618 164.652 132.227C164.835 131.732 165.017 131.236 165.199 130.741C165.382 130.245 165.552 129.737 165.71 129.215C165.717 129.149 165.732 129.087 165.754 129.027C165.776 128.967 165.798 128.906 165.82 128.846C165.897 128.636 166.041 128.57 166.251 128.648C166.431 128.714 166.514 128.813 166.5 128.944C166.495 129.096 166.455 129.252 166.379 129.412C166.303 129.571 166.246 129.703 166.208 129.809C166.108 130.079 166.089 130.293 166.149 130.452C166.22 130.632 166.397 130.774 166.683 130.88C166.848 130.941 167.155 130.986 167.604 131.016C168.063 131.067 168.571 131.101 169.127 131.119C169.677 131.152 170.19 131.171 170.666 131.176C171.15 131.202 171.494 131.218 171.696 131.225L173.786 125.549C173.707 125.486 173.532 125.336 173.261 125.099C172.985 124.878 172.664 124.614 172.299 124.308C171.929 124.018 171.566 123.73 171.21 123.445C170.855 123.16 170.544 122.917 170.277 122.716C170.025 122.52 169.869 122.411 169.809 122.389C169.524 122.284 169.301 122.287 169.141 122.398C168.98 122.509 168.851 122.675 168.753 122.894C168.67 123.12 168.59 123.337 168.513 123.547C168.485 123.623 168.41 123.663 168.289 123.669C168.182 123.681 168.091 123.673 168.016 123.645C167.926 123.612 167.873 123.55 167.855 123.458C167.832 123.381 167.835 123.305 167.862 123.23C168.045 122.735 168.242 122.245 168.455 121.76C168.647 121.285 168.831 120.808 169.008 120.327C169.096 120.087 169.177 119.844 169.251 119.598C169.324 119.352 169.408 119.102 169.502 118.847C169.529 118.772 169.587 118.708 169.675 118.655C169.762 118.602 169.844 118.589 169.919 118.617C170.084 118.678 170.167 118.777 170.168 118.914C170.168 119.051 170.134 119.191 170.063 119.336C170.003 119.501 169.953 119.636 169.914 119.741C169.842 119.936 169.859 120.122 169.965 120.297C170.08 120.494 170.202 120.65 170.33 120.765C172.185 122.441 174.059 124.089 175.951 125.711C177.859 127.337 179.788 128.929 181.738 130.487C181.881 130.608 182.086 130.769 182.352 130.97C182.619 131.171 182.828 131.299 182.978 131.355C183.068 131.388 183.151 131.394 183.228 131.371C183.314 131.368 183.387 131.378 183.447 131.401C183.522 131.428 183.543 131.487 183.51 131.577C183.479 131.754 183.433 131.924 183.373 132.089C183.312 132.255 183.258 132.423 183.213 132.593C183.132 132.905 183.052 133.216 182.971 133.527C182.905 133.844 182.835 134.151 182.76 134.447L165.543 134.322C165.139 134.309 164.848 134.381 164.671 134.537C164.504 134.714 164.356 134.975 164.229 135.321C164.18 135.456 164.116 135.56 164.037 135.633C163.974 135.712 163.86 135.721 163.695 135.66ZM184.451 135.968C183.895 135.763 183.52 135.394 183.324 134.861C183.143 134.333 183.149 133.807 183.343 133.281C183.542 132.741 183.881 132.329 184.361 132.046C184.849 131.783 185.371 131.754 185.927 131.96C186.482 132.165 186.868 132.529 187.084 133.053C187.31 133.597 187.324 134.14 187.125 134.68C186.931 135.206 186.572 135.602 186.048 135.868C185.538 136.14 185.006 136.174 184.451 135.968Z" fill="white"/>
<path d="M169.435 149.461C170.436 150.092 171.348 150.354 172.17 150.248C172.984 150.155 173.718 149.587 174.372 148.543L174.601 148.177C174.669 148.068 174.741 147.953 174.818 147.831C174.894 147.709 174.953 147.585 174.994 147.46C175.038 147.298 175.033 147.172 174.977 147.08C174.921 146.988 174.819 146.896 174.67 146.802C173.885 146.307 173.103 145.806 172.327 145.298C171.555 144.812 170.77 144.318 169.971 143.815L169.138 143.291C169.065 143.377 168.992 143.463 168.919 143.55C168.859 143.645 168.8 143.739 168.741 143.834C168.299 144.539 167.985 145.221 167.799 145.879C167.618 146.559 167.643 147.199 167.872 147.797C168.115 148.404 168.636 148.958 169.435 149.461ZM155.311 147.773C155.19 147.696 155.167 147.521 155.244 147.248C155.326 146.997 155.457 146.712 155.639 146.391C155.799 146.076 155.964 145.783 156.134 145.511C156.29 145.232 156.398 145.044 156.458 144.95C156.781 144.434 157.128 144.001 157.5 143.649C157.863 143.31 158.384 143.156 159.063 143.187C160.537 143.245 162.016 143.326 163.501 143.428C164.998 143.539 166.489 143.646 167.973 143.748L168.529 142.907C167.459 142.233 166.383 141.556 165.299 140.874C164.221 140.214 163.141 139.543 162.057 138.861C161.936 138.784 161.792 138.741 161.628 138.732C161.477 138.732 161.359 138.8 161.275 138.935C161.173 139.098 161.077 139.265 160.989 139.436C160.901 139.607 160.805 139.774 160.703 139.937C160.661 140.005 160.575 140.036 160.447 140.03C160.323 140.047 160.227 140.034 160.159 139.991C160.065 139.932 160 139.854 159.967 139.757C159.924 139.673 159.933 139.584 159.993 139.489C160.069 139.367 160.148 139.256 160.23 139.156C160.311 139.057 160.386 138.952 160.454 138.844C160.634 138.617 160.8 138.381 160.953 138.137C161.106 137.893 161.259 137.649 161.412 137.405C161.777 136.822 162.133 136.224 162.48 135.61C162.818 135.01 163.174 134.412 163.548 133.815C163.693 133.585 163.887 133.546 164.13 133.7C164.225 133.76 164.274 133.847 164.277 133.963C164.294 134.087 164.273 134.196 164.213 134.291C164.128 134.426 164.037 134.558 163.938 134.685C163.84 134.812 163.748 134.943 163.663 135.079C163.544 135.269 163.476 135.453 163.459 135.631C163.441 135.809 163.541 135.966 163.758 136.103L176.309 144.005C176.512 144.133 176.673 144.178 176.792 144.139C176.924 144.109 177.05 143.999 177.168 143.809C177.253 143.673 177.332 143.533 177.403 143.389C177.474 143.245 177.553 143.105 177.638 142.97C177.697 142.875 177.795 142.795 177.93 142.729C178.057 142.676 178.175 142.684 178.284 142.753C178.541 142.915 178.576 143.145 178.389 143.443C178.304 143.579 178.212 143.71 178.114 143.837C178.029 143.972 177.937 144.104 177.839 144.231C177.655 144.493 177.468 144.763 177.276 145.039C177.097 145.324 176.923 145.602 176.753 145.873C176.345 146.524 175.962 147.18 175.603 147.843C175.25 148.528 174.873 149.189 174.474 149.826C174.125 150.382 173.714 150.918 173.241 151.432C172.781 151.956 172.265 152.387 171.693 152.727C171.113 153.08 170.502 153.272 169.86 153.303C169.231 153.342 168.578 153.148 167.901 152.722C167.075 152.202 166.518 151.615 166.229 150.96C165.932 150.319 165.831 149.622 165.926 148.869C166.012 148.129 166.21 147.346 166.52 146.52C165.063 146.435 163.596 146.409 162.12 146.444C160.644 146.479 159.178 146.53 157.72 146.595C157.344 146.623 156.961 146.722 156.571 146.893C156.195 147.072 155.909 147.317 155.713 147.629C155.654 147.724 155.598 147.783 155.545 147.807C155.498 147.852 155.42 147.841 155.311 147.773Z" fill="white"/>
<path d="M152.41 162.196C153.062 162.834 153.787 163.396 154.584 163.885C155.37 164.384 156.189 164.737 157.039 164.941C157.889 165.145 158.731 165.14 159.565 164.926C160.41 164.722 161.206 164.237 161.953 163.468C162.712 162.688 163.442 161.903 164.144 161.112L153.638 150.847C153.341 150.556 153.085 150.395 152.869 150.364C152.654 150.333 152.391 150.478 152.078 150.799C151.699 151.189 151.32 151.613 150.942 152.071C150.552 152.54 150.219 153.032 149.943 153.545C149.668 154.081 149.499 154.621 149.439 155.165C149.32 156.504 149.551 157.781 150.131 158.997C150.712 160.213 151.472 161.279 152.41 162.196ZM150.224 164.926C149.492 164.21 148.877 163.397 148.379 162.486C147.881 161.574 147.536 160.61 147.342 159.593C147.149 158.599 147.147 157.591 147.337 156.569C147.465 155.91 147.705 155.227 148.057 154.52C148.421 153.825 148.842 153.162 149.32 152.533C149.787 151.916 150.255 151.366 150.723 150.884C151.114 150.483 151.521 150.098 151.946 149.73C152.348 149.363 152.744 148.978 153.135 148.577C153.414 148.29 153.698 147.997 153.988 147.699C154.256 147.401 154.523 147.092 154.79 146.771C154.89 146.645 154.99 146.531 155.091 146.428C155.18 146.313 155.274 146.204 155.375 146.101C155.576 145.895 155.768 145.881 155.951 146.06C156.065 146.172 156.089 146.296 156.023 146.433C155.957 146.569 155.869 146.707 155.757 146.844C155.657 146.992 155.586 147.112 155.541 147.203C155.443 147.488 155.464 147.754 155.602 148.001C155.741 148.249 155.902 148.462 156.085 148.641C157.127 149.658 158.162 150.67 159.192 151.677C160.222 152.683 161.252 153.69 162.282 154.696C162.877 155.277 163.467 155.853 164.05 156.424C164.634 157.017 165.235 157.581 165.852 158.117C165.875 158.139 165.926 158.178 166.006 158.234C166.086 158.312 166.132 158.357 166.143 158.368C166.314 158.468 166.495 158.465 166.685 158.361C166.876 158.257 167.05 158.113 167.205 157.93C167.373 157.758 167.512 157.614 167.624 157.5C167.713 157.408 167.814 157.339 167.926 157.292C168.05 157.256 168.169 157.294 168.284 157.406C168.501 157.619 168.504 157.834 168.292 158.052C168.013 158.339 167.728 158.608 167.438 158.861C167.147 159.137 166.863 159.418 166.584 159.705C165.792 160.519 165.028 161.361 164.294 162.232C163.559 163.125 162.796 163.978 162.004 164.793C160.799 166.031 159.521 166.863 158.171 167.288C156.82 167.713 155.47 167.725 154.12 167.323C152.758 166.933 151.46 166.134 150.224 164.926Z" fill="white"/>
<path d="M134.304 168.637C134.163 168.423 134.044 168.186 133.947 167.923C133.845 167.683 133.733 167.441 133.609 167.197C133.468 166.926 133.329 166.643 133.192 166.35C133.042 166.065 132.892 165.781 132.742 165.497C132.64 165.257 132.603 165.07 132.63 164.937C132.666 164.817 132.797 164.681 133.023 164.531C134.381 163.626 135.744 162.728 137.112 161.837C138.488 160.96 139.855 160.068 141.213 159.164C141.68 158.854 142.132 158.523 142.572 158.173C143.003 157.809 143.451 157.472 143.917 157.162C144.144 157.011 144.332 157.049 144.482 157.276C144.633 157.502 144.608 157.682 144.408 157.815C144.217 157.962 144.017 158.124 143.809 158.301C143.56 158.505 143.413 158.747 143.368 159.027C143.319 159.329 143.48 159.76 143.851 160.32L150.997 171.103C151.138 171.317 151.315 171.497 151.528 171.643C151.727 171.799 151.96 171.788 152.226 171.611C152.386 171.505 152.541 171.392 152.692 171.272C152.852 171.165 153.012 171.059 153.172 170.953C153.505 170.731 153.777 170.78 153.989 171.1C154.095 171.26 154.108 171.396 154.028 171.507C153.957 171.631 153.855 171.737 153.722 171.826C153.335 172.083 152.947 172.323 152.556 172.544C152.175 172.779 151.797 173.021 151.425 173.269C150.173 174.103 148.925 174.943 147.682 175.79C146.448 176.65 145.205 177.497 143.953 178.33C143.713 178.49 143.478 178.656 143.247 178.829C143.025 179.015 142.803 179.202 142.581 179.388C142.413 179.192 142.245 178.997 142.077 178.801C141.895 178.614 141.721 178.423 141.553 178.227C141.345 178.001 141.115 177.769 140.862 177.534C140.597 177.307 140.376 177.06 140.199 176.793C140.093 176.633 140.071 176.455 140.134 176.26C140.205 176.078 140.314 175.938 140.46 175.841C140.78 175.628 141.086 175.626 141.378 175.835C141.993 176.329 142.638 176.65 143.311 176.797C143.98 176.967 144.668 176.817 145.373 176.347L148.969 173.952L145.072 168.071C144.565 168.408 144.077 168.742 143.607 169.075C143.123 169.416 142.648 169.771 142.181 170.139C141.715 170.507 141.295 170.902 140.922 171.324C140.762 171.488 140.604 171.67 140.449 171.869C140.28 172.078 140.102 172.244 139.916 172.368C139.756 172.475 139.627 172.455 139.53 172.308C139.468 172.215 139.402 172.057 139.332 171.835C139.248 171.621 139.188 171.459 139.153 171.348C139.105 171.13 139.101 170.979 139.141 170.895C139.19 170.824 139.301 170.731 139.474 170.616C139.793 170.403 140.12 170.214 140.453 170.05C140.994 169.767 141.529 169.459 142.057 169.126C142.594 168.807 143.122 168.475 143.642 168.129C143.935 167.934 144.128 167.69 144.222 167.397C144.311 167.126 144.25 166.83 144.037 166.51L140.776 161.589C140.564 161.269 140.374 161.069 140.205 160.988C140.024 160.917 139.767 160.992 139.434 161.214C139.074 161.453 138.675 161.719 138.235 162.012C137.796 162.305 137.363 162.622 136.936 162.963C136.497 163.314 136.121 163.688 135.81 164.088C135.499 164.487 135.299 164.909 135.209 165.353C135.133 165.731 135.112 166.177 135.146 166.692C135.181 167.208 135.229 167.656 135.29 168.038C135.329 168.243 135.333 168.394 135.302 168.491C135.28 168.602 135.182 168.716 135.009 168.831C134.849 168.937 134.716 168.968 134.61 168.924C134.503 168.879 134.402 168.783 134.304 168.637Z" fill="white"/>
<path d="M122.378 187.213C122.266 186.931 122.351 186.733 122.633 186.62C122.752 186.573 122.874 186.533 122.998 186.5C123.123 186.468 123.245 186.428 123.364 186.38C123.423 186.357 123.487 186.322 123.556 186.278C123.63 186.248 123.704 186.219 123.779 186.189C123.927 186.13 123.985 185.994 123.953 185.783C123.927 185.587 123.869 185.377 123.781 185.154C123.698 184.946 123.639 184.798 123.603 184.708L118.082 170.813C118.041 170.709 118.02 170.614 118.021 170.528C118.006 170.447 118.062 170.373 118.19 170.305C118.386 170.192 118.606 170.096 118.85 170.016C119.088 169.921 119.308 169.824 119.51 169.726C119.782 170.065 120.101 170.369 120.466 170.637C120.815 170.911 121.174 171.164 121.542 171.396C123.701 172.843 125.915 174.19 128.184 175.437C130.438 176.691 132.653 178.02 134.83 179.425C134.032 177.418 133.242 175.408 132.46 173.394C131.668 171.402 130.873 169.402 130.076 167.395C130.022 167.261 129.94 167.096 129.827 166.9C129.706 166.724 129.556 166.672 129.378 166.743C129.17 166.826 128.965 166.917 128.762 167.015C128.545 167.118 128.34 167.209 128.147 167.286C128.028 167.333 127.93 167.304 127.853 167.197C127.767 167.11 127.71 167.03 127.68 166.956C127.639 166.852 127.63 166.743 127.654 166.63C127.663 166.523 127.727 166.446 127.846 166.398C128.099 166.298 128.357 166.212 128.622 166.14C128.886 166.069 129.145 165.983 129.397 165.882C129.739 165.746 130.085 165.599 130.436 165.442C130.793 165.3 131.136 165.145 131.466 164.979C131.594 164.911 131.724 164.85 131.858 164.797C131.971 164.734 132.087 164.679 132.206 164.632C132.503 164.513 132.714 164.61 132.838 164.922C132.885 165.041 132.879 165.156 132.819 165.266C132.766 165.391 132.687 165.474 132.583 165.515C132.434 165.575 132.287 165.616 132.142 165.64C132.002 165.678 131.858 165.727 131.709 165.786C131.486 165.875 131.335 165.97 131.254 166.071C131.165 166.193 131.173 166.388 131.28 166.656C132.095 168.708 132.896 170.765 133.681 172.829C134.452 174.899 135.245 176.96 136.06 179.012C136.137 179.205 136.211 179.391 136.282 179.569C136.353 179.748 136.427 179.934 136.503 180.127C136.58 180.32 136.694 180.499 136.845 180.662C136.982 180.832 137.169 180.869 137.406 180.774C137.585 180.703 137.767 180.622 137.955 180.53C138.127 180.444 138.31 180.362 138.503 180.285C138.756 180.184 138.938 180.275 139.05 180.557C139.157 180.825 139.076 181.012 138.809 181.119C138.422 181.273 138.033 181.42 137.641 181.559C137.248 181.699 136.867 181.843 136.495 181.991C136.153 182.127 135.812 182.264 135.47 182.4C135.119 182.557 134.773 182.704 134.431 182.841C133.082 182.001 131.702 181.217 130.294 180.487C128.876 179.778 127.487 179.015 126.129 178.196C125.331 177.705 124.526 177.216 123.714 176.731C122.901 176.246 122.084 175.771 121.262 175.306C121.888 176.882 122.515 178.459 123.141 180.035C123.752 181.617 124.371 183.196 124.997 184.772C125.051 184.906 125.138 185.061 125.259 185.236C125.372 185.432 125.525 185.492 125.718 185.415L126.32 185.175C126.409 185.139 126.492 185.089 126.569 185.023C126.653 184.973 126.739 184.93 126.828 184.894C127.11 184.781 127.313 184.881 127.438 185.193C127.508 185.372 127.498 185.497 127.406 185.568C127.319 185.654 127.202 185.727 127.053 185.786C126.756 185.905 126.463 186.013 126.175 186.111C125.872 186.215 125.579 186.323 125.297 186.436C124.911 186.59 124.53 186.759 124.156 186.943C123.766 187.133 123.378 187.305 122.992 187.459C122.873 187.507 122.751 187.504 122.627 187.45C122.508 187.411 122.425 187.332 122.378 187.213Z" fill="white"/>
<path d="M103.906 178.912L110.183 178.255L110.375 180.093L104.097 180.75L103.906 178.912Z" fill="white"/>
</svg>
